<svg xmlns="http://www.w3.org/2000/svg" xmlns:xlink="http://www.w3.org/1999/xlink" id="Booth_Header" data-name="Booth Header" viewBox="0 0 12218.54 2873.47"><defs><style>      .cls-1, .cls-2 {        opacity: .2;      }      .cls-1, .cls-2, .cls-3, .cls-4 {        fill: #17457f;      }      .cls-5 {        fill: #dd5b1f;      }      .cls-5, .cls-2, .cls-4 {        fill-rule: evenodd;      }      .cls-5, .cls-3, .cls-4 {        opacity: .8;      }      .cls-6 {        fill: url(#GradientFill_1);        stroke: #8ed8f8;        stroke-miterlimit: 2.61;        stroke-width: .5px;      }    </style><linearGradient id="GradientFill_1" data-name="GradientFill 1" x1=".25" y1="1436.86" x2="12218.29" y2="1436.86" gradientUnits="userSpaceOnUse"><stop offset="0" stop-color="#3d90ce"></stop><stop offset=".22" stop-color="#71aedb"></stop><stop offset=".49" stop-color="#aed0ea"></stop><stop offset=".72" stop-color="#d9e9f5"></stop><stop offset=".9" stop-color="#f4f9fc"></stop><stop offset="1" stop-color="#fff"></stop></linearGradient></defs><g id="background"><rect id="gradient" class="cls-6" x=".25" y=".25" width="12218.04" height="2873.22"></rect><g id="graphics"><g><path class="cls-4" d="M7668.48,1864.86l-1.72-.99-370.83,214.1v428.2l369.11,213.11,1.72.99,370.83-214.1v-428.2l-369.12-213.11h0ZM7666.77,2712.33h0l-363.96-210.13v-420.26l363.96-210.13,363.96,210.13v420.26l-363.96,210.13Z"></path><path class="cls-4" d="M8034.16,2489.77c11.16,0,20.2,9.04,20.2,20.2s-9.05,20.2-20.2,20.2-20.2-9.05-20.2-20.2,9.05-20.2,20.2-20.2Z"></path><path class="cls-4" d="M8034.16,2059.75c11.16,0,20.2,9.05,20.2,20.2s-9.05,20.2-20.2,20.2-20.2-9.05-20.2-20.2,9.05-20.2,20.2-20.2Z"></path><path class="cls-4" d="M7666.76,1847.64c11.16,0,20.2,9.04,20.2,20.2s-9.05,20.2-20.2,20.2-20.2-9.05-20.2-20.2,9.05-20.2,20.2-20.2Z"></path><path class="cls-4" d="M7299.37,2059.75c11.16,0,20.2,9.05,20.2,20.2,0,11.16-9.05,20.2-20.2,20.2s-20.2-9.05-20.2-20.2c0-11.16,9.04-20.2,20.2-20.2Z"></path><circle class="cls-3" cx="7666.76" cy="2722.09" r="20.2" transform="translate(-459.85 2338.48) rotate(-16.84)"></circle><path class="cls-4" d="M7299.37,2489.77c11.16,0,20.2,9.04,20.2,20.2s-9.05,20.2-20.2,20.2-20.2-9.05-20.2-20.2,9.04-20.2,20.2-20.2Z"></path></g><g><path class="cls-4" d="M7345.32,1517.55l-207.92,120.04-1.72.99v242.08l209.64,121.03,207.92-120.04,1.72-.99v-242.08l-209.64-121.03h0ZM7345.32,1993.76h0l-202.77-117.07v-234.13l202.77-117.07,202.76,117.07v234.13l-202.76,117.07Z"></path><path class="cls-4" d="M7345.32,1977.52c11.16,0,20.2,9.05,20.2,20.2s-9.04,20.2-20.2,20.2-20.2-9.04-20.2-20.2,9.05-20.2,20.2-20.2Z"></path><path class="cls-4" d="M7139.12,1858.47c11.16,0,20.2,9.05,20.2,20.2s-9.05,20.21-20.2,20.21-20.2-9.05-20.2-20.21,9.05-20.2,20.2-20.2Z"></path><path class="cls-4" d="M7139.12,1620.37c11.16,0,20.2,9.05,20.2,20.2s-9.05,20.21-20.2,20.21-20.2-9.05-20.2-20.21,9.05-20.2,20.2-20.2Z"></path><path class="cls-4" d="M7345.32,1501.32c11.16,0,20.2,9.04,20.2,20.2s-9.04,20.2-20.2,20.2-20.2-9.05-20.2-20.2,9.05-20.2,20.2-20.2Z"></path><path class="cls-4" d="M7551.53,1620.37c11.16,0,20.2,9.05,20.2,20.2s-9.05,20.21-20.2,20.21-20.2-9.05-20.2-20.21,9.04-20.2,20.2-20.2Z"></path><path class="cls-4" d="M7551.53,1858.47c11.16,0,20.2,9.05,20.2,20.2s-9.05,20.21-20.2,20.21-20.2-9.05-20.2-20.21,9.04-20.2,20.2-20.2Z"></path></g><g><path class="cls-4" d="M7608.41,1093.32l-207.92,120.04-1.72.99v242.08l209.64,121.03,207.92-120.04,1.72-.99v-242.08l-209.64-121.03h0ZM7608.41,1569.52h0l-202.76-117.07v-234.13l202.76-117.07,202.77,117.07v234.13l-202.77,117.07Z"></path><path class="cls-4" d="M7608.41,1553.29c11.16,0,20.2,9.05,20.2,20.2s-9.04,20.2-20.2,20.2-20.2-9.04-20.2-20.2,9.05-20.2,20.2-20.2Z"></path><path class="cls-4" d="M7402.21,1434.24c11.16,0,20.2,9.04,20.2,20.2s-9.04,20.2-20.2,20.2-20.2-9.04-20.2-20.2,9.05-20.2,20.2-20.2Z"></path><path class="cls-4" d="M7402.21,1196.14c11.16,0,20.2,9.05,20.2,20.2s-9.04,20.2-20.2,20.2-20.2-9.05-20.2-20.2,9.05-20.2,20.2-20.2Z"></path><path class="cls-4" d="M7608.41,1077.09c11.16,0,20.2,9.04,20.2,20.2s-9.04,20.2-20.2,20.2-20.2-9.04-20.2-20.2,9.05-20.2,20.2-20.2Z"></path><circle class="cls-3" cx="7814.61" cy="1216.34" r="20.2" transform="translate(5526.15 8786.72) rotate(-82.03)"></circle><path class="cls-4" d="M7814.61,1434.24c11.16,0,20.2,9.04,20.2,20.2s-9.04,20.2-20.2,20.2-20.2-9.04-20.2-20.2,9.05-20.2,20.2-20.2Z"></path></g><g><path class="cls-4" d="M7402.21,617.12l-207.92,120.04-1.72.99v242.08l209.64,121.03,207.92-120.04,1.72-.99v-242.08l-209.64-121.03h0ZM7402.21,1093.32h0l-202.77-117.07v-234.13l202.77-117.07,202.76,117.07v234.13l-202.76,117.07Z"></path><path class="cls-4" d="M7402.21,1077.09c11.16,0,20.2,9.04,20.2,20.2s-9.04,20.2-20.2,20.2-20.2-9.04-20.2-20.2,9.05-20.2,20.2-20.2Z"></path><path class="cls-4" d="M7196.01,958.04c11.16,0,20.2,9.05,20.2,20.2s-9.05,20.2-20.2,20.2-20.2-9.05-20.2-20.2,9.05-20.2,20.2-20.2Z"></path><path class="cls-4" d="M7196.01,719.94c11.16,0,20.2,9.04,20.2,20.2s-9.05,20.2-20.2,20.2-20.2-9.05-20.2-20.2,9.05-20.2,20.2-20.2Z"></path><path class="cls-4" d="M7402.21,600.88c11.16,0,20.2,9.05,20.2,20.2s-9.04,20.2-20.2,20.2-20.2-9.04-20.2-20.2,9.05-20.2,20.2-20.2Z"></path><path class="cls-4" d="M7608.41,719.94c11.16,0,20.2,9.04,20.2,20.2s-9.04,20.2-20.2,20.2-20.2-9.05-20.2-20.2,9.05-20.2,20.2-20.2Z"></path><path class="cls-4" d="M7608.41,958.04c11.16,0,20.2,9.05,20.2,20.2s-9.04,20.2-20.2,20.2-20.2-9.05-20.2-20.2,9.05-20.2,20.2-20.2Z"></path></g><g><path class="cls-4" d="M8189.22,322.77l207.92,120.04,1.72.99v242.08l-209.64,121.03-207.92-120.04-1.72-.99v-242.08l209.64-121.03h0ZM8189.22,798.97h0l202.76-117.07v-234.13l-202.76-117.07-202.76,117.07v234.13l202.76,117.07Z"></path><path class="cls-4" d="M8189.22,782.74c-11.16,0-20.2,9.05-20.2,20.2s9.04,20.2,20.2,20.2,20.2-9.05,20.2-20.2-9.05-20.2-20.2-20.2Z"></path><circle class="cls-3" cx="8395.42" cy="683.89" r="20.2"></circle><circle class="cls-3" cx="8395.42" cy="445.79" r="20.2"></circle><path class="cls-4" d="M8189.22,306.54c-11.16,0-20.2,9.04-20.2,20.2s9.04,20.2,20.2,20.2,20.2-9.05,20.2-20.2-9.05-20.2-20.2-20.2Z"></path><circle class="cls-3" cx="7983.02" cy="445.79" r="20.2" transform="translate(15.33 1111.55) rotate(-7.97)"></circle><circle class="cls-3" cx="7983.02" cy="683.89" r="20.2" transform="translate(-17.7 1113.85) rotate(-7.97)"></circle></g><g><path class="cls-4" d="M8270.86,1187.19l-209.64,121.04v242.07l209.64,121.03,209.64-121.03v-242.07l-209.64-121.04h0ZM8270.86,1663.39h0l-202.76-117.06v-234.13l202.76-117.07,202.77,117.07v234.13l-202.77,117.06Z"></path><path class="cls-4" d="M8270.86,1647.15c11.16,0,20.2,9.05,20.2,20.2s-9.05,20.2-20.2,20.2-20.2-9.05-20.2-20.2,9.05-20.2,20.2-20.2Z"></path><path class="cls-4" d="M8064.66,1528.1c11.16,0,20.2,9.04,20.2,20.2s-9.05,20.21-20.2,20.21-20.2-9.05-20.2-20.21,9.05-20.2,20.2-20.2Z"></path><path class="cls-4" d="M8064.66,1290c11.16,0,20.2,9.05,20.2,20.2s-9.05,20.2-20.2,20.2-20.2-9.05-20.2-20.2,9.05-20.2,20.2-20.2Z"></path><path class="cls-4" d="M8270.86,1170.95c11.16,0,20.2,9.05,20.2,20.21s-9.05,20.2-20.2,20.2-20.2-9.04-20.2-20.2,9.05-20.21,20.2-20.21Z"></path><circle class="cls-3" cx="8477.06" cy="1310.2" r="20.2"></circle><path class="cls-4" d="M8477.06,1528.1c11.16,0,20.2,9.04,20.2,20.2s-9.05,20.21-20.2,20.21-20.2-9.05-20.2-20.21,9.05-20.2,20.2-20.2Z"></path></g><g><path class="cls-4" d="M8522.67,1608.89l-209.64,121.04v242.07l209.64,121.03,209.64-121.03v-242.07l-209.64-121.04h0ZM8522.67,2085.09h0l-202.76-117.07v-234.13l202.76-117.07,202.77,117.07v234.13l-202.77,117.07Z"></path><path class="cls-4" d="M8522.67,2068.86c11.16,0,20.21,9.04,20.21,20.2s-9.05,20.2-20.21,20.2-20.2-9.05-20.2-20.2,9.05-20.2,20.2-20.2Z"></path><circle class="cls-3" cx="8316.47" cy="1970.01" r="20.2" transform="translate(4021 9358.75) rotate(-73.15)"></circle><circle class="cls-3" cx="8316.47" cy="1731.91" r="20.2" transform="translate(-145.04 2484.27) rotate(-16.84)"></circle><path class="cls-4" d="M8522.67,1592.65c11.16,0,20.21,9.05,20.21,20.2s-9.05,20.21-20.21,20.21-20.2-9.05-20.2-20.21,9.05-20.2,20.2-20.2Z"></path><path class="cls-4" d="M8728.87,1711.7c11.16,0,20.21,9.04,20.21,20.2s-9.05,20.2-20.21,20.2-20.2-9.05-20.2-20.2,9.04-20.2,20.2-20.2Z"></path><path class="cls-4" d="M8728.87,1949.81c11.16,0,20.21,9.05,20.21,20.2s-9.05,20.2-20.21,20.2-20.2-9.04-20.2-20.2,9.04-20.2,20.2-20.2Z"></path></g><g><path class="cls-4" d="M8316.47,2087.62l-209.64,121.04v242.07l209.64,121.04,209.64-121.04v-242.07l-209.64-121.04h0ZM8316.47,2563.82h0l-202.77-117.06v-234.13l202.77-117.07,202.76,117.07v234.13l-202.76,117.06Z"></path><path class="cls-4" d="M8316.47,2547.59c11.16,0,20.2,9.05,20.2,20.2s-9.04,20.21-20.2,20.21-20.2-9.05-20.2-20.21,9.05-20.2,20.2-20.2Z"></path><path class="cls-4" d="M8110.27,2428.54c11.16,0,20.2,9.05,20.2,20.2s-9.05,20.2-20.2,20.2-20.2-9.05-20.2-20.2,9.05-20.2,20.2-20.2Z"></path><path class="cls-4" d="M8110.27,2190.44c11.16,0,20.2,9.04,20.2,20.2s-9.05,20.2-20.2,20.2-20.2-9.05-20.2-20.2,9.05-20.2,20.2-20.2Z"></path><circle class="cls-3" cx="8316.47" cy="2091.59" r="20.2" transform="translate(5329.9 10130.17) rotate(-83.74)"></circle><path class="cls-4" d="M8522.67,2190.44c11.16,0,20.21,9.04,20.21,20.2s-9.05,20.2-20.21,20.2-20.2-9.05-20.2-20.2,9.05-20.2,20.2-20.2Z"></path><path class="cls-4" d="M8522.67,2428.54c11.16,0,20.21,9.05,20.21,20.2s-9.05,20.2-20.21,20.2-20.2-9.05-20.2-20.2,9.05-20.2,20.2-20.2Z"></path></g><g><path class="cls-4" d="M7114.38,407.67l-207.92,120.05-1.72.99v242.08l209.64,121.03,207.92-120.05,1.72-.99v-242.08l-209.64-121.03h0ZM7114.38,883.88h0l-202.77-117.07v-234.13l202.77-117.07,202.77,117.07v234.13l-202.77,117.07Z"></path><path class="cls-4" d="M7114.38,867.64c11.16,0,20.2,9.05,20.2,20.2s-9.05,20.2-20.2,20.2-20.2-9.05-20.2-20.2,9.04-20.2,20.2-20.2Z"></path><path class="cls-4" d="M6908.18,748.59c11.16,0,20.2,9.04,20.2,20.2s-9.04,20.21-20.2,20.21-20.2-9.05-20.2-20.21,9.05-20.2,20.2-20.2Z"></path><path class="cls-4" d="M6908.18,510.49c11.16,0,20.2,9.05,20.2,20.2s-9.04,20.2-20.2,20.2-20.2-9.05-20.2-20.2,9.05-20.2,20.2-20.2Z"></path><path class="cls-4" d="M7114.38,391.44c11.16,0,20.2,9.05,20.2,20.21s-9.05,20.2-20.2,20.2-20.2-9.05-20.2-20.2,9.04-20.21,20.2-20.21Z"></path><path class="cls-4" d="M7320.58,510.49c11.16,0,20.2,9.05,20.2,20.2s-9.05,20.2-20.2,20.2-20.2-9.05-20.2-20.2,9.05-20.2,20.2-20.2Z"></path><path class="cls-4" d="M7320.58,748.59c11.16,0,20.2,9.04,20.2,20.2s-9.05,20.21-20.2,20.21-20.2-9.05-20.2-20.21,9.05-20.2,20.2-20.2Z"></path></g><polygon class="cls-4" points="7999.46 1853.96 7999.46 2005.24 8130.47 2080.88 8261.48 2005.24 8261.48 1853.96 8130.47 1778.33 7999.46 1853.96"></polygon><g><path class="cls-2" d="M7756.52,2080.66l-329.44,190.2-2.73,1.57v383.55l332.17,191.77,329.44-190.2,2.72-1.57v-383.55l-332.17-191.77h0ZM7756.52,2835.18h0l-321.28-185.49v-370.96l321.28-185.49,321.27,185.49v370.96l-321.27,185.49Z"></path><path class="cls-2" d="M7756.51,2809.45c17.68,0,32.01,14.33,32.01,32.01s-14.33,32.01-32.01,32.01-32.01-14.33-32.01-32.01,14.33-32.01,32.01-32.01Z"></path><path class="cls-2" d="M7429.8,2620.82c17.68,0,32.01,14.33,32.01,32.01s-14.33,32.01-32.01,32.01-32.01-14.33-32.01-32.01,14.33-32.01,32.01-32.01Z"></path><path class="cls-2" d="M7429.8,2243.56c17.68,0,32.01,14.33,32.01,32.01s-14.33,32.01-32.01,32.01-32.01-14.33-32.01-32.01,14.33-32.01,32.01-32.01Z"></path><path class="cls-2" d="M7756.51,2054.93c17.68,0,32.01,14.33,32.01,32.01s-14.33,32.01-32.01,32.01-32.01-14.33-32.01-32.01,14.33-32.01,32.01-32.01Z"></path><path class="cls-2" d="M8083.23,2243.56c17.68,0,32.01,14.33,32.01,32.01s-14.33,32.01-32.01,32.01-32.01-14.33-32.01-32.01,14.33-32.01,32.01-32.01Z"></path><path class="cls-2" d="M8083.23,2620.82c17.68,0,32.01,14.33,32.01,32.01s-14.33,32.01-32.01,32.01-32.01-14.33-32.01-32.01,14.33-32.01,32.01-32.01Z"></path></g><g><path class="cls-2" d="M8173.36,1408.48l-329.43,190.2-2.72,1.56v383.56l332.16,191.77,329.45-190.2,2.72-1.56v-383.56l-332.17-191.77h0ZM8173.36,2163h0l-321.26-185.49v-370.96l321.26-185.49,321.28,185.49v370.96l-321.28,185.49Z"></path><path class="cls-2" d="M8173.37,2137.28c17.68,0,32.01,14.33,32.01,32.01s-14.33,32.01-32.01,32.01-32.01-14.33-32.01-32.01,14.33-32.01,32.01-32.01Z"></path><path class="cls-2" d="M7846.65,1948.65c17.68,0,32.01,14.33,32.01,32.01s-14.33,32.01-32.01,32.01-32.01-14.33-32.01-32.01,14.33-32.01,32.01-32.01Z"></path><path class="cls-2" d="M7846.65,1571.39c17.68,0,32.01,14.33,32.01,32.01s-14.33,32.01-32.01,32.01-32.01-14.33-32.01-32.01,14.33-32.01,32.01-32.01Z"></path><path class="cls-2" d="M8173.37,1382.76c17.68,0,32.01,14.33,32.01,32.01s-14.33,32.01-32.01,32.01-32.01-14.33-32.01-32.01,14.33-32.01,32.01-32.01Z"></path><circle class="cls-1" cx="8500.09" cy="1603.4" r="32.01" transform="translate(6371.62 9987.43) rotate(-86.44)"></circle><path class="cls-2" d="M8500.09,1948.65c17.68,0,32.01,14.33,32.01,32.01s-14.33,32.01-32.01,32.01-32.01-14.33-32.01-32.01,14.33-32.01,32.01-32.01Z"></path></g><g><path class="cls-2" d="M7846.66,653.96l-329.45,190.2-2.72,1.56v383.56l332.17,191.77,329.43-190.2,2.72-1.56v-383.56l-332.16-191.77h0ZM7846.66,1408.48h0l-321.28-185.49v-370.96l321.28-185.49,321.26,185.49v370.96l-321.26,185.49Z"></path><path class="cls-2" d="M7846.65,1382.76c17.68,0,32.01,14.33,32.01,32.01s-14.33,32.01-32.01,32.01-32.01-14.33-32.01-32.01,14.33-32.01,32.01-32.01Z"></path><path class="cls-2" d="M7519.94,1194.13c17.68,0,32.01,14.33,32.01,32.01s-14.33,32.01-32.01,32.01-32.01-14.33-32.01-32.01,14.33-32.01,32.01-32.01Z"></path><path class="cls-2" d="M7519.94,816.87c17.68,0,32.01,14.33,32.01,32.01s-14.33,32.01-32.01,32.01-32.01-14.33-32.01-32.01,14.33-32.01,32.01-32.01Z"></path><path class="cls-2" d="M7846.65,628.24c17.68,0,32.01,14.33,32.01,32.01s-14.33,32.01-32.01,32.01-32.01-14.33-32.01-32.01,14.33-32.01,32.01-32.01Z"></path><path class="cls-2" d="M8173.37,816.87c17.68,0,32.01,14.33,32.01,32.01s-14.33,32.01-32.01,32.01-32.01-14.33-32.01-32.01,14.33-32.01,32.01-32.01Z"></path><circle class="cls-1" cx="8173.37" cy="1226.14" r="32.01" transform="translate(1526.91 6138.57) rotate(-45)"></circle></g><polygon class="cls-5" points="7847.04 892.12 7847.04 1043.4 7978.05 1119.03 8109.06 1043.4 8109.06 892.12 7978.05 816.48 7847.04 892.12"></polygon></g></g></svg>