<svg xmlns="http://www.w3.org/2000/svg" xmlns:xlink="http://www.w3.org/1999/xlink" id="Front_Panel_Insert" data-name="Front Panel Insert" viewBox="0 0 4368.54 3896.76"><defs><style>      .cls-1, .cls-2 {        opacity: .2;      }      .cls-1, .cls-2, .cls-3, .cls-4 {        fill: #17457f;      }      .cls-5 {        fill: #dd5b1f;      }      .cls-5, .cls-2, .cls-4 {        fill-rule: evenodd;      }      .cls-5, .cls-3, .cls-4 {        opacity: .8;      }      .cls-6 {        fill: url(#GradientFill_1);      }    </style><linearGradient id="GradientFill_1" data-name="GradientFill 1" x1="2189.54" y1="5434.03" x2="2189.54" y2="-295.37" gradientUnits="userSpaceOnUse"><stop offset="0" stop-color="#3d90ce"></stop><stop offset=".22" stop-color="#71aedb"></stop><stop offset=".49" stop-color="#aed0ea"></stop><stop offset=".72" stop-color="#d9e9f5"></stop><stop offset=".9" stop-color="#f4f9fc"></stop><stop offset="1" stop-color="#fff"></stop></linearGradient></defs><g id="background-2" data-name="background"><rect id="gradient" class="cls-6" x="10.54" width="4358" height="3896.76"></rect><g id="graphics"><g><polygon class="cls-4" points="31.72 3896.76 41.44 3879.16 358.9 3879.16 368.62 3896.76 358.21 3896.76 353.69 3888.59 46.65 3888.59 42.13 3896.76 31.72 3896.76"></polygon><path class="cls-4" d="M382.79,3883.87c0-15.29-11.86-27.68-26.49-27.68s-26.49,12.4-26.49,27.68c0,4.65,1.1,9.04,3.04,12.88h46.91c1.94-3.85,3.04-8.23,3.04-12.88Z"></path><path class="cls-4" d="M70.54,3883.87c0-15.29-11.86-27.68-26.49-27.68s-26.49,12.4-26.49,27.68c0,4.65,1.1,9.04,3.04,12.88h46.91c1.94-3.85,3.04-8.23,3.04-12.88Z"></path></g><g><polygon class="cls-4" points="1383.47 3896.76 1388 3888.56 1949.56 3888.56 1954.09 3896.76 1383.47 3896.76"></polygon><path class="cls-4" d="M1409.52,3893.28c0-15.29-11.86-27.68-26.49-27.68s-26.49,12.4-26.49,27.68c0,1.18.07,2.34.21,3.48h52.57c.14-1.14.21-2.3.21-3.48Z"></path><path class="cls-4" d="M1973.45,3893.28c0-15.29-11.86-27.68-26.49-27.68s-26.49,12.4-26.49,27.68c0,1.18.07,2.34.21,3.48h52.57c.14-1.14.21-2.3.21-3.48Z"></path></g><g><path class="cls-4" d="M3465.19,3401.52l-85.7,155.09-.71,1.28h-172.81l-86.4-156.37,85.7-155.09.7-1.28h172.81l86.4,156.37h0ZM3125.24,3401.52h0l83.57,151.24h167.14l83.58-151.24-83.58-151.24h-167.14l-83.57,151.24Z"></path><path class="cls-4" d="M3136.82,3401.52c0-8.32-6.46-15.07-14.42-15.07s-14.42,6.75-14.42,15.07,6.46,15.07,14.42,15.07,14.42-6.75,14.42-15.07Z"></path><path class="cls-4" d="M3221.81,3555.32c0-8.32-6.46-15.07-14.42-15.07s-14.42,6.75-14.42,15.07,6.46,15.07,14.42,15.07,14.42-6.75,14.42-15.07Z"></path><ellipse class="cls-3" cx="3377.36" cy="3555.32" rx="14.42" ry="15.07"></ellipse><path class="cls-4" d="M3476.77,3401.52c0-8.32-6.46-15.07-14.42-15.07s-14.42,6.75-14.42,15.07,6.46,15.07,14.42,15.07,14.42-6.75,14.42-15.07Z"></path><ellipse class="cls-3" cx="3377.36" cy="3247.71" rx="14.42" ry="15.07"></ellipse><path class="cls-4" d="M3221.81,3247.71c0-8.32-6.46-15.07-14.42-15.07s-14.42,6.75-14.42,15.07,6.46,15.07,14.42,15.07,14.42-6.75,14.42-15.07Z"></path></g><g><polygon class="cls-4" points="3765.47 3896.76 3773.89 3881.52 3775.19 3879.16 4092.65 3879.16 4102.38 3896.76 4091.95 3896.76 4087.44 3888.59 3780.4 3888.59 3775.88 3896.76 3765.47 3896.76"></polygon><path class="cls-4" d="M4116.54,3883.87c0-15.29-11.86-27.68-26.49-27.68s-26.49,12.4-26.49,27.68c0,4.65,1.1,9.04,3.04,12.88h46.91c1.94-3.85,3.04-8.23,3.04-12.88Z"></path><path class="cls-4" d="M3804.29,3883.87c0-15.29-11.86-27.68-26.49-27.68s-26.49,12.4-26.49,27.68c0,4.65,1.1,9.04,3.04,12.88h46.91c1.94-3.85,3.04-8.23,3.04-12.88Z"></path></g><g><path class="cls-4" d="M3117.76,3568.94l-158.73,287.25h-317.46l-158.73-287.25,158.73-287.26h317.46l158.73,287.26h0ZM2493.25,3568.94h0l153.52,277.83h307.05l153.53-277.83-153.53-277.84h-307.05l-153.52,277.84Z"></path><path class="cls-4" d="M2514.54,3568.93c0-15.29-11.86-27.68-26.49-27.68s-26.49,12.4-26.49,27.68,11.86,27.68,26.49,27.68,26.49-12.4,26.49-27.68Z"></path><path class="cls-4" d="M2670.67,3851.48c0-15.29-11.86-27.68-26.49-27.68s-26.5,12.4-26.5,27.68,11.86,27.68,26.5,27.68,26.49-12.4,26.49-27.68Z"></path><path class="cls-4" d="M2982.92,3851.48c0-15.29-11.86-27.68-26.49-27.68s-26.49,12.4-26.49,27.68,11.86,27.68,26.49,27.68,26.49-12.4,26.49-27.68Z"></path><path class="cls-4" d="M3139.05,3568.93c0-15.29-11.86-27.68-26.5-27.68s-26.49,12.4-26.49,27.68,11.86,27.68,26.49,27.68,26.5-12.4,26.5-27.68Z"></path><path class="cls-4" d="M2982.92,3286.39c0-15.29-11.86-27.68-26.49-27.68s-26.49,12.4-26.49,27.68,11.86,27.68,26.49,27.68,26.49-12.4,26.49-27.68Z"></path><path class="cls-4" d="M2670.67,3286.39c0-15.29-11.86-27.68-26.49-27.68s-26.5,12.4-26.5,27.68,11.86,27.68,26.5,27.68,26.49-12.4,26.49-27.68Z"></path></g><g><path class="cls-4" d="M2564.72,3223.89l-158.73,287.25h-317.46l-158.73-287.25,158.73-287.26h317.46l158.73,287.26h0ZM1940.22,3223.89h0l153.53,277.83h307.04l153.53-277.83-153.53-277.84h-307.04l-153.53,277.84Z"></path><path class="cls-4" d="M1961.51,3223.89c0-15.29-11.86-27.69-26.49-27.69s-26.49,12.39-26.49,27.69,11.86,27.68,26.49,27.68,26.49-12.4,26.49-27.68Z"></path><path class="cls-4" d="M2117.64,3506.44c0-15.29-11.86-27.68-26.49-27.68s-26.49,12.39-26.49,27.68,11.86,27.68,26.49,27.68,26.49-12.4,26.49-27.68Z"></path><ellipse class="cls-3" cx="2403.4" cy="3506.44" rx="26.49" ry="27.68"></ellipse><path class="cls-4" d="M2586.02,3223.89c0-15.29-11.86-27.69-26.49-27.69s-26.5,12.39-26.5,27.69,11.86,27.68,26.5,27.68,26.49-12.4,26.49-27.68Z"></path><path class="cls-4" d="M2429.89,2941.34c0-15.29-11.86-27.69-26.49-27.69s-26.49,12.4-26.49,27.69,11.86,27.68,26.49,27.68,26.49-12.39,26.49-27.68Z"></path><path class="cls-4" d="M2117.64,2941.34c0-15.29-11.86-27.69-26.49-27.69s-26.49,12.4-26.49,27.69,11.86,27.68,26.49,27.68,26.49-12.39,26.49-27.68Z"></path></g><g><path class="cls-4" d="M1936.91,3506.43l-158.73,287.26h-317.46l-158.73-287.26,158.73-287.25h317.46l158.73,287.25h0ZM1312.4,3506.43h0l153.52,277.84h307.05l153.53-277.84-153.53-277.83h-307.05l-153.52,277.83Z"></path><path class="cls-4" d="M1333.69,3506.44c0-15.29-11.86-27.68-26.49-27.68s-26.5,12.39-26.5,27.68,11.86,27.68,26.5,27.68,26.49-12.4,26.49-27.68Z"></path><path class="cls-4" d="M1489.82,3788.99c0-15.29-11.86-27.68-26.49-27.68s-26.49,12.4-26.49,27.68,11.86,27.68,26.49,27.68,26.49-12.4,26.49-27.68Z"></path><ellipse class="cls-3" cx="1775.57" cy="3788.99" rx="26.49" ry="27.68"></ellipse><ellipse class="cls-3" cx="1931.7" cy="3506.44" rx="26.49" ry="27.68"></ellipse><path class="cls-4" d="M1802.07,3223.89c0-15.29-11.86-27.69-26.49-27.69s-26.49,12.39-26.49,27.69,11.86,27.68,26.49,27.68,26.49-12.4,26.49-27.68Z"></path><path class="cls-4" d="M1489.82,3223.89c0-15.29-11.86-27.69-26.49-27.69s-26.49,12.39-26.49,27.69,11.86,27.68,26.49,27.68,26.49-12.4,26.49-27.68Z"></path></g><polygon class="cls-4" points="807.71 3627.97 491.07 3627.97 332.75 3341.45 491.07 3054.92 807.71 3054.92 966.04 3341.45 807.71 3627.97"></polygon><polygon class="cls-4" points="2532.31 3718.62 2333.91 3718.62 2234.72 3539.11 2333.91 3359.59 2532.31 3359.59 2631.5 3539.11 2532.31 3718.62"></polygon><polygon class="cls-4" points="4240.48 3896.76 4222.97 3865.07 4322.17 3685.56 4368.54 3685.56 4368.54 3896.76 4240.48 3896.76"></polygon><g><polygon class="cls-2" points="1224.37 3572.11 1226.43 3575.84 1049.1 3896.76 1032.61 3896.76 1209.94 3575.84 773.3 2785.65 0 2785.65 0 2770.72 781.55 2770.72 1224.37 3572.11"></polygon><path class="cls-2" d="M819.41,2778.19c0-24.22-18.79-43.86-41.97-43.86s-41.98,19.64-41.98,43.86,18.79,43.86,41.98,43.86c23.18,0,41.97-19.63,41.97-43.86Z"></path><path class="cls-2" d="M1260.16,3575.84c0-24.22-18.79-43.86-41.98-43.86s-41.97,19.64-41.97,43.86,18.79,43.86,41.97,43.86,41.98-19.63,41.98-43.86Z"></path></g><g><polygon class="cls-2" points="1148.34 3896.76 1189.49 3822.3 1191.54 3818.56 1694.54 3818.56 1737.75 3896.76 1721.25 3896.76 1686.29 3833.49 1199.8 3833.49 1164.84 3896.76 1148.34 3896.76"></polygon><path class="cls-2" d="M1732.4,3826.03c0-24.22-18.79-43.86-41.97-43.86s-41.98,19.64-41.98,43.86,18.8,43.86,41.98,43.86,41.97-19.64,41.97-43.86Z"></path><path class="cls-2" d="M1237.65,3826.03c0-24.22-18.79-43.86-41.97-43.86s-41.98,19.64-41.98,43.86,18.8,43.86,41.98,43.86,41.97-19.64,41.97-43.86Z"></path></g><g><polygon class="cls-2" points="2827.55 3702.53 2720.22 3896.76 2703.73 3896.76 2811.06 3702.53 2567.8 3262.3 2081.31 3262.3 1838.06 3702.53 1945.38 3896.76 1928.88 3896.76 1821.56 3702.53 2071 3251.11 2073.05 3247.38 2576.06 3247.38 2827.55 3702.53"></polygon><path class="cls-2" d="M1871.78,3702.52c0-24.22-18.79-43.86-41.97-43.86s-41.98,19.64-41.98,43.86,18.8,43.86,41.98,43.86,41.97-19.64,41.97-43.86Z"></path><path class="cls-2" d="M2861.28,3702.52c0-24.22-18.79-43.86-41.97-43.86s-41.98,19.64-41.98,43.86,18.8,43.86,41.98,43.86,41.97-19.64,41.97-43.86Z"></path><path class="cls-2" d="M2613.91,3254.84c0-24.23-18.8-43.86-41.98-43.86s-41.98,19.64-41.98,43.86,18.8,43.86,41.98,43.86,41.98-19.63,41.98-43.86Z"></path><path class="cls-2" d="M2119.16,3254.84c0-24.23-18.8-43.86-41.98-43.86s-41.97,19.64-41.97,43.86,18.79,43.86,41.97,43.86,41.98-19.63,41.98-43.86Z"></path></g><g><polygon class="cls-2" points="2951.11 3896.76 3060.5 3698.8 3062.55 3695.06 3565.55 3695.06 3677 3896.76 3660.5 3896.76 3557.3 3709.99 3070.8 3709.99 2967.6 3896.76 2951.11 3896.76"></polygon><path class="cls-2" d="M3603.4,3702.52c0-24.22-18.8-43.86-41.98-43.86s-41.98,19.64-41.98,43.86,18.8,43.86,41.98,43.86,41.98-19.64,41.98-43.86Z"></path><ellipse class="cls-1" cx="3066.68" cy="3702.52" rx="41.98" ry="43.86"></ellipse></g><g><polygon class="cls-2" points="4368.54 3319.79 4179.23 3662.39 4177.18 3666.13 3674.16 3666.13 3422.68 3210.97 3672.11 2759.56 3674.16 2755.83 4177.18 2755.83 4368.54 3102.16 4368.54 3132.01 4168.91 2770.76 3682.43 2770.76 3439.17 3210.97 3682.43 3651.2 4168.91 3651.2 4368.54 3289.93 4368.54 3319.79"></polygon><path class="cls-2" d="M3472.9,3210.98c0-24.22-18.8-43.86-41.98-43.86s-41.98,19.64-41.98,43.86,18.8,43.86,41.98,43.86,41.98-19.64,41.98-43.86Z"></path><path class="cls-2" d="M3720.28,3658.66c0-24.22-18.79-43.86-41.98-43.86s-41.98,19.64-41.98,43.86,18.8,43.86,41.98,43.86,41.98-19.64,41.98-43.86Z"></path><ellipse class="cls-1" cx="4173.05" cy="3658.66" rx="41.98" ry="43.86"></ellipse><path class="cls-2" d="M4215.02,2763.29c0-24.23-18.8-43.86-41.98-43.86s-41.98,19.63-41.98,43.86,18.8,43.86,41.98,43.86,41.98-19.64,41.98-43.86Z"></path><path class="cls-2" d="M3720.28,2763.29c0-24.23-18.79-43.86-41.98-43.86s-41.98,19.63-41.98,43.86,18.8,43.86,41.98,43.86,41.98-19.64,41.98-43.86Z"></path></g><g><polygon class="cls-2" points="4368.54 3765.49 4329.63 3695.06 4368.54 3624.64 4368.54 3654.49 4346.12 3695.06 4368.54 3735.63 4368.54 3765.49"></polygon><path class="cls-2" d="M4368.54,3665.12c-7.66-8.56-18.56-13.91-30.67-13.91-23.18,0-41.98,19.64-41.98,43.86s18.8,43.87,41.98,43.87c12.1,0,23-5.35,30.67-13.91v-59.9Z"></path></g><g><polygon class="cls-2" points="196.82 2066.25 0 2422.45 0 2392.6 180.33 2066.25 0 1739.91 0 1710.06 196.82 2066.25"></polygon><path class="cls-2" d="M230.56,2066.25c0-24.22-18.8-43.86-41.98-43.86s-41.98,19.64-41.98,43.86,18.79,43.86,41.98,43.86,41.98-19.64,41.98-43.86Z"></path></g><polygon class="cls-2" points="1247.02 2853.52 932.68 2853.52 775.51 2569.08 932.68 2284.65 1247.02 2284.65 1404.18 2569.08 1247.02 2853.52"></polygon><polygon class="cls-5" points="1687.99 3133.48 1489.6 3133.48 1390.4 2953.96 1489.6 2774.44 1687.99 2774.44 1787.18 2953.96 1687.99 3133.48"></polygon><g><path class="cls-4" d="M778.59,2341.19l-158.73,287.26h-317.46l-158.73-287.26,158.73-287.25h317.46l158.73,287.25h0ZM154.08,2341.19h0l153.52,277.84h307.05l153.53-277.84-153.53-277.83h-307.05l-153.52,277.83Z"></path><path class="cls-4" d="M175.37,2341.2c0-15.29-11.86-27.68-26.49-27.68s-26.5,12.39-26.5,27.68,11.86,27.68,26.5,27.68,26.49-12.4,26.49-27.68Z"></path><path class="cls-4" d="M331.5,2623.75c0-15.29-11.86-27.68-26.49-27.68s-26.49,12.4-26.49,27.68,11.86,27.68,26.49,27.68,26.49-12.4,26.49-27.68Z"></path><path class="cls-4" d="M643.75,2623.75c0-15.29-11.86-27.68-26.49-27.68s-26.49,12.4-26.49,27.68,11.86,27.68,26.49,27.68,26.49-12.4,26.49-27.68Z"></path><path class="cls-4" d="M799.87,2341.2c0-15.29-11.86-27.68-26.49-27.68s-26.49,12.39-26.49,27.68,11.86,27.68,26.49,27.68,26.49-12.4,26.49-27.68Z"></path><path class="cls-4" d="M643.75,2058.65c0-15.29-11.86-27.69-26.49-27.69s-26.49,12.39-26.49,27.69,11.86,27.68,26.49,27.68,26.49-12.4,26.49-27.68Z"></path><path class="cls-4" d="M331.5,2058.65c0-15.29-11.86-27.69-26.49-27.69s-26.49,12.39-26.49,27.69,11.86,27.68,26.49,27.68,26.49-12.4,26.49-27.68Z"></path></g></g></g></svg>