<svg xmlns="http://www.w3.org/2000/svg" xmlns:xlink="http://www.w3.org/1999/xlink" id="Rear_Counter_Front_G_" data-name="Rear Counter Front [G]" viewBox="0 0 3890.1 3897.26"><defs><style>      .cls-1, .cls-2 {        opacity: .2;      }      .cls-1, .cls-2, .cls-3, .cls-4 {        fill: #17457f;      }      .cls-5 {        fill: #dd5b1f;      }      .cls-5, .cls-2, .cls-4 {        fill-rule: evenodd;      }      .cls-5, .cls-3, .cls-4 {        opacity: .8;      }      .cls-6 {        fill: url(#GradientFill_1);        stroke: #8ed8f8;        stroke-miterlimit: 2.61;        stroke-width: .5px;      }    </style><linearGradient id="GradientFill_1" data-name="GradientFill 1" x1="1945.05" y1="3897.01" x2="1945.05" y2=".25" gradientUnits="userSpaceOnUse"><stop offset="0" stop-color="#3d90ce"></stop><stop offset=".22" stop-color="#71aedb"></stop><stop offset=".49" stop-color="#aed0ea"></stop><stop offset=".72" stop-color="#d9e9f5"></stop><stop offset=".9" stop-color="#f4f9fc"></stop><stop offset="1" stop-color="#fff"></stop></linearGradient></defs><g id="background-3" data-name="background"><rect id="gradient" class="cls-6" x=".25" y=".25" width="3889.6" height="3896.76"></rect><g id="graphics"><g><path class="cls-4" d="M3074.84,2924.39l100.59,178.52h201.18l100.59-178.52-100.59-178.52h-201.18l-100.59,178.52h0ZM3470.6,2924.39h0l-97.29,172.67h-194.58l-97.29-172.67,97.29-172.66h194.58l97.29,172.66Z"></path><path class="cls-4" d="M3457.1,2924.39c0-9.5,7.52-17.2,16.79-17.2s16.79,7.7,16.79,17.2-7.52,17.21-16.79,17.21-16.79-7.7-16.79-17.21Z"></path><path class="cls-4" d="M3358.16,3099.99c0-9.5,7.52-17.21,16.79-17.21s16.79,7.7,16.79,17.21-7.52,17.2-16.79,17.2-16.79-7.7-16.79-17.2Z"></path><path class="cls-4" d="M3160.29,3099.99c0-9.5,7.52-17.21,16.79-17.21s16.79,7.7,16.79,17.21-7.52,17.2-16.79,17.2-16.79-7.7-16.79-17.2Z"></path><path class="cls-4" d="M3061.35,2924.39c0-9.5,7.52-17.2,16.79-17.2s16.79,7.7,16.79,17.2-7.52,17.21-16.79,17.21-16.79-7.7-16.79-17.21Z"></path><path class="cls-4" d="M3160.29,2748.8c0-9.5,7.52-17.2,16.79-17.2s16.79,7.7,16.79,17.2-7.52,17.2-16.79,17.2-16.79-7.7-16.79-17.2Z"></path><path class="cls-4" d="M3358.16,2748.8c0-9.5,7.52-17.2,16.79-17.2s16.79,7.7,16.79,17.2-7.52,17.2-16.79,17.2-16.79-7.7-16.79-17.2Z"></path></g><g><path class="cls-4" d="M1990.3,3066.04l-.82,1.46,177.93,315.79h355.87l177.11-314.32.82-1.46-177.93-315.79h-355.87l-177.11,314.32h0ZM2694.6,3067.5h0l-174.63,309.93h-349.26l-174.63-309.93,174.63-309.93h349.26l174.63,309.93Z"></path><path class="cls-4" d="M2509.64,2754.65c0-9.5,7.52-17.2,16.79-17.2s16.79,7.7,16.79,17.2-7.52,17.2-16.79,17.2-16.79-7.7-16.79-17.2Z"></path><path class="cls-4" d="M2152.27,2754.65c0-9.5,7.52-17.2,16.79-17.2s16.79,7.7,16.79,17.2-7.52,17.2-16.79,17.2-16.79-7.7-16.79-17.2Z"></path><path class="cls-4" d="M1975.98,3067.51c0-9.5,7.52-17.2,16.79-17.2s16.79,7.7,16.79,17.2-7.52,17.2-16.79,17.2-16.79-7.7-16.79-17.2Z"></path><path class="cls-4" d="M2152.27,3380.36c0-9.5,7.52-17.2,16.79-17.2,9.27,0,16.79,7.7,16.79,17.2s-7.52,17.2-16.79,17.2c-9.27,0-16.79-7.7-16.79-17.2Z"></path><path class="cls-4" d="M2685.92,3067.51c0-9.5,7.52-17.2,16.79-17.2s16.79,7.7,16.79,17.2-7.52,17.2-16.79,17.2-16.79-7.7-16.79-17.2Z"></path><path class="cls-4" d="M2509.64,3380.36c0-9.5,7.52-17.2,16.79-17.2s16.79,7.7,16.79,17.2-7.52,17.2-16.79,17.2-16.79-7.7-16.79-17.2Z"></path></g><g><path class="cls-4" d="M1349.09,3117.2l99.76,177.05.82,1.46h201.18l100.58-178.52-99.76-177.06-.82-1.46h-201.18l-100.59,178.52h0ZM1744.85,3117.2h0l-97.29,172.66h-194.57l-97.29-172.66,97.29-172.67h194.57l97.29,172.67Z"></path><path class="cls-4" d="M1731.36,3117.19c0-9.5,7.52-17.2,16.79-17.2s16.79,7.7,16.79,17.2-7.52,17.2-16.79,17.2-16.79-7.7-16.79-17.2Z"></path><path class="cls-4" d="M1632.42,3292.78c0-9.5,7.52-17.2,16.79-17.2s16.79,7.7,16.79,17.2-7.52,17.2-16.79,17.2-16.79-7.7-16.79-17.2Z"></path><ellipse class="cls-3" cx="1451.33" cy="3292.78" rx="16.79" ry="17.2"></ellipse><path class="cls-4" d="M1335.61,3117.19c0-9.5,7.52-17.2,16.79-17.2s16.79,7.7,16.79,17.2-7.52,17.2-16.79,17.2-16.79-7.7-16.79-17.2Z"></path><path class="cls-4" d="M1434.54,2941.6c0-9.5,7.52-17.2,16.79-17.2s16.79,7.7,16.79,17.2-7.52,17.2-16.79,17.2-16.79-7.7-16.79-17.2Z"></path><path class="cls-4" d="M1632.42,2941.6c0-9.5,7.52-17.2,16.79-17.2s16.79,7.7,16.79,17.2-7.52,17.2-16.79,17.2-16.79-7.7-16.79-17.2Z"></path></g><g><path class="cls-4" d="M708.72,2924.39l99.76,177.06.82,1.46h201.18l100.58-178.52-99.76-177.05-.82-1.46h-201.18l-100.58,178.52h0ZM1104.47,2924.39h0l-97.29,172.67h-194.57l-97.29-172.67,97.29-172.66h194.57l97.29,172.66Z"></path><path class="cls-4" d="M1090.98,2924.4c0-9.5,7.52-17.2,16.79-17.2s16.79,7.7,16.79,17.2-7.52,17.2-16.79,17.2-16.79-7.7-16.79-17.2Z"></path><path class="cls-4" d="M992.04,3099.99c0-9.5,7.52-17.2,16.79-17.2s16.79,7.7,16.79,17.2-7.52,17.2-16.79,17.2-16.79-7.7-16.79-17.2Z"></path><path class="cls-4" d="M794.16,3099.99c0-9.5,7.52-17.2,16.79-17.2s16.79,7.7,16.79,17.2-7.52,17.2-16.79,17.2-16.79-7.7-16.79-17.2Z"></path><path class="cls-4" d="M695.23,2924.4c0-9.5,7.52-17.2,16.79-17.2s16.79,7.7,16.79,17.2-7.52,17.2-16.79,17.2-16.79-7.7-16.79-17.2Z"></path><path class="cls-4" d="M794.16,2748.8c0-9.5,7.52-17.2,16.79-17.2s16.79,7.7,16.79,17.2-7.52,17.2-16.79,17.2-16.79-7.7-16.79-17.2Z"></path><path class="cls-4" d="M992.04,2748.8c0-9.5,7.52-17.2,16.79-17.2s16.79,7.7,16.79,17.2-7.52,17.2-16.79,17.2-16.79-7.7-16.79-17.2Z"></path></g><g><path class="cls-4" d="M345.98,3114.27l99.76,177.06.82,1.46h201.18l100.59-178.52-99.76-177.05-.82-1.46h-201.18l-100.58,178.52h0ZM741.73,3114.27h0l-97.29,172.67h-194.57l-97.29-172.67,97.29-172.66h194.57l97.29,172.66Z"></path><path class="cls-4" d="M728.24,3114.27c0-9.5,7.52-17.2,16.79-17.2s16.79,7.7,16.79,17.2-7.52,17.2-16.79,17.2-16.79-7.7-16.79-17.2Z"></path><path class="cls-4" d="M629.3,3289.86c0-9.5,7.52-17.2,16.79-17.2s16.79,7.7,16.79,17.2-7.52,17.2-16.79,17.2-16.79-7.7-16.79-17.2Z"></path><path class="cls-4" d="M431.42,3289.86c0-9.5,7.52-17.2,16.79-17.2s16.79,7.7,16.79,17.2-7.52,17.2-16.79,17.2-16.79-7.7-16.79-17.2Z"></path><path class="cls-4" d="M332.48,3114.27c0-9.5,7.52-17.2,16.79-17.2s16.79,7.7,16.79,17.2-7.52,17.2-16.79,17.2-16.79-7.7-16.79-17.2Z"></path><path class="cls-4" d="M431.42,2938.67c0-9.5,7.52-17.2,16.79-17.2s16.79,7.7,16.79,17.2-7.52,17.21-16.79,17.21-16.79-7.7-16.79-17.21Z"></path><path class="cls-4" d="M629.3,2938.67c0-9.5,7.52-17.2,16.79-17.2s16.79,7.7,16.79,17.2-7.52,17.21-16.79,17.21-16.79-7.7-16.79-17.21Z"></path></g><g><path class="cls-4" d="M1427.1,2553.08l100.59,178.52h201.18l100.59-178.52-100.59-178.52h-201.18l-100.59,178.52h0ZM1822.86,2553.08h0l-97.29,172.66h-194.58l-97.29-172.66,97.29-172.67h194.58l97.29,172.67Z"></path><path class="cls-4" d="M1809.37,2553.08c0-9.5,7.52-17.2,16.79-17.2s16.79,7.7,16.79,17.2-7.52,17.2-16.79,17.2-16.79-7.7-16.79-17.2Z"></path><path class="cls-4" d="M1710.43,2728.67c0-9.5,7.52-17.2,16.79-17.2s16.79,7.7,16.79,17.2-7.52,17.2-16.79,17.2-16.79-7.7-16.79-17.2Z"></path><path class="cls-4" d="M1512.55,2728.67c0-9.5,7.52-17.2,16.79-17.2s16.79,7.7,16.79,17.2-7.52,17.2-16.79,17.2-16.79-7.7-16.79-17.2Z"></path><path class="cls-4" d="M1413.61,2553.08c0-9.5,7.52-17.2,16.79-17.2s16.79,7.7,16.79,17.2-7.52,17.2-16.79,17.2-16.79-7.7-16.79-17.2Z"></path><path class="cls-4" d="M1512.55,2377.49c0-9.5,7.52-17.2,16.79-17.2s16.79,7.7,16.79,17.2-7.52,17.2-16.79,17.2-16.79-7.7-16.79-17.2Z"></path><path class="cls-4" d="M1710.43,2377.49c0-9.5,7.52-17.2,16.79-17.2s16.79,7.7,16.79,17.2-7.52,17.2-16.79,17.2-16.79-7.7-16.79-17.2Z"></path></g><g><path class="cls-4" d="M1777.57,2338.65l100.59,178.52h201.18l100.59-178.52-100.59-178.52h-201.18l-100.59,178.52h0ZM2173.32,2338.65h0l-97.29,172.66h-194.58l-97.29-172.66,97.29-172.67h194.58l97.29,172.67Z"></path><path class="cls-4" d="M2159.83,2338.65c0-9.5,7.52-17.21,16.79-17.21s16.79,7.7,16.79,17.21-7.52,17.2-16.79,17.2-16.79-7.7-16.79-17.2Z"></path><ellipse class="cls-3" cx="2077.68" cy="2514.24" rx="16.79" ry="17.2"></ellipse><ellipse class="cls-3" cx="1879.8" cy="2514.24" rx="16.79" ry="17.2"></ellipse><path class="cls-4" d="M1764.07,2338.65c0-9.5,7.52-17.21,16.79-17.21s16.79,7.7,16.79,17.21-7.52,17.2-16.79,17.2-16.79-7.7-16.79-17.2Z"></path><path class="cls-4" d="M1863.01,2163.06c0-9.5,7.52-17.21,16.79-17.21s16.79,7.7,16.79,17.21-7.52,17.2-16.79,17.2-16.79-7.7-16.79-17.2Z"></path><path class="cls-4" d="M2060.89,2163.06c0-9.5,7.52-17.21,16.79-17.21s16.79,7.7,16.79,17.21-7.52,17.2-16.79,17.2-16.79-7.7-16.79-17.2Z"></path></g><g><path class="cls-4" d="M2175.42,2514.24l100.59,178.52h201.18l100.59-178.52-100.59-178.52h-201.18l-100.59,178.52h0ZM2571.18,2514.24h0l-97.29,172.67h-194.58l-97.29-172.67,97.29-172.66h194.58l97.29,172.66Z"></path><path class="cls-4" d="M2557.69,2514.24c0-9.5,7.52-17.2,16.79-17.2s16.79,7.7,16.79,17.2-7.52,17.2-16.79,17.2-16.79-7.7-16.79-17.2Z"></path><ellipse class="cls-3" cx="2475.54" cy="2689.83" rx="16.79" ry="17.2"></ellipse><ellipse class="cls-3" cx="2277.66" cy="2689.83" rx="16.79" ry="17.2"></ellipse><path class="cls-4" d="M2161.93,2514.24c0-9.5,7.52-17.2,16.79-17.2s16.79,7.7,16.79,17.2-7.52,17.2-16.79,17.2-16.79-7.7-16.79-17.2Z"></path><path class="cls-4" d="M2260.87,2338.65c0-9.5,7.52-17.21,16.79-17.21s16.79,7.7,16.79,17.21-7.52,17.2-16.79,17.2-16.79-7.7-16.79-17.2Z"></path><path class="cls-4" d="M2458.75,2338.65c0-9.5,7.52-17.21,16.79-17.21s16.79,7.7,16.79,17.21-7.52,17.2-16.79,17.2-16.79-7.7-16.79-17.2Z"></path></g><polygon class="cls-4" points="2891.01 2589.77 3091.67 2589.77 3192 2411.71 3091.67 2233.64 2891.01 2233.64 2790.67 2411.71 2891.01 2589.77"></polygon><polygon class="cls-4" points="1798.11 2646.11 1923.84 2646.11 1986.7 2534.54 1923.84 2422.98 1798.11 2422.98 1735.25 2534.54 1798.11 2646.11"></polygon><polygon class="cls-4" points="538.14 2848.68 663.86 2848.68 726.72 2737.12 663.86 2625.56 538.14 2625.56 475.28 2737.12 538.14 2848.68"></polygon><path class="cls-2" d="M3836.64,2665.48c0-15.05,11.91-27.26,26.6-27.26s26.6,12.2,26.6,27.26-11.91,27.26-26.6,27.26-26.6-12.2-26.6-27.26Z"></path><ellipse class="cls-1" cx="3583.94" cy="3161.19" rx="26.6" ry="27.26"></ellipse><g><path class="cls-2" d="M2626.97,2555.05l-1.3,2.32,281.92,500.35h563.85l280.62-498.03,1.3-2.32-281.92-500.35h-563.85l-280.62,498.03h0ZM3742.9,2557.37h0l-276.69,491.07h-553.39l-276.7-491.07,276.7-491.07h553.39l276.69,491.07Z"></path><path class="cls-2" d="M3449.83,2061.67c0-15.05,11.91-27.26,26.6-27.26s26.6,12.2,26.6,27.26-11.91,27.26-26.6,27.26-26.6-12.2-26.6-27.26Z"></path><path class="cls-2" d="M2883.6,2061.67c0-15.05,11.91-27.26,26.6-27.26s26.6,12.2,26.6,27.26-11.91,27.26-26.6,27.26c-14.69,0-26.6-12.2-26.6-27.26Z"></path><path class="cls-2" d="M2604.29,2557.37c0-15.05,11.91-27.26,26.6-27.26s26.6,12.2,26.6,27.26-11.91,27.26-26.6,27.26-26.6-12.2-26.6-27.26Z"></path><path class="cls-2" d="M2883.6,3053.08c0-15.05,11.91-27.26,26.6-27.26s26.6,12.2,26.6,27.26-11.91,27.26-26.6,27.26-26.6-12.2-26.6-27.26Z"></path><ellipse class="cls-1" cx="3755.74" cy="2557.37" rx="26.6" ry="27.26"></ellipse><ellipse class="cls-1" cx="3476.43" cy="3053.08" rx="26.6" ry="27.26"></ellipse></g><g><path class="cls-2" d="M2169.64,2991.07l158.07,280.54,1.3,2.32h318.76l159.37-282.86-158.07-280.54-1.3-2.32h-318.76l-159.37,282.86h0ZM2796.69,2991.07h0l-154.16,273.58h-308.29l-154.15-273.58,154.15-273.58h308.29l154.16,273.58Z"></path><path class="cls-2" d="M2775.31,2991.08c0-15.06,11.91-27.26,26.6-27.26s26.6,12.2,26.6,27.26-11.91,27.26-26.6,27.26-26.6-12.2-26.6-27.26Z"></path><path class="cls-2" d="M2618.55,3269.29c0-15.05,11.91-27.26,26.6-27.26s26.6,12.2,26.6,27.26-11.91,27.26-26.6,27.26-26.6-12.2-26.6-27.26Z"></path><path class="cls-2" d="M2305.02,3269.29c0-15.05,11.91-27.26,26.6-27.26s26.61,12.2,26.61,27.26-11.91,27.26-26.61,27.26-26.6-12.2-26.6-27.26Z"></path><path class="cls-2" d="M2148.26,2991.08c0-15.06,11.91-27.26,26.6-27.26s26.6,12.2,26.6,27.26-11.91,27.26-26.6,27.26-26.6-12.2-26.6-27.26Z"></path><path class="cls-2" d="M2305.02,2712.86c0-15.05,11.91-27.26,26.6-27.26s26.61,12.2,26.61,27.26-11.91,27.26-26.61,27.26-26.6-12.2-26.6-27.26Z"></path><path class="cls-2" d="M2618.55,2712.86c0-15.05,11.91-27.26,26.6-27.26s26.6,12.2,26.6,27.26-11.91,27.26-26.6,27.26-26.6-12.2-26.6-27.26Z"></path></g><g><path class="cls-2" d="M1611.01,2636.1l158.07,280.53,1.3,2.32h318.76l159.37-282.85-158.07-280.54-1.3-2.32h-318.76l-159.37,282.86h0ZM2238.07,2636.1h0l-154.15,273.57h-308.29l-154.16-273.57,154.16-273.58h308.29l154.15,273.58Z"></path><path class="cls-2" d="M2216.7,2636.1c0-15.05,11.91-27.26,26.6-27.26s26.6,12.2,26.6,27.26-11.91,27.26-26.6,27.26-26.6-12.2-26.6-27.26Z"></path><path class="cls-2" d="M2059.93,2914.32c0-15.06,11.91-27.26,26.6-27.26s26.6,12.2,26.6,27.26-11.91,27.26-26.6,27.26-26.6-12.2-26.6-27.26Z"></path><path class="cls-2" d="M1746.4,2914.32c0-15.06,11.91-27.26,26.6-27.26s26.6,12.2,26.6,27.26-11.91,27.26-26.6,27.26-26.6-12.2-26.6-27.26Z"></path><path class="cls-2" d="M1589.64,2636.1c0-15.05,11.91-27.26,26.6-27.26s26.6,12.2,26.6,27.26-11.91,27.26-26.6,27.26-26.6-12.2-26.6-27.26Z"></path><path class="cls-2" d="M1746.4,2357.88c0-15.06,11.91-27.26,26.6-27.26s26.6,12.2,26.6,27.26-11.91,27.26-26.6,27.26-26.6-12.2-26.6-27.26Z"></path><path class="cls-2" d="M2059.93,2357.88c0-15.06,11.91-27.26,26.6-27.26s26.6,12.2,26.6,27.26-11.91,27.26-26.6,27.26-26.6-12.2-26.6-27.26Z"></path></g><g><path class="cls-2" d="M983.96,2914.32l158.07,280.54,1.3,2.32h318.76l159.37-282.86-158.07-280.53-1.3-2.32h-318.76l-159.37,282.85h0ZM1611.01,2914.32h0l-154.15,273.58h-308.29l-154.15-273.58,154.15-273.57h308.29l154.15,273.57Z"></path><path class="cls-2" d="M1589.64,2914.32c0-15.06,11.91-27.26,26.6-27.26s26.6,12.2,26.6,27.26-11.91,27.26-26.6,27.26-26.6-12.2-26.6-27.26Z"></path><path class="cls-2" d="M1432.87,3192.54c0-15.05,11.91-27.26,26.6-27.26s26.6,12.2,26.6,27.26-11.91,27.26-26.6,27.26-26.6-12.2-26.6-27.26Z"></path><path class="cls-2" d="M1119.35,3192.54c0-15.05,11.91-27.26,26.6-27.26s26.6,12.2,26.6,27.26-11.91,27.26-26.6,27.26-26.6-12.2-26.6-27.26Z"></path><path class="cls-2" d="M962.58,2914.32c0-15.06,11.91-27.26,26.6-27.26s26.6,12.2,26.6,27.26-11.91,27.26-26.6,27.26-26.6-12.2-26.6-27.26Z"></path><path class="cls-2" d="M1119.35,2636.1c0-15.05,11.91-27.26,26.6-27.26s26.6,12.2,26.6,27.26-11.91,27.26-26.6,27.26-26.6-12.2-26.6-27.26Z"></path><ellipse class="cls-1" cx="1459.48" cy="2636.1" rx="26.6" ry="27.26"></ellipse></g><g><path class="cls-2" d="M596.37,2330.62l158.07,280.54,1.3,2.32h318.76l159.37-282.86-158.07-280.53-1.3-2.32h-318.76l-159.37,282.85h0ZM1223.42,2330.62h0l-154.16,273.58h-308.29l-154.15-273.58,154.15-273.58h308.29l154.16,273.58Z"></path><path class="cls-2" d="M1202.05,2330.62c0-15.05,11.91-27.26,26.6-27.26s26.6,12.2,26.6,27.26-11.91,27.26-26.6,27.26-26.6-12.2-26.6-27.26Z"></path><ellipse class="cls-1" cx="1071.89" cy="2608.84" rx="26.6" ry="27.26"></ellipse><ellipse class="cls-1" cx="758.36" cy="2608.84" rx="26.6" ry="27.26"></ellipse><path class="cls-2" d="M574.99,2330.62c0-15.05,11.91-27.26,26.6-27.26s26.6,12.2,26.6,27.26-11.91,27.26-26.6,27.26-26.6-12.2-26.6-27.26Z"></path><ellipse class="cls-1" cx="758.36" cy="2052.41" rx="26.6" ry="27.26"></ellipse><ellipse class="cls-1" cx="1071.89" cy="2052.41" rx="26.6" ry="27.26"></ellipse></g><g><path class="cls-2" d="M21.63,2631.46l158.07,280.54,1.3,2.32h318.76l159.37-282.86-158.07-280.53-1.3-2.32H181l-159.37,282.85h0ZM648.68,2631.46h0l-154.15,273.58H186.23l-154.15-273.58,154.15-273.57h308.29l154.15,273.57Z"></path><path class="cls-2" d="M627.3,2631.46c0-15.05,11.91-27.26,26.6-27.26s26.6,12.2,26.6,27.26-11.91,27.26-26.6,27.26-26.6-12.2-26.6-27.26Z"></path><ellipse class="cls-1" cx="497.14" cy="2909.68" rx="26.6" ry="27.26"></ellipse><ellipse class="cls-1" cx="183.61" cy="2909.68" rx="26.6" ry="27.26"></ellipse><path class="cls-2" d="M.25,2631.46c0-15.05,11.91-27.26,26.6-27.26s26.6,12.2,26.6,27.26-11.91,27.26-26.6,27.26-26.6-12.2-26.6-27.26Z"></path><path class="cls-2" d="M157.01,2353.25c0-15.06,11.91-27.26,26.6-27.26s26.6,12.2,26.6,27.26-11.91,27.26-26.6,27.26-26.6-12.2-26.6-27.26Z"></path><path class="cls-2" d="M470.54,2353.25c0-15.06,11.91-27.26,26.6-27.26s26.6,12.2,26.6,27.26-11.91,27.26-26.6,27.26-26.6-12.2-26.6-27.26Z"></path></g><g><path class="cls-2" d="M2920.29,1680.75l159.38,282.86h318.75l159.38-282.86-159.38-282.85h-318.75l-159.38,282.85h0ZM3547.34,1680.75h0l-154.15,273.58h-308.3l-154.15-273.58,154.15-273.57h308.3l154.15,273.57Z"></path><path class="cls-2" d="M3525.97,1680.76c0-15.05,11.91-27.26,26.6-27.26s26.6,12.2,26.6,27.26-11.91,27.26-26.6,27.26-26.6-12.2-26.6-27.26Z"></path><path class="cls-2" d="M3369.2,1958.97c0-15.05,11.91-27.26,26.6-27.26s26.6,12.2,26.6,27.26-11.91,27.26-26.6,27.26-26.6-12.2-26.6-27.26Z"></path><ellipse class="cls-1" cx="3082.28" cy="1958.97" rx="26.6" ry="27.26"></ellipse><ellipse class="cls-1" cx="2925.51" cy="1680.76" rx="26.6" ry="27.26"></ellipse><ellipse class="cls-1" cx="3082.28" cy="1402.54" rx="26.6" ry="27.26"></ellipse><path class="cls-2" d="M3369.2,1402.54c0-15.06,11.91-27.26,26.6-27.26s26.6,12.2,26.6,27.26-11.91,27.26-26.6,27.26-26.6-12.2-26.6-27.26Z"></path></g><polygon class="cls-2" points="2612.62 2108.48 2811.82 2108.48 2911.42 1931.71 2811.82 1754.95 2612.62 1754.95 2513.02 1931.71 2612.62 2108.48"></polygon><polygon class="cls-2" points="326.09 2210.66 525.29 2210.66 624.89 2033.89 525.29 1857.13 326.09 1857.13 226.49 2033.89 326.09 2210.66"></polygon><polygon class="cls-5" points="2333.17 2282.46 2458.89 2282.46 2521.75 2170.9 2458.89 2059.34 2333.17 2059.34 2270.31 2170.9 2333.17 2282.46"></polygon></g></g></svg>