<svg xmlns="http://www.w3.org/2000/svg" xmlns:xlink="http://www.w3.org/1999/xlink" id="Interior_Backwall_B_" data-name="Interior Backwall [B]" viewBox="0 0 9106.76 7403.87"><defs><style>      .cls-1, .cls-2 {        opacity: .2;      }      .cls-1, .cls-2, .cls-3, .cls-4 {        fill: #17457f;      }      .cls-5 {        fill: #dd5b1f;      }      .cls-5, .cls-2, .cls-4 {        fill-rule: evenodd;      }      .cls-5, .cls-3, .cls-4 {        opacity: .8;      }      .cls-6 {        fill: url(#GradientFill_1);        stroke: #8ed8f8;        stroke-miterlimit: 2.61;        stroke-width: .5px;      }    </style><linearGradient id="GradientFill_1" data-name="GradientFill 1" x1=".25" y1="3701.93" x2="9106.51" y2="3701.93" gradientUnits="userSpaceOnUse"><stop offset="0" stop-color="#3d90ce"></stop><stop offset=".22" stop-color="#71aedb"></stop><stop offset=".49" stop-color="#aed0ea"></stop><stop offset=".72" stop-color="#d9e9f5"></stop><stop offset=".9" stop-color="#f4f9fc"></stop><stop offset="1" stop-color="#fff"></stop></linearGradient></defs><g id="background"><rect id="gradient" class="cls-6" x=".25" y="0" width="9106.26" height="7403.87"></rect><g><polygon class="cls-4" points="5612.95 96.6 5612.95 232.34 5450.44 326.16 5289.26 233.1 5287.93 232.34 5287.93 96.6 5293.26 96.6 5293.26 229.26 5450.44 320.01 5607.63 229.26 5607.63 96.6 5612.95 96.6"></polygon><circle class="cls-3" cx="5450.44" cy="323.09" r="15.66" transform="translate(1367.94 3948.67) rotate(-45)"></circle><path class="cls-4" d="M5610.29,215.14c-8.65,0-15.66,7.01-15.66,15.66s7.01,15.66,15.66,15.66,15.66-7.01,15.66-15.66-7.01-15.66-15.66-15.66Z"></path><path class="cls-4" d="M5290.59,215.14c-8.65,0-15.66,7.01-15.66,15.66s7.01,15.66,15.66,15.66,15.66-7.01,15.66-15.66-7.01-15.66-15.66-15.66Z"></path></g><g><path class="cls-4" d="M5267.63,289.78l161.18,93.06,1.33.76v187.66l-162.51,93.82-161.18-93.06-1.33-.77v-187.66l162.51-93.82h0ZM5267.63,658.93h0l157.18-90.75v-181.49l-157.18-90.75-157.18,90.75v181.49l157.18,90.75Z"></path><path class="cls-4" d="M5267.63,646.35c-8.65,0-15.66,7.01-15.66,15.66s7.01,15.66,15.66,15.66,15.66-7.01,15.66-15.66-7.01-15.66-15.66-15.66Z"></path><circle class="cls-3" cx="5427.47" cy="569.72" r="15.66" transform="translate(1186.82 4004.67) rotate(-45)"></circle><path class="cls-4" d="M5427.47,369.48c-8.65,0-15.66,7.01-15.66,15.66s7.01,15.66,15.66,15.66,15.66-7.01,15.66-15.66-7.01-15.66-15.66-15.66Z"></path><path class="cls-4" d="M5267.63,277.2c-8.65,0-15.66,7.01-15.66,15.66s7.01,15.66,15.66,15.66,15.66-7.01,15.66-15.66-7.01-15.66-15.66-15.66Z"></path><path class="cls-4" d="M5107.78,369.48c-8.65,0-15.66,7.01-15.66,15.66s7.01,15.66,15.66,15.66,15.66-7.01,15.66-15.66-7.01-15.66-15.66-15.66Z"></path><circle class="cls-3" cx="5107.78" cy="569.72" r="15.66" transform="translate(5.74 1188.77) rotate(-13.28)"></circle></g><polygon class="cls-4" points="5025.86 469.03 5025.86 586.3 4924.3 644.93 4822.74 586.3 4822.74 469.03 4924.3 410.39 5025.86 469.03"></polygon><g><polygon class="cls-2" points="6093.48 96.6 6318.18 226.34 6320.3 227.55 6320.3 524.88 6062.8 673.54 5807.41 526.09 5805.3 524.88 5805.3 227.55 6032.12 96.6 6049.01 96.6 5813.75 232.43 5813.75 520 6062.8 663.79 6311.85 520 6311.85 232.43 6076.59 96.6 6093.48 96.6"></polygon><circle class="cls-1" cx="6062.8" cy="668.66" r="24.81"></circle><circle class="cls-1" cx="6316.07" cy="522.44" r="24.81" transform="translate(5274.45 6773.89) rotate(-85.27)"></circle><circle class="cls-1" cx="6316.07" cy="229.99" r="24.81" transform="translate(44.72 1014.69) rotate(-9.22)"></circle><path class="cls-2" d="M6041.56,96.6c4.35,7.18,12.23,11.97,21.24,11.97s16.89-4.8,21.24-11.97h-42.47Z"></path><path class="cls-2" d="M5809.53,205.17c-13.7,0-24.81,11.11-24.81,24.81s11.11,24.81,24.81,24.81,24.81-11.11,24.81-24.81-11.11-24.81-24.81-24.81Z"></path><path class="cls-2" d="M5809.53,497.62c-13.7,0-24.81,11.11-24.81,24.81s11.11,24.81,24.81,24.81,24.81-11.11,24.81-24.81-11.11-24.81-24.81-24.81Z"></path></g><g><polygon class="cls-2" points="5888.06 9.22 5791.3 65.09 5694.53 9.22 5711.42 9.22 5791.3 55.34 5871.17 9.22 5888.06 9.22"></polygon><path class="cls-2" d="M5791.29,35.41c-13.71,0-24.81,11.11-24.81,24.81s11.11,24.81,24.81,24.81,24.81-11.11,24.81-24.81-11.11-24.81-24.81-24.81Z"></path></g><g><polygon class="cls-2" points="5235.13 9.22 5235.13 31.72 4977.64 180.38 4720.14 31.72 4720.14 9.22 4728.59 9.22 4728.59 26.85 4977.64 170.63 5226.68 26.85 5226.68 9.22 5235.13 9.22"></polygon><circle class="cls-1" cx="4977.64" cy="175.51" r="24.81" transform="translate(92.83 1148.32) rotate(-13.28)"></circle><path class="cls-2" d="M5216.3,9.22c-6.19,4.51-10.21,11.82-10.21,20.06,0,13.71,11.11,24.82,24.81,24.82s24.81-11.11,24.81-24.82c0-8.24-4.02-15.54-10.21-20.06h-29.22Z"></path><path class="cls-2" d="M4709.76,9.22c-6.18,4.51-10.2,11.82-10.2,20.06,0,13.71,11.11,24.82,24.81,24.82s24.81-11.11,24.81-24.82c0-8.24-4.02-15.54-10.21-20.06h-29.22Z"></path></g><g><path class="cls-2" d="M4668.35,103.69l257.49,148.66v297.33l-257.49,148.66-257.5-148.66V252.36l257.5-148.66h0ZM4668.35,688.6h0l249.04-143.79v-287.58l-249.04-143.79-249.05,143.79v287.58l249.05,143.79Z"></path><circle class="cls-1" cx="4668.35" cy="693.47" r="24.81" transform="translate(876.97 3504.13) rotate(-45)"></circle><path class="cls-2" d="M4921.62,522.43c-13.71,0-24.81,11.11-24.81,24.81s11.11,24.81,24.81,24.81,24.81-11.11,24.81-24.81-11.11-24.81-24.81-24.81Z"></path><path class="cls-2" d="M4921.62,229.98c-13.71,0-24.81,11.11-24.81,24.81s11.11,24.81,24.81,24.81,24.81-11.11,24.81-24.81-11.11-24.81-24.81-24.81Z"></path><circle class="cls-1" cx="4668.35" cy="108.57" r="24.81" transform="translate(2781.54 4380.01) rotate(-67.5)"></circle><path class="cls-2" d="M4415.08,229.98c-13.7,0-24.81,11.11-24.81,24.81s11.11,24.81,24.81,24.81,24.81-11.11,24.81-24.81-11.11-24.81-24.81-24.81Z"></path><path class="cls-2" d="M4415.08,522.43c-13.7,0-24.81,11.11-24.81,24.81s11.11,24.81,24.81,24.81,24.81-11.11,24.81-24.81-11.11-24.81-24.81-24.81Z"></path></g><g><path class="cls-2" d="M6468.59,19.94l255.39,147.45,2.11,1.21v297.33l-257.5,148.66-255.38-147.44-2.11-1.21V168.6l257.5-148.66h0ZM6468.59,604.84h0l249.05-143.79V173.48l-249.05-143.79-249.05,143.79v287.57l249.05,143.79Z"></path><path class="cls-2" d="M6468.59,584.9c-13.71,0-24.82,11.11-24.82,24.81s11.11,24.81,24.82,24.81,24.81-11.11,24.81-24.81-11.11-24.81-24.81-24.81Z"></path><path class="cls-2" d="M6721.86,438.68c-13.7,0-24.81,11.11-24.81,24.81s11.11,24.81,24.81,24.81,24.81-11.11,24.81-24.81-11.11-24.81-24.81-24.81Z"></path><path class="cls-2" d="M6721.86,146.23c-13.7,0-24.81,11.11-24.81,24.81s11.11,24.81,24.81,24.81,24.81-11.11,24.81-24.81-11.11-24.81-24.81-24.81Z"></path><path class="cls-2" d="M6468.59,0C6454.89,0,6443.78,11.11,6443.78,24.82s11.11,24.81,24.82,24.81,24.81-11.11,24.81-24.81S6482.3,0,6468.59,0Z"></path><circle class="cls-1" cx="6215.32" cy="171.04" r="24.81" transform="translate(4250.52 6070.11) rotate(-73.15)"></circle><circle class="cls-1" cx="6215.32" cy="463.49" r="24.81" transform="translate(4762.23 6524.32) rotate(-80.78)"></circle></g><polygon class="cls-2" points="5259.35 492.09 5259.35 677.9 5098.43 770.8 4937.52 677.9 4937.52 492.09 5098.43 399.18 5259.35 492.09"></polygon><g><path class="cls-4" d="M6734.24,320.22l162.51,93.83v187.65l-162.51,93.82-162.52-93.82v-187.65l162.52-93.83h0ZM6734.24,689.37h0l157.18-90.75v-181.5l-157.18-90.75-157.18,90.75v181.5l157.18,90.75Z"></path><path class="cls-4" d="M6734.24,676.79c-8.65,0-15.66,7.01-15.66,15.66s7.01,15.66,15.66,15.66,15.66-7.01,15.66-15.66-7.01-15.66-15.66-15.66Z"></path><circle class="cls-3" cx="6894.08" cy="600.16" r="15.66" transform="translate(1594.85 5050.64) rotate(-45)"></circle><circle class="cls-3" cx="6894.08" cy="415.59" r="15.66" transform="translate(88.94 1595.06) rotate(-13.28)"></circle><circle class="cls-3" cx="6734.24" cy="323.3" r="15.66" transform="translate(105.87 1555.86) rotate(-13.28)"></circle><circle class="cls-3" cx="6574.39" cy="415.59" r="15.66" transform="translate(80.39 1521.61) rotate(-13.28)"></circle><circle class="cls-3" cx="6574.39" cy="600.16" r="15.66" transform="translate(1501.22 4824.58) rotate(-45)"></circle></g><g><g><g><path class="cls-4" d="M4836.39,6146.76l1.33-.77,287.47,165.97v331.94l-286.14,165.2-1.33.77-287.47-165.97v-331.94l286.14-165.2h0ZM4837.72,6803.72h0l282.14-162.89v-325.79l-282.14-162.89-282.14,162.89v325.79l282.14,162.89Z"></path><path class="cls-4" d="M4552.92,6631.19c-8.65,0-15.66,7.01-15.66,15.66s7.01,15.66,15.66,15.66,15.66-7.01,15.66-15.66-7.01-15.66-15.66-15.66Z"></path><path class="cls-4" d="M4552.92,6297.84c-8.65,0-15.66,7.01-15.66,15.66s7.01,15.66,15.66,15.66,15.66-7.01,15.66-15.66-7.01-15.66-15.66-15.66Z"></path><circle class="cls-3" cx="4837.73" cy="6149.07" r="15.66" transform="translate(-1283.36 1275.98) rotate(-13.28)"></circle><path class="cls-4" d="M5122.53,6297.84c-8.65,0-15.66,7.01-15.66,15.66s7.01,15.66,15.66,15.66,15.66-7.01,15.66-15.66-7.01-15.66-15.66-15.66Z"></path><circle class="cls-3" cx="4837.73" cy="6811.28" r="15.66" transform="translate(-3399.37 5415.77) rotate(-45)"></circle><path class="cls-4" d="M5122.53,6631.19c-8.65,0-15.66,7.01-15.66,15.66s7.01,15.66,15.66,15.66,15.66-7.01,15.66-15.66-7.01-15.66-15.66-15.66Z"></path></g><g><path class="cls-4" d="M5086.91,6705.28l162.51,93.83v187.65l-162.51,93.82-162.52-93.82v-187.65l162.52-93.83h0ZM5086.91,7074.43h0l157.18-90.75v-181.5l-157.18-90.75-157.18,90.75v181.5l157.18,90.75Z"></path><path class="cls-4" d="M5086.91,7061.84c-8.65,0-15.66,7.01-15.66,15.66s7.01,15.66,15.66,15.66,15.66-7.01,15.66-15.66-7.01-15.66-15.66-15.66Z"></path><circle class="cls-3" cx="5246.75" cy="6985.22" r="15.66" transform="translate(-1464.52 1392.32) rotate(-13.28)"></circle><circle class="cls-3" cx="5246.75" cy="6800.64" r="15.66" transform="translate(-3272.04 5701.88) rotate(-45)"></circle><path class="cls-4" d="M5086.91,6692.69c-8.65,0-15.66,7.01-15.66,15.66s7.01,15.66,15.66,15.66,15.66-7.01,15.66-15.66-7.01-15.66-15.66-15.66Z"></path><circle class="cls-3" cx="4927.06" cy="6800.64" r="15.66" transform="translate(-3365.68 5475.82) rotate(-45)"></circle><circle class="cls-3" cx="4927.06" cy="6985.22" r="15.66" transform="translate(-1473.07 1318.87) rotate(-13.28)"></circle></g><g><path class="cls-4" d="M4891.71,7032.18l162.51,93.83v187.65l-156.24,90.21h-12.54l-156.25-90.21v-187.65l162.52-93.83h0ZM4891.71,7401.33l157.18-90.75v-181.5l-157.18-90.75-157.19,90.75v181.5l157.19,90.75Z"></path><path class="cls-4" d="M4891.7,7388.75c-8.47,0-15.37,6.72-15.65,15.12h31.3c-.29-8.4-7.18-15.12-15.65-15.12Z"></path><circle class="cls-3" cx="5051.55" cy="7312.12" r="15.66" transform="translate(-1544.85 1356.22) rotate(-13.28)"></circle><path class="cls-4" d="M5051.55,7111.88c-8.65,0-15.66,7.01-15.66,15.66s7.01,15.66,15.66,15.66,15.66-7.01,15.66-15.66-7.01-15.66-15.66-15.66Z"></path><circle class="cls-3" cx="4891.7" cy="7035.26" r="15.66" transform="translate(-1485.52 1312.09) rotate(-13.28)"></circle><path class="cls-4" d="M4731.86,7111.88c-8.65,0-15.66,7.01-15.66,15.66s7.01,15.66,15.66,15.66,15.66-7.01,15.66-15.66-7.01-15.66-15.66-15.66Z"></path><circle class="cls-3" cx="4731.86" cy="7312.12" r="15.66" transform="translate(-1553.4 1282.77) rotate(-13.28)"></circle></g><g><polygon class="cls-4" points="5051.55 7403.29 5052.54 7403.87 5050.55 7403.87 5051.55 7403.29"></polygon><path class="cls-4" d="M5051.55,7390.71c-7.8,0-14.26,5.7-15.46,13.16h30.92c-1.2-7.46-7.66-13.16-15.46-13.16Z"></path></g><g><path class="cls-4" d="M4360.53,6597.33l162.52,93.83v187.65l-162.52,93.83-162.51-93.83v-187.65l162.51-93.83h0ZM4360.53,6966.48h0l157.18-90.75v-181.5l-157.18-90.75-157.18,90.75v181.5l157.18,90.75Z"></path><path class="cls-4" d="M4360.53,6953.9c-8.65,0-15.66,7.01-15.66,15.66s7.01,15.66,15.66,15.66,15.66-7.01,15.66-15.66-7.01-15.66-15.66-15.66Z"></path><path class="cls-4" d="M4520.38,6861.61c-8.65,0-15.66,7.01-15.66,15.66s7.01,15.66,15.66,15.66,15.66-7.01,15.66-15.66-7.01-15.66-15.66-15.66Z"></path><path class="cls-4" d="M4520.38,6677.03c-8.65,0-15.66,7.01-15.66,15.66s7.01,15.66,15.66,15.66,15.66-7.01,15.66-15.66-7.01-15.66-15.66-15.66Z"></path><path class="cls-4" d="M4360.53,6584.74c-8.65,0-15.66,7.01-15.66,15.66s7.01,15.66,15.66,15.66,15.66-7.01,15.66-15.66-7.01-15.66-15.66-15.66Z"></path><circle class="cls-3" cx="4200.69" cy="6692.69" r="15.66" transform="translate(-1425.3 1144.16) rotate(-13.28)"></circle><circle class="cls-3" cx="4200.69" cy="6877.27" r="15.66" transform="translate(-3632.61 4984.64) rotate(-45)"></circle></g><g><path class="cls-4" d="M4185.03,6924.23l162.51,93.82v187.65l-162.51,93.83-162.51-93.83v-187.65l162.51-93.82h0ZM4185.03,7293.38h0l157.18-90.75v-181.5l-157.18-90.75-157.18,90.75v181.5l157.18,90.75Z"></path><circle class="cls-3" cx="4185.03" cy="7296.46" r="15.66" transform="translate(-1564.43 1156.71) rotate(-13.28)"></circle><path class="cls-4" d="M4344.87,7188.51c-8.65,0-15.66,7.01-15.66,15.66s7.01,15.66,15.66,15.66,15.66-7.01,15.66-15.66-7.01-15.66-15.66-15.66Z"></path><path class="cls-4" d="M4344.87,7003.94c-8.65,0-15.66,7.01-15.66,15.66s7.01,15.66,15.66,15.66,15.66-7.01,15.66-15.66-7.01-15.66-15.66-15.66Z"></path><circle class="cls-3" cx="4185.03" cy="6927.31" r="15.66" transform="translate(-1479.61 1146.83) rotate(-13.28)"></circle><circle class="cls-3" cx="4025.18" cy="7019.6" r="15.66" transform="translate(-1505.09 1112.57) rotate(-13.28)"></circle><circle class="cls-3" cx="4025.18" cy="7204.17" r="15.66" transform="translate(-1547.5 1117.51) rotate(-13.28)"></circle></g><g><path class="cls-4" d="M4489.48,5585.7l1.33-.77,287.47,165.97v331.94l-286.14,165.2-1.33.77-287.47-165.97v-331.94l286.14-165.2h0ZM4490.81,6242.65h0l282.14-162.89v-325.78l-282.14-162.89-282.14,162.89v325.78l282.14,162.89Z"></path><circle class="cls-3" cx="4206.01" cy="6085.78" r="15.66" transform="translate(-1285.71 1129.15) rotate(-13.28)"></circle><path class="cls-4" d="M4206.01,5736.78c-8.65,0-15.66,7.01-15.66,15.66s7.01,15.66,15.66,15.66,15.66-7.01,15.66-15.66-7.01-15.66-15.66-15.66Z"></path><circle class="cls-3" cx="4490.81" cy="5588.01" r="15.66" transform="translate(-1163.73 1181.27) rotate(-13.28)"></circle><path class="cls-4" d="M4775.61,5736.78c-8.65,0-15.66,7.01-15.66,15.66,0,8.65,7.01,15.66,15.66,15.66s15.66-7.01,15.66-15.66c0-8.65-7.01-15.66-15.66-15.66Z"></path><circle class="cls-3" cx="4490.81" cy="6250.21" r="15.66" transform="translate(-1315.87 1198.98) rotate(-13.28)"></circle><circle class="cls-3" cx="4775.61" cy="6085.78" r="15.66" transform="translate(-1270.48 1260.02) rotate(-13.28)"></circle></g><g><path class="cls-4" d="M4739.99,5316.46l161.18,93.06,1.33.77v187.66l-162.52,93.82-161.18-93.06-1.33-.77v-187.66l162.51-93.82h0ZM4739.99,5685.62h0l157.19-90.75v-181.49l-157.19-90.75-157.18,90.75v181.49l157.18,90.75Z"></path><circle class="cls-3" cx="4739.99" cy="5688.69" r="15.66" transform="translate(-1180.19 1241.2) rotate(-13.28)"></circle><path class="cls-4" d="M4899.84,5580.74c-8.65,0-15.66,7.01-15.66,15.66s7.01,15.66,15.66,15.66,15.66-7.01,15.66-15.66-7.01-15.66-15.66-15.66Z"></path><path class="cls-4" d="M4899.84,5396.17c-8.65,0-15.66,7.01-15.66,15.66s7.01,15.66,15.66,15.66,15.66-7.01,15.66-15.66-7.01-15.66-15.66-15.66Z"></path><circle class="cls-3" cx="4739.99" cy="5319.54" r="15.66" transform="translate(-2373.17 4909.74) rotate(-45)"></circle><path class="cls-4" d="M4580.14,5396.17c-8.65,0-15.66,7.01-15.66,15.66s7.01,15.66,15.66,15.66,15.66-7.01,15.66-15.66-7.01-15.66-15.66-15.66Z"></path><path class="cls-4" d="M4580.14,5580.74c-8.65,0-15.66,7.01-15.66,15.66s7.01,15.66,15.66,15.66,15.66-7.01,15.66-15.66-7.01-15.66-15.66-15.66Z"></path></g><g><path class="cls-4" d="M4536.05,4987.6l161.18,93.06,1.33.77v187.66l-162.51,93.82-161.18-93.06-1.33-.76v-187.66l162.52-93.82h0ZM4536.05,5356.75h0l157.18-90.75v-181.49l-157.18-90.75-157.18,90.75v181.49l157.18,90.75Z"></path><path class="cls-4" d="M4536.04,5344.17c-8.65,0-15.66,7.01-15.66,15.66s7.01,15.66,15.66,15.66,15.66-7.01,15.66-15.66-7.01-15.66-15.66-15.66Z"></path><path class="cls-4" d="M4695.89,5251.88c-8.65,0-15.66,7.01-15.66,15.66s7.01,15.66,15.66,15.66,15.66-7.01,15.66-15.66-7.01-15.66-15.66-15.66Z"></path><circle class="cls-3" cx="4695.89" cy="5082.96" r="15.66" transform="translate(-2218.8 4809.26) rotate(-45)"></circle><path class="cls-4" d="M4536.04,4975.02c-8.65,0-15.66,7.01-15.66,15.66s7.01,15.66,15.66,15.66,15.66-7.01,15.66-15.66-7.01-15.66-15.66-15.66Z"></path><circle class="cls-3" cx="4376.2" cy="5082.96" r="15.66" transform="translate(-2312.44 4583.21) rotate(-45)"></circle><path class="cls-4" d="M4376.2,5251.88c-8.65,0-15.66,7.01-15.66,15.66s7.01,15.66,15.66,15.66,15.66-7.01,15.66-15.66-7.01-15.66-15.66-15.66Z"></path></g><g><path class="cls-4" d="M4695.89,4618.45l161.18,93.06,1.33.77v187.66l-162.51,93.82-161.18-93.06-1.33-.76v-187.66l162.51-93.82h0ZM4695.89,4987.6h0l157.18-90.75v-181.49l-157.18-90.75-157.18,90.75v181.49l157.18,90.75Z"></path><path class="cls-4" d="M4695.89,4975.02c-8.65,0-15.66,7.01-15.66,15.66s7.01,15.66,15.66,15.66,15.66-7.01,15.66-15.66-7.01-15.66-15.66-15.66Z"></path><circle class="cls-3" cx="4855.74" cy="4898.39" r="15.66" transform="translate(-2041.47 4868.23) rotate(-45)"></circle><circle class="cls-3" cx="4855.74" cy="4713.81" r="15.66" transform="translate(-1910.96 4814.17) rotate(-45)"></circle><circle class="cls-3" cx="4695.89" cy="4621.53" r="15.66" transform="translate(-1892.52 4674.11) rotate(-45)"></circle><circle class="cls-3" cx="4536.04" cy="4713.81" r="15.66" transform="translate(-2004.59 4588.11) rotate(-45)"></circle><circle class="cls-3" cx="4536.04" cy="4898.39" r="15.66" transform="translate(-2135.11 4642.17) rotate(-45)"></circle></g><g><path class="cls-4" d="M4716.2,3712.99l161.18,93.06,1.33.77v187.65l-162.51,93.82-161.18-93.06-1.33-.76v-187.65l162.51-93.82h0ZM4716.2,4082.14h0l157.18-90.75v-181.49l-157.18-90.75-157.18,90.75v181.49l157.18,90.75Z"></path><path class="cls-4" d="M4716.2,4069.56c-8.65,0-15.66,7.01-15.66,15.66s7.01,15.66,15.66,15.66,15.66-7.01,15.66-15.66-7.01-15.66-15.66-15.66Z"></path><circle class="cls-3" cx="4876.04" cy="3992.93" r="15.66" transform="translate(-786.95 1227.1) rotate(-13.28)"></circle><circle class="cls-3" cx="4876.04" cy="3808.36" r="15.66" transform="translate(-1264.76 4563.33) rotate(-45)"></circle><circle class="cls-3" cx="4716.2" cy="3716.07" r="15.66" transform="translate(-1246.32 4423.27) rotate(-45)"></circle><circle class="cls-3" cx="4556.35" cy="3808.36" r="15.66" transform="translate(-1358.39 4337.27) rotate(-45)"></circle><circle class="cls-3" cx="4556.35" cy="3992.93" r="15.66" transform="translate(-795.5 1153.65) rotate(-13.28)"></circle></g><g><path class="cls-4" d="M4360.53,4390.27l161.18,93.06,1.33.76v187.66l-162.51,93.82-161.18-93.06-1.33-.76v-187.66l162.51-93.82h0ZM4360.53,4759.42h0l157.18-90.75v-181.49l-157.18-90.75-157.18,90.75v181.49l157.18,90.75Z"></path><circle class="cls-3" cx="4360.54" cy="4762.5" r="15.66" transform="translate(-2090.42 4478.27) rotate(-45)"></circle><circle class="cls-3" cx="4520.38" cy="4670.21" r="15.66" transform="translate(-1978.35 4564.27) rotate(-45)"></circle><circle class="cls-3" cx="4520.38" cy="4485.64" r="15.66" transform="translate(-909.67 1158.57) rotate(-13.28)"></circle><circle class="cls-3" cx="4360.54" cy="4393.35" r="15.66" transform="translate(-1829.4 4370.15) rotate(-45)"></circle><circle class="cls-3" cx="4200.69" cy="4485.64" r="15.66" transform="translate(-918.22 1085.12) rotate(-13.28)"></circle><circle class="cls-3" cx="4200.69" cy="4670.21" r="15.66" transform="translate(-2071.98 4338.21) rotate(-45)"></circle></g><g><path class="cls-4" d="M4533.38,4051.92l161.18,93.06,1.33.76v187.66l-162.51,93.82-161.18-93.06-1.33-.77v-187.66l162.51-93.82h0ZM4533.38,4421.07h0l157.18-90.75v-181.49l-157.18-90.75-157.18,90.75v181.49l157.18,90.75Z"></path><circle class="cls-3" cx="4533.38" cy="4424.14" r="15.66" transform="translate(-1800.55 4501.39) rotate(-45)"></circle><circle class="cls-3" cx="4693.23" cy="4331.86" r="15.66" transform="translate(-1688.47 4587.39) rotate(-45)"></circle><circle class="cls-3" cx="4693.23" cy="4147.28" r="15.66" transform="translate(-827.3 1189.22) rotate(-13.28)"></circle><path class="cls-4" d="M4533.38,4039.33c-8.65,0-15.66,7.01-15.66,15.66s7.01,15.66,15.66,15.66,15.66-7.01,15.66-15.66-7.01-15.66-15.66-15.66Z"></path><path class="cls-4" d="M4373.53,4131.62c-8.65,0-15.66,7.01-15.66,15.66s7.01,15.66,15.66,15.66,15.66-7.01,15.66-15.66-7.01-15.66-15.66-15.66Z"></path><path class="cls-4" d="M4373.53,4316.2c-8.65,0-15.66,7.01-15.66,15.66s7.01,15.66,15.66,15.66,15.66-7.01,15.66-15.66-7.01-15.66-15.66-15.66Z"></path></g></g><g><g><path class="cls-4" d="M4022.52,5060.36l162.51,93.83v187.65l-162.51,93.82-162.51-93.82v-187.65l162.51-93.83h0ZM4022.52,5429.51h0l157.18-90.75v-181.5l-157.18-90.75-157.18,90.75v181.5l157.18,90.75Z"></path><circle class="cls-3" cx="4022.52" cy="5432.59" r="15.66" transform="translate(-1140.55 1069.52) rotate(-13.28)"></circle><path class="cls-4" d="M4182.36,5324.64c-8.65,0-15.66,7.01-15.66,15.66s7.01,15.66,15.66,15.66,15.66-7.01,15.66-15.66-7.01-15.66-15.66-15.66Z"></path><circle class="cls-3" cx="4182.36" cy="5155.73" r="15.66" transform="translate(-1072.66 1098.83) rotate(-13.28)"></circle><path class="cls-4" d="M4022.52,5047.78c-8.65,0-15.66,7.01-15.66,15.66s7.01,15.66,15.66,15.66,15.66-7.01,15.66-15.66-7.01-15.66-15.66-15.66Z"></path><circle class="cls-3" cx="3862.67" cy="5155.73" r="15.66" transform="translate(-1081.22 1025.38) rotate(-13.28)"></circle><path class="cls-4" d="M3862.67,5324.64c-8.65,0-15.66,7.01-15.66,15.66s7.01,15.66,15.66,15.66,15.66-7.01,15.66-15.66-7.01-15.66-15.66-15.66Z"></path></g><g><path class="cls-4" d="M3827.31,5387.27l162.51,93.83v187.65l-162.51,93.82-162.51-93.82v-187.65l162.51-93.83h0ZM3827.31,5756.42h0l157.18-90.75v-181.5l-157.18-90.75-157.18,90.75v181.5l157.18,90.75Z"></path><path class="cls-4" d="M3827.31,5743.83c-8.65,0-15.66,7.01-15.66,15.66s7.01,15.66,15.66,15.66,15.66-7.01,15.66-15.66-7.01-15.66-15.66-15.66Z"></path><circle class="cls-3" cx="3987.16" cy="5667.21" r="15.66" transform="translate(-2839.51 4479.23) rotate(-45)"></circle><circle class="cls-3" cx="3987.16" cy="5482.63" r="15.66" transform="translate(-1152.99 1062.73) rotate(-13.28)"></circle><path class="cls-4" d="M3827.31,5374.68c-8.65,0-15.66,7.01-15.66,15.66s7.01,15.66,15.66,15.66,15.66-7.01,15.66-15.66-7.01-15.66-15.66-15.66Z"></path><path class="cls-4" d="M3667.47,5466.97c-8.65,0-15.66,7.01-15.66,15.66s7.01,15.66,15.66,15.66,15.66-7.01,15.66-15.66-7.01-15.66-15.66-15.66Z"></path><path class="cls-4" d="M3667.47,5651.55c-8.65,0-15.66,7.01-15.66,15.66s7.01,15.66,15.66,15.66,15.66-7.01,15.66-15.66-7.01-15.66-15.66-15.66Z"></path></g><g><path class="cls-4" d="M5264.49,5881.99l162.51,93.83v187.65l-162.51,93.82-162.52-93.82v-187.65l162.52-93.83h0ZM5264.49,6251.14h0l157.18-90.75v-181.5l-157.18-90.75-157.18,90.75v181.5l157.18,90.75Z"></path><path class="cls-4" d="M5264.49,6238.55c-8.65,0-15.66,7.01-15.66,15.66s7.01,15.66,15.66,15.66,15.66-7.01,15.66-15.66-7.01-15.66-15.66-15.66Z"></path><path class="cls-4" d="M5424.33,6146.27c-8.65,0-15.66,7.01-15.66,15.66s7.01,15.66,15.66,15.66,15.66-7.01,15.66-15.66-7.01-15.66-15.66-15.66Z"></path><circle class="cls-3" cx="5424.33" cy="5977.35" r="15.66" transform="translate(-2637.88 5586.31) rotate(-45)"></circle><path class="cls-4" d="M5264.49,5869.4c-8.65,0-15.66,7.01-15.66,15.66s7.01,15.66,15.66,15.66,15.66-7.01,15.66-15.66-7.01-15.66-15.66-15.66Z"></path><circle class="cls-3" cx="5104.64" cy="5977.35" r="15.66" transform="translate(-2731.51 5360.25) rotate(-45)"></circle><path class="cls-4" d="M5104.64,6146.27c-8.65,0-15.66,7.01-15.66,15.66s7.01,15.66,15.66,15.66,15.66-7.01,15.66-15.66-7.01-15.66-15.66-15.66Z"></path></g><g><path class="cls-4" d="M3987.16,5758.38l162.51,93.83v187.65l-162.51,93.83-162.51-93.83v-187.65l162.51-93.83h0ZM3987.16,6127.53h0l157.18-90.75v-181.5l-157.18-90.75-157.18,90.75v181.5l157.18,90.75Z"></path><path class="cls-4" d="M3987.16,6114.94c-8.65,0-15.66,7.01-15.66,15.66s7.01,15.66,15.66,15.66,15.66-7.01,15.66-15.66-7.01-15.66-15.66-15.66Z"></path><circle class="cls-3" cx="4147.01" cy="6038.32" r="15.66" transform="translate(-3055.11 4700.96) rotate(-45)"></circle><circle class="cls-3" cx="4147.01" cy="5853.74" r="15.66" transform="translate(-1233.98 1109.38) rotate(-13.28)"></circle><circle class="cls-3" cx="3987.16" cy="5761.45" r="15.66" transform="translate(-1217.05 1070.19) rotate(-13.28)"></circle><path class="cls-4" d="M3827.31,5838.08c-8.65,0-15.66,7.01-15.66,15.66s7.01,15.66,15.66,15.66,15.66-7.01,15.66-15.66-7.01-15.66-15.66-15.66Z"></path><path class="cls-4" d="M3827.31,6022.66c-8.65,0-15.66,7.01-15.66,15.66s7.01,15.66,15.66,15.66,15.66-7.01,15.66-15.66-7.01-15.66-15.66-15.66Z"></path></g><g><path class="cls-4" d="M5088.98,5556.18l161.18,93.06,1.33.76v187.66l-162.52,93.82-161.18-93.06-1.33-.76v-187.66l162.51-93.82h0ZM5088.98,5925.33h0l157.18-90.75v-181.49l-157.18-90.75-157.18,90.75v181.49l157.18,90.75Z"></path><circle class="cls-3" cx="5088.98" cy="5928.41" r="15.66" transform="translate(-2701.49 5334.84) rotate(-45)"></circle><path class="cls-4" d="M5248.83,5820.46c-8.65,0-15.66,7.01-15.66,15.66s7.01,15.66,15.66,15.66,15.66-7.01,15.66-15.66-7.01-15.66-15.66-15.66Z"></path><circle class="cls-3" cx="5248.83" cy="5651.55" r="15.66" transform="translate(-2458.9 5366.78) rotate(-45)"></circle><path class="cls-4" d="M5088.98,5543.6c-8.65,0-15.66,7.01-15.66,15.66s7.01,15.66,15.66,15.66,15.66-7.01,15.66-15.66-7.01-15.66-15.66-15.66Z"></path><circle class="cls-3" cx="4929.13" cy="5651.55" r="15.66" transform="translate(-2552.54 5140.72) rotate(-45)"></circle><path class="cls-4" d="M4929.13,5820.46c-8.65,0-15.66,7.01-15.66,15.66s7.01,15.66,15.66,15.66,15.66-7.01,15.66-15.66-7.01-15.66-15.66-15.66Z"></path></g></g><polygon class="cls-4" points="4393.17 6263.8 4393.17 6450.97 4231.07 6544.55 4068.98 6450.97 4068.98 6263.8 4231.07 6170.21 4393.17 6263.8"></polygon><polygon class="cls-4" points="4680.88 7403.87 4728.99 7376.09 4777.09 7403.87 4680.88 7403.87"></polygon><polygon class="cls-4" points="4232.91 5577.25 4232.91 5694.52 4131.35 5753.16 4029.79 5694.52 4029.79 5577.25 4131.35 5518.62 4232.91 5577.25"></polygon><polygon class="cls-4" points="4291.61 4231.16 4291.61 4348.43 4190.05 4407.06 4088.49 4348.43 4088.49 4231.16 4190.05 4172.52 4291.61 4231.16"></polygon><polygon class="cls-4" points="5061.97 5968.68 5061.97 6107.95 4941.36 6177.59 4820.75 6107.95 4820.75 5968.68 4941.36 5899.05 5061.97 5968.68"></polygon></g><g><path class="cls-4" d="M5570.64,2619.87l1.33-.77,287.47,165.97v331.94l-286.14,165.2-1.33.77-287.47-165.97v-331.94l286.14-165.2h0ZM5571.97,3276.83h0l282.14-162.89v-325.78l-282.14-162.89-282.14,162.89v325.78l282.14,162.89Z"></path><path class="cls-4" d="M5287.17,3104.3c-8.65,0-15.66,7.01-15.66,15.66s7.01,15.66,15.66,15.66,15.66-7.01,15.66-15.66-7.01-15.66-15.66-15.66Z"></path><path class="cls-4" d="M5287.17,2770.95c-8.65,0-15.66,7.01-15.66,15.66s7.01,15.66,15.66,15.66,15.66-7.01,15.66-15.66-7.01-15.66-15.66-15.66Z"></path><path class="cls-4" d="M5571.97,2606.52c-8.65,0-15.66,7.01-15.66,15.66s7.01,15.66,15.66,15.66,15.66-7.01,15.66-15.66-7.01-15.66-15.66-15.66Z"></path><circle class="cls-3" cx="5856.77" cy="2786.61" r="15.66" transform="translate(-483.56 1420.15) rotate(-13.28)"></circle><path class="cls-4" d="M5571.97,3268.73c-8.65,0-15.66,7.01-15.66,15.66s7.01,15.66,15.66,15.66,15.66-7.01,15.66-15.66-7.01-15.66-15.66-15.66Z"></path><circle class="cls-3" cx="5856.77" cy="3119.96" r="15.66" transform="translate(-490.73 5055.18) rotate(-45)"></circle></g><g><path class="cls-4" d="M5821.15,3178.39l162.51,93.83v187.65l-162.51,93.82-162.51-93.82v-187.65l162.51-93.83h0ZM5821.15,3547.54h0l157.18-90.75v-181.5l-157.18-90.75-157.18,90.75v181.5l157.18,90.75Z"></path><path class="cls-4" d="M5821.15,3534.95c-8.65,0-15.66,7.01-15.66,15.66s7.01,15.66,15.66,15.66,15.66-7.01,15.66-15.66-7.01-15.66-15.66-15.66Z"></path><path class="cls-4" d="M5981,3442.66c-8.65,0-15.66,7.01-15.66,15.66s7.01,15.66,15.66,15.66,15.66-7.01,15.66-15.66-7.01-15.66-15.66-15.66Z"></path><path class="cls-4" d="M5981,3258.09c-8.65,0-15.66,7.01-15.66,15.66s7.01,15.66,15.66,15.66,15.66-7.01,15.66-15.66-7.01-15.66-15.66-15.66Z"></path><path class="cls-4" d="M5821.15,3165.8c-8.65,0-15.66,7.01-15.66,15.66s7.01,15.66,15.66,15.66,15.66-7.01,15.66-15.66-7.01-15.66-15.66-15.66Z"></path><circle class="cls-3" cx="5661.3" cy="3273.75" r="15.66" transform="translate(-600.71 1388.27) rotate(-13.28)"></circle><path class="cls-4" d="M5661.3,3442.66c-8.65,0-15.66,7.01-15.66,15.66s7.01,15.66,15.66,15.66,15.66-7.01,15.66-15.66-7.01-15.66-15.66-15.66Z"></path></g><g><path class="cls-4" d="M5625.95,3505.29l162.51,93.83v187.65l-162.51,93.82-162.51-93.82v-187.65l162.51-93.83h0ZM5625.95,3874.44h0l157.18-90.75v-181.5l-157.18-90.75-157.18,90.75v181.5l157.18,90.75Z"></path><path class="cls-4" d="M5625.95,3861.85c-8.65,0-15.66,7.01-15.66,15.66s7.01,15.66,15.66,15.66,15.66-7.01,15.66-15.66-7.01-15.66-15.66-15.66Z"></path><circle class="cls-3" cx="5785.8" cy="3785.23" r="15.66" transform="translate(-200.47 325.74) rotate(-3.17)"></circle><circle class="cls-3" cx="5785.8" cy="3600.65" r="15.66" transform="translate(-672.48 1425.62) rotate(-13.28)"></circle><circle class="cls-3" cx="5625.95" cy="3508.36" r="15.66" transform="translate(-318.33 571.45) rotate(-5.66)"></circle><path class="cls-4" d="M5466.1,3584.99c-8.65,0-15.66,7.01-15.66,15.66s7.01,15.66,15.66,15.66,15.66-7.01,15.66-15.66-7.01-15.66-15.66-15.66Z"></path><path class="cls-4" d="M5466.1,3769.57c-8.65,0-15.66,7.01-15.66,15.66s7.01,15.66,15.66,15.66,15.66-7.01,15.66-15.66-7.01-15.66-15.66-15.66Z"></path></g><g><path class="cls-4" d="M5785.79,3876.4l162.51,93.83v187.65l-162.51,93.83-162.51-93.83v-187.65l162.51-93.83h0ZM5785.79,4245.55h0l157.18-90.75v-181.5l-157.18-90.75-157.18,90.75v181.5l157.18,90.75Z"></path><path class="cls-4" d="M5785.8,4232.96c-8.65,0-15.66,7.01-15.66,15.66s7.01,15.66,15.66,15.66,15.66-7.01,15.66-15.66-7.01-15.66-15.66-15.66Z"></path><circle class="cls-3" cx="5945.64" cy="4156.34" r="15.66" transform="translate(-795.88 1477.21) rotate(-13.28)"></circle><circle class="cls-3" cx="5945.64" cy="3971.76" r="15.66" transform="translate(-1067.02 5367.51) rotate(-45)"></circle><path class="cls-4" d="M5785.8,3863.81c-8.65,0-15.66,7.01-15.66,15.66s7.01,15.66,15.66,15.66,15.66-7.01,15.66-15.66-7.01-15.66-15.66-15.66Z"></path><circle class="cls-3" cx="5625.95" cy="3971.76" r="15.66" transform="translate(-399.8 637.61) rotate(-6.26)"></circle><circle class="cls-3" cx="5625.95" cy="4156.34" r="15.66" transform="translate(-522.11 820.5) rotate(-7.97)"></circle></g><g><path class="cls-4" d="M5094.78,3070.43l162.52,93.83v187.65l-162.52,93.83-162.51-93.83v-187.65l162.51-93.83h0ZM5094.78,3439.59h0l157.18-90.75v-181.5l-157.18-90.75-157.18,90.75v181.5l157.18,90.75Z"></path><path class="cls-4" d="M5094.78,3427c-8.65,0-15.66,7.01-15.66,15.66s7.01,15.66,15.66,15.66,15.66-7.01,15.66-15.66-7.01-15.66-15.66-15.66Z"></path><circle class="cls-3" cx="5254.63" cy="3350.38" r="15.66" transform="translate(-830.03 4696.89) rotate(-45)"></circle><path class="cls-4" d="M5254.63,3150.14c-8.65,0-15.66,7.01-15.66,15.66s7.01,15.66,15.66,15.66,15.66-7.01,15.66-15.66-7.01-15.66-15.66-15.66Z"></path><circle class="cls-3" cx="5094.78" cy="3073.51" r="15.66" transform="translate(-681.07 4502.77) rotate(-45)"></circle><path class="cls-4" d="M4934.94,3150.14c-8.65,0-15.66,7.01-15.66,15.66s7.01,15.66,15.66,15.66,15.66-7.01,15.66-15.66-7.01-15.66-15.66-15.66Z"></path><circle class="cls-3" cx="4934.94" cy="3350.38" r="15.66" transform="translate(-637.75 1223.45) rotate(-13.28)"></circle></g><g><path class="cls-4" d="M4919.27,3397.34l162.52,93.82v187.65l-162.52,93.83-162.51-93.83v-187.65l162.51-93.82h0ZM4919.27,3766.49h0l157.18-90.75v-181.5l-157.18-90.75-157.18,90.75v181.5l157.18,90.75Z"></path><circle class="cls-3" cx="4919.27" cy="3769.57" r="15.66" transform="translate(-734.47 1231.05) rotate(-13.28)"></circle><circle class="cls-3" cx="5079.12" cy="3677.28" r="15.66" transform="translate(-1112.59 4668.53) rotate(-45)"></circle><circle class="cls-3" cx="5079.12" cy="3492.7" r="15.66" transform="translate(-982.07 4614.47) rotate(-45)"></circle><circle class="cls-3" cx="4919.27" cy="3400.42" r="15.66" transform="translate(-963.63 4474.41) rotate(-45)"></circle><circle class="cls-3" cx="4759.43" cy="3492.7" r="15.66" transform="translate(-1075.71 4388.41) rotate(-45)"></circle><circle class="cls-3" cx="4759.43" cy="3677.28" r="15.66" transform="translate(-1206.23 4442.47) rotate(-45)"></circle></g><g><path class="cls-4" d="M6292.05,1942.6l161.17,93.06,1.33.76v187.66l-162.51,93.82-161.18-93.06-1.33-.76v-187.66l162.52-93.82h0ZM6292.05,2311.75h0l157.18-90.75v-181.49l-157.18-90.75-157.18,90.75v181.49l157.18,90.75Z"></path><path class="cls-4" d="M6292.05,2299.17c-8.65,0-15.66,7.01-15.66,15.66s7.01,15.66,15.66,15.66,15.66-7.01,15.66-15.66-7.01-15.66-15.66-15.66Z"></path><path class="cls-4" d="M6451.89,2206.88c-8.65,0-15.66,7.01-15.66,15.66s7.01,15.66,15.66,15.66,15.66-7.01,15.66-15.66-7.01-15.66-15.66-15.66Z"></path><path class="cls-4" d="M6451.89,2022.31c-8.65,0-15.66,7.01-15.66,15.66s7.01,15.66,15.66,15.66,15.66-7.01,15.66-15.66-7.01-15.66-15.66-15.66Z"></path><path class="cls-4" d="M6292.05,1930.02c-8.65,0-15.66,7.01-15.66,15.66s7.01,15.66,15.66,15.66,15.66-7.01,15.66-15.66-7.01-15.66-15.66-15.66Z"></path><path class="cls-4" d="M6132.2,2022.31c-8.65,0-15.66,7.01-15.66,15.66s7.01,15.66,15.66,15.66,15.66-7.01,15.66-15.66-7.01-15.66-15.66-15.66Z"></path><path class="cls-4" d="M6132.2,2206.88c-8.65,0-15.66,7.01-15.66,15.66s7.01,15.66,15.66,15.66,15.66-7.01,15.66-15.66-7.01-15.66-15.66-15.66Z"></path></g><g><path class="cls-4" d="M4470.28,1963.83l162.51,93.83v187.65l-162.51,93.83-162.52-93.83v-187.65l162.52-93.83h0ZM4470.28,2332.98h0l157.18-90.75v-181.5l-157.18-90.75-157.18,90.75v181.5l157.18,90.75Z"></path><circle class="cls-3" cx="4470.27" cy="2336.06" r="15.66" transform="translate(-342.53 3845.18) rotate(-45)"></circle><path class="cls-4" d="M4630.12,2228.11c-8.65,0-15.66,7.01-15.66,15.66s7.01,15.66,15.66,15.66,15.66-7.01,15.66-15.66-7.01-15.66-15.66-15.66Z"></path><path class="cls-4" d="M4630.12,2043.53c-8.65,0-15.66,7.01-15.66,15.66s7.01,15.66,15.66,15.66,15.66-7.01,15.66-15.66-7.01-15.66-15.66-15.66Z"></path><circle class="cls-3" cx="4470.27" cy="1966.91" r="15.66" transform="translate(2191.42 6286.51) rotate(-85.93)"></circle><path class="cls-4" d="M4310.43,2043.53c-8.65,0-15.66,7.01-15.66,15.66s7.01,15.66,15.66,15.66,15.66-7.01,15.66-15.66-7.01-15.66-15.66-15.66Z"></path><circle class="cls-3" cx="4310.43" cy="2243.77" r="15.66" transform="translate(-400.21 1050.36) rotate(-13.28)"></circle></g><g><path class="cls-4" d="M5998.73,2355.1l162.51,93.82v187.65l-162.51,93.83-162.51-93.83v-187.65l162.52-93.82h0ZM5998.73,2724.25h0l157.18-90.75v-181.5l-157.18-90.75-157.18,90.75v181.5l157.18,90.75Z"></path><path class="cls-4" d="M5998.73,2711.66c-8.65,0-15.66,7.01-15.66,15.66s7.01,15.66,15.66,15.66,15.66-7.01,15.66-15.66-7.01-15.66-15.66-15.66Z"></path><path class="cls-4" d="M6158.58,2619.37c-8.65,0-15.66,7.01-15.66,15.66s7.01,15.66,15.66,15.66,15.66-7.01,15.66-15.66-7.01-15.66-15.66-15.66Z"></path><path class="cls-4" d="M6158.58,2434.8c-8.65,0-15.66,7.01-15.66,15.66s7.01,15.66,15.66,15.66,15.66-7.01,15.66-15.66-7.01-15.66-15.66-15.66Z"></path><circle class="cls-3" cx="5998.73" cy="2358.17" r="15.66" transform="translate(89.51 4932.43) rotate(-45)"></circle><circle class="cls-3" cx="5838.88" cy="2450.46" r="15.66" transform="translate(-22.57 4846.44) rotate(-45)"></circle><circle class="cls-3" cx="5838.88" cy="2635.03" r="15.66" transform="translate(-153.08 4900.5) rotate(-45)"></circle></g><g><path class="cls-4" d="M4721.4,2231.49l162.52,93.82v187.65l-162.52,93.82-162.51-93.82v-187.65l162.51-93.82h0ZM4721.4,2600.64h0l157.19-90.75v-181.5l-157.19-90.75-157.18,90.75v181.5l157.18,90.75Z"></path><path class="cls-4" d="M4721.41,2588.05c-8.65,0-15.66,7.01-15.66,15.66s7.01,15.66,15.66,15.66,15.66-7.01,15.66-15.66-7.01-15.66-15.66-15.66Z"></path><path class="cls-4" d="M4881.25,2495.77c-8.65,0-15.66,7.01-15.66,15.66s7.01,15.66,15.66,15.66,15.66-7.01,15.66-15.66-7.01-15.66-15.66-15.66Z"></path><path class="cls-4" d="M4881.25,2311.19c-8.65,0-15.66,7.01-15.66,15.66s7.01,15.66,15.66,15.66,15.66-7.01,15.66-15.66-7.01-15.66-15.66-15.66Z"></path><path class="cls-4" d="M4721.41,2218.9c-8.65,0-15.66,7.01-15.66,15.66s7.01,15.66,15.66,15.66,15.66-7.01,15.66-15.66-7.01-15.66-15.66-15.66Z"></path><circle class="cls-3" cx="4561.56" cy="2326.85" r="15.66" transform="translate(-412.57 1110.28) rotate(-13.28)"></circle><path class="cls-4" d="M4561.56,2495.77c-8.65,0-15.66,7.01-15.66,15.66s7.01,15.66,15.66,15.66,15.66-7.01,15.66-15.66-7.01-15.66-15.66-15.66Z"></path></g><g><path class="cls-4" d="M5823.22,2029.29l161.18,93.06,1.33.77v187.65l-162.52,93.82-161.18-93.06-1.33-.77v-187.65l162.51-93.82h0ZM5823.22,2398.44h0l157.18-90.75v-181.49l-157.18-90.75-157.18,90.75v181.49l157.18,90.75Z"></path><circle class="cls-3" cx="5823.22" cy="2401.52" r="15.66" transform="translate(7.45 4821.03) rotate(-45)"></circle><circle class="cls-3" cx="5983.07" cy="2309.23" r="15.66" transform="translate(119.53 4907.03) rotate(-45)"></circle><path class="cls-4" d="M5983.07,2108.99c-8.65,0-15.66,7.01-15.66,15.66s7.01,15.66,15.66,15.66,15.66-7.01,15.66-15.66-7.01-15.66-15.66-15.66Z"></path><circle class="cls-3" cx="5823.22" cy="2032.36" r="15.66" transform="translate(268.48 4712.91) rotate(-45)"></circle><path class="cls-4" d="M5663.38,2108.99c-8.65,0-15.66,7.01-15.66,15.66s7.01,15.66,15.66,15.66,15.66-7.01,15.66-15.66-7.01-15.66-15.66-15.66Z"></path><circle class="cls-3" cx="5663.38" cy="2309.23" r="15.66" transform="translate(25.89 4680.97) rotate(-45)"></circle></g><polygon class="cls-4" points="5127.42 2736.9 5127.42 2924.08 4965.32 3017.66 4803.22 2924.08 4803.22 2736.9 4965.32 2643.32 5127.42 2736.9"></polygon><polygon class="cls-4" points="5564.79 3907.83 5564.79 4025.1 5463.23 4083.74 5361.67 4025.1 5361.67 3907.83 5463.23 3849.2 5564.79 3907.83"></polygon><polygon class="cls-4" points="4967.15 2050.36 4967.15 2167.63 4865.59 2226.26 4764.04 2167.63 4764.04 2050.36 4865.59 1991.72 4967.15 2050.36"></polygon><polygon class="cls-4" points="5796.21 2441.79 5796.21 2581.06 5675.6 2650.7 5554.99 2581.06 5554.99 2441.79 5675.6 2372.16 5796.21 2441.79"></polygon><g><g><g><polygon class="cls-2" points="4573.98 7068.54 4576.09 7067.33 5031.57 7330.3 5031.57 7403.87 5023.13 7403.87 5023.13 7335.17 4576.09 7077.07 4129.06 7335.17 4129.06 7403.87 4120.61 7403.87 4120.61 7330.3 4573.98 7068.54"></polygon><path class="cls-2" d="M4124.83,7307.92c-13.7,0-24.81,11.11-24.81,24.81s11.11,24.81,24.81,24.81,24.81-11.11,24.81-24.81-11.11-24.81-24.81-24.81Z"></path><circle class="cls-1" cx="4576.09" cy="7072.2" r="24.81" transform="translate(-3660.49 5307.19) rotate(-45)"></circle><circle class="cls-1" cx="5027.35" cy="7332.73" r="24.81"></circle></g><g><path class="cls-2" d="M4024.31,6179.56l2.11-1.22,455.48,262.97v525.94l-453.37,261.75-2.11,1.22-455.48-262.97v-525.94l453.37-261.76h0ZM4026.42,7220.48h0l447.04-258.09v-516.19l-447.04-258.1-447.03,258.1v516.19l447.03,258.09Z"></path><path class="cls-2" d="M3575.17,6947.11c-13.7,0-24.81,11.11-24.81,24.81s11.11,24.81,24.81,24.81,24.81-11.11,24.81-24.81-11.11-24.81-24.81-24.81Z"></path><path class="cls-2" d="M3575.17,6418.94c-13.7,0-24.81,11.11-24.81,24.81s11.11,24.81,24.81,24.81,24.81-11.11,24.81-24.81c0-13.7-11.11-24.81-24.81-24.81Z"></path><path class="cls-2" d="M4026.42,6158.41c-13.7,0-24.81,11.11-24.81,24.81s11.11,24.81,24.81,24.81,24.81-11.11,24.81-24.81-11.11-24.81-24.81-24.81Z"></path><path class="cls-2" d="M4477.68,6418.94c-13.7,0-24.81,11.11-24.81,24.81s11.11,24.81,24.81,24.81,24.81-11.11,24.81-24.81-11.11-24.81-24.81-24.81Z"></path><circle class="cls-1" cx="4026.42" cy="7232.46" r="24.81"></circle><circle class="cls-1" cx="4477.68" cy="6971.93" r="24.81" transform="translate(-1482.04 1215.26) rotate(-13.28)"></circle></g><g><path class="cls-2" d="M4421.24,5752.98l255.38,147.45,2.11,1.21v297.33l-257.5,148.66-255.38-147.45-2.11-1.21v-297.33l257.5-148.66h0ZM4421.24,6337.88h0l249.05-143.79v-287.57l-249.05-143.79-249.05,143.79v287.57l249.05,143.79Z"></path><path class="cls-2" d="M4421.24,6317.94c-13.71,0-24.81,11.11-24.81,24.81s11.11,24.81,24.81,24.81,24.81-11.11,24.81-24.81-11.11-24.81-24.81-24.81Z"></path><path class="cls-2" d="M4674.51,6171.72c-13.7,0-24.81,11.11-24.81,24.81s11.11,24.82,24.81,24.82,24.81-11.11,24.81-24.82-11.11-24.81-24.81-24.81Z"></path><path class="cls-2" d="M4674.51,5879.26c-13.7,0-24.81,11.11-24.81,24.81s11.11,24.82,24.81,24.82,24.81-11.11,24.81-24.82-11.11-24.81-24.81-24.81Z"></path><path class="cls-2" d="M4421.24,5733.04c-13.71,0-24.81,11.11-24.81,24.82s11.11,24.81,24.81,24.81,24.81-11.11,24.81-24.81-11.11-24.82-24.81-24.82Z"></path><path class="cls-2" d="M4167.97,5879.26c-13.7,0-24.81,11.11-24.81,24.81s11.11,24.82,24.81,24.82,24.81-11.11,24.81-24.82-11.11-24.81-24.81-24.81Z"></path><path class="cls-2" d="M4167.97,6171.72c-13.7,0-24.81,11.11-24.81,24.81s11.11,24.82,24.81,24.82,24.81-11.11,24.81-24.82-11.11-24.81-24.81-24.81Z"></path></g><g><path class="cls-2" d="M4098.1,5231.91l255.38,147.45,2.11,1.21v297.33l-257.49,148.66-255.39-147.45-2.11-1.21v-297.33l257.5-148.66h0ZM4098.1,5816.81h0l249.04-143.79v-287.57l-249.04-143.79-249.05,143.79v287.57l249.05,143.79Z"></path><path class="cls-2" d="M4098.09,5796.87c-13.7,0-24.81,11.11-24.81,24.81s11.11,24.81,24.81,24.81,24.81-11.11,24.81-24.81-11.11-24.81-24.81-24.81Z"></path><path class="cls-2" d="M4351.36,5650.65c-13.71,0-24.82,11.11-24.82,24.81s11.11,24.81,24.82,24.81,24.81-11.11,24.81-24.81-11.11-24.81-24.81-24.81Z"></path><path class="cls-2" d="M4351.36,5358.2c-13.71,0-24.82,11.11-24.82,24.81s11.11,24.81,24.82,24.81,24.81-11.11,24.81-24.81-11.11-24.81-24.81-24.81Z"></path><path class="cls-2" d="M4098.09,5211.97c-13.7,0-24.81,11.11-24.81,24.81s11.11,24.82,24.81,24.82,24.81-11.11,24.81-24.82-11.11-24.81-24.81-24.81Z"></path><circle class="cls-1" cx="3844.82" cy="5383.01" r="24.81"></circle><path class="cls-2" d="M3844.82,5650.65c-13.71,0-24.81,11.11-24.81,24.81s11.11,24.81,24.81,24.81,24.81-11.11,24.81-24.81-11.11-24.81-24.81-24.81Z"></path></g><g><path class="cls-2" d="M4351.36,4647.01l255.39,147.45,2.11,1.21v297.33l-257.5,148.66-255.38-147.45-2.11-1.21v-297.33l257.49-148.66h0ZM4351.36,5231.91h0l249.05-143.79v-287.57l-249.05-143.79-249.04,143.79v287.57l249.04,143.79Z"></path><path class="cls-2" d="M4351.36,5211.97c-13.71,0-24.82,11.11-24.82,24.81s11.11,24.82,24.82,24.82,24.81-11.11,24.81-24.82-11.11-24.81-24.81-24.81Z"></path><path class="cls-2" d="M4604.63,5065.75c-13.7,0-24.81,11.11-24.81,24.81s11.11,24.81,24.81,24.81,24.81-11.11,24.81-24.81-11.11-24.81-24.81-24.81Z"></path><path class="cls-2" d="M4604.63,4773.3c-13.7,0-24.81,11.11-24.81,24.81s11.11,24.82,24.81,24.82,24.81-11.11,24.81-24.82-11.11-24.81-24.81-24.81Z"></path><path class="cls-2" d="M4351.36,4627.07c-13.71,0-24.82,11.11-24.82,24.81s11.11,24.81,24.82,24.81,24.81-11.11,24.81-24.81-11.11-24.81-24.81-24.81Z"></path><path class="cls-2" d="M4098.09,4773.3c-13.7,0-24.81,11.11-24.81,24.81s11.11,24.82,24.81,24.82,24.81-11.11,24.81-24.82-11.11-24.81-24.81-24.81Z"></path><circle class="cls-1" cx="4098.09" cy="5090.56" r="24.81" transform="translate(-1059.95 1077.73) rotate(-13.28)"></circle></g><g><path class="cls-2" d="M4383.53,3212.36l255.39,147.45,2.11,1.21v297.33l-257.5,148.66-255.37-147.45-2.11-1.21v-297.33l257.49-148.66h0ZM4383.53,3797.26h0l249.05-143.79v-287.57l-249.05-143.79-249.04,143.79v287.57l249.04,143.79Z"></path><path class="cls-2" d="M4383.53,3777.32c-13.71,0-24.82,11.11-24.82,24.81s11.11,24.81,24.82,24.81,24.81-11.11,24.81-24.81-11.11-24.81-24.81-24.81Z"></path><circle class="cls-1" cx="4636.8" cy="3655.91" r="24.81" transform="translate(-515.25 6540.7) rotate(-67.5)"></circle><circle class="cls-1" cx="4636.8" cy="3363.46" r="24.81" transform="translate(-1020.24 4263.85) rotate(-45)"></circle><path class="cls-2" d="M4383.53,3192.42c-13.71,0-24.82,11.11-24.82,24.81s11.11,24.81,24.82,24.81,24.81-11.11,24.81-24.81-11.11-24.81-24.81-24.81Z"></path><path class="cls-2" d="M4130.26,3338.65c-13.7,0-24.81,11.11-24.81,24.81s11.11,24.81,24.81,24.81,24.81-11.11,24.81-24.81-11.11-24.81-24.81-24.81Z"></path><path class="cls-2" d="M4130.26,3631.1c-13.7,0-24.81,11.11-24.81,24.81s11.11,24.81,24.81,24.81,24.81-11.11,24.81-24.81-11.11-24.81-24.81-24.81Z"></path></g><g><path class="cls-2" d="M3820.01,4285.48l255.38,147.45,2.11,1.21v297.33l-257.5,148.66-255.38-147.45-2.11-1.21v-297.33l257.49-148.66h0ZM3820.01,4870.38h0l249.05-143.79v-287.57l-249.05-143.79-249.04,143.79v287.57l249.04,143.79Z"></path><path class="cls-2" d="M3820.01,4850.44c-13.7,0-24.81,11.11-24.81,24.81s11.11,24.82,24.81,24.82,24.81-11.11,24.81-24.82-11.11-24.81-24.81-24.81Z"></path><circle class="cls-1" cx="4073.28" cy="4729.03" r="24.81" transform="translate(-977.54 1062.35) rotate(-13.28)"></circle><circle class="cls-1" cx="4073.28" cy="4436.57" r="24.81" transform="translate(-910.35 1054.53) rotate(-13.28)"></circle><path class="cls-2" d="M3820.01,4265.54c-13.7,0-24.81,11.11-24.81,24.81s11.11,24.82,24.81,24.82,24.81-11.11,24.81-24.82-11.11-24.81-24.81-24.81Z"></path><circle class="cls-1" cx="3566.74" cy="4436.57" r="24.81"></circle><circle class="cls-1" cx="3566.74" cy="4729.03" r="24.81"></circle></g><g><path class="cls-2" d="M4093.87,3749.37l255.38,147.44,2.11,1.21v297.33l-257.5,148.66-255.38-147.45-2.11-1.21v-297.33l257.49-148.66h0ZM4093.87,4334.27h0l249.05-143.79v-287.57l-249.05-143.79-249.04,143.79v287.57l249.04,143.79Z"></path><path class="cls-2" d="M4093.87,4314.33c-13.7,0-24.81,11.11-24.81,24.81s11.11,24.81,24.81,24.81,24.82-11.11,24.82-24.81-11.11-24.81-24.82-24.81Z"></path><circle class="cls-1" cx="4347.14" cy="4192.92" r="24.81" transform="translate(-252.14 278.23) rotate(-3.56)"></circle><circle class="cls-1" cx="4347.14" cy="3900.47" r="24.81" transform="translate(-779.85 1103.11) rotate(-13.28)"></circle><path class="cls-2" d="M4093.87,3729.43c-13.7,0-24.81,11.11-24.81,24.81s11.11,24.81,24.81,24.81,24.82-11.11,24.82-24.81-11.11-24.81-24.82-24.81Z"></path><path class="cls-2" d="M3840.61,3875.65c-13.71,0-24.82,11.11-24.82,24.81s11.11,24.81,24.82,24.81,24.81-11.11,24.81-24.81-11.11-24.81-24.81-24.81Z"></path><path class="cls-2" d="M3840.61,4168.1c-13.71,0-24.82,11.11-24.82,24.81s11.11,24.81,24.82,24.81,24.81-11.11,24.81-24.81-11.11-24.81-24.81-24.81Z"></path></g></g><g><g><path class="cls-2" d="M3284.44,5347.2l257.49,148.66v297.33l-257.49,148.66-257.5-148.66v-297.33l257.5-148.66h0ZM3284.44,5932.1h0l249.04-143.79v-287.57l-249.04-143.79-249.05,143.79v287.57l249.05,143.79Z"></path><circle class="cls-1" cx="3284.43" cy="5936.98" r="24.81" transform="translate(-2903.22 8720.53) rotate(-85.27)"></circle><path class="cls-2" d="M3537.7,5765.94c-13.71,0-24.81,11.11-24.81,24.81s11.11,24.81,24.81,24.81,24.81-11.11,24.81-24.81-11.11-24.81-24.81-24.81Z"></path><path class="cls-2" d="M3537.7,5473.49c-13.71,0-24.81,11.11-24.81,24.81s11.11,24.81,24.81,24.81,24.81-11.11,24.81-24.81-11.11-24.81-24.81-24.81Z"></path><circle class="cls-1" cx="3284.43" cy="5352.08" r="24.81" transform="translate(-2822.5 3890.03) rotate(-45)"></circle><path class="cls-2" d="M3031.16,5473.49c-13.7,0-24.81,11.11-24.81,24.81s11.11,24.81,24.81,24.81,24.81-11.11,24.81-24.81-11.11-24.81-24.81-24.81Z"></path><circle class="cls-1" cx="3031.16" cy="5790.75" r="24.81"></circle></g><g><polygon class="cls-2" points="2975.14 5865.16 3232.63 6013.83 3232.63 6311.15 2975.14 6459.81 2779.85 6347.06 2779.85 6337.31 2975.14 6450.06 3224.19 6306.28 3224.19 6018.7 2975.14 5874.91 2779.85 5987.67 2779.85 5977.92 2975.14 5865.16"></polygon><circle class="cls-1" cx="2975.14" cy="6454.94" r="24.81" transform="translate(-995.55 559.91) rotate(-9.22)"></circle><circle class="cls-1" cx="3228.41" cy="6308.71" r="24.81" transform="translate(-3325.09 9005.77) rotate(-85.27)"></circle><circle class="cls-1" cx="3228.41" cy="6016.26" r="24.81" transform="translate(-922.01 594.82) rotate(-9.22)"></circle><path class="cls-2" d="M2975.14,5845.22c-13.71,0-24.81,11.11-24.81,24.81s11.11,24.81,24.81,24.81,24.81-11.11,24.81-24.81-11.11-24.81-24.81-24.81Z"></path></g><g><path class="cls-2" d="M5252.27,6649.02l257.49,148.66v297.32l-257.49,148.66-257.5-148.66v-297.32l257.5-148.66h0ZM5252.27,7233.92h0l249.04-143.79v-287.58l-249.04-143.79-249.05,143.79v287.58l249.05,143.79Z"></path><path class="cls-2" d="M5252.27,7213.98c-13.7,0-24.81,11.11-24.81,24.81s11.11,24.81,24.81,24.81,24.81-11.11,24.81-24.81-11.11-24.81-24.81-24.81Z"></path><path class="cls-2" d="M5505.54,7067.76c-13.71,0-24.81,11.11-24.81,24.81s11.11,24.81,24.81,24.81,24.81-11.11,24.81-24.81-11.11-24.81-24.81-24.81Z"></path><path class="cls-2" d="M5505.54,6775.31c-13.71,0-24.81,11.11-24.81,24.81s11.11,24.81,24.81,24.81,24.81-11.11,24.81-24.81-11.11-24.81-24.81-24.81Z"></path><path class="cls-2" d="M5252.27,6629.08c-13.7,0-24.81,11.11-24.81,24.81s11.11,24.81,24.81,24.81,24.81-11.11,24.81-24.81-11.11-24.81-24.81-24.81Z"></path><circle class="cls-1" cx="4999" cy="6800.12" r="24.81" transform="translate(-1428.63 1330.45) rotate(-13.28)"></circle><circle class="cls-1" cx="4999" cy="7092.57" r="24.81" transform="translate(-3466.72 8996.83) rotate(-67.5)"></circle></g><g><path class="cls-2" d="M3228.41,6453.17l257.5,148.66v297.32l-257.5,148.66-257.49-148.66v-297.32l257.49-148.66h0ZM3228.41,7038.07h0l249.05-143.79v-287.57l-249.05-143.79-249.04,143.79v287.57l249.04,143.79Z"></path><path class="cls-2" d="M3228.41,7018.13c-13.7,0-24.81,11.11-24.81,24.81s11.11,24.81,24.81,24.81,24.81-11.11,24.81-24.81-11.11-24.81-24.81-24.81Z"></path><path class="cls-2" d="M3481.68,6871.91c-13.7,0-24.81,11.11-24.81,24.81s11.11,24.81,24.81,24.81,24.81-11.11,24.81-24.81-11.11-24.81-24.81-24.81Z"></path><circle class="cls-1" cx="3481.68" cy="6604.27" r="24.81" transform="translate(-3848.14 8022.76) rotate(-73.16)"></circle><circle class="cls-1" cx="3228.41" cy="6458.04" r="24.81" transform="translate(-3620.94 4174.35) rotate(-45)"></circle><circle class="cls-1" cx="2975.14" cy="6604.27" r="24.81" transform="translate(-1437.75 860.21) rotate(-13.28)"></circle><path class="cls-2" d="M2975.14,6871.91c-13.71,0-24.81,11.11-24.81,24.81s11.11,24.81,24.81,24.81,24.81-11.11,24.81-24.81-11.11-24.81-24.81-24.81Z"></path></g><g><path class="cls-2" d="M4974.19,6132.8l255.38,147.45,2.11,1.21v297.33l-257.5,148.66-255.39-147.45-2.11-1.21v-297.33l257.5-148.66h0ZM4974.19,6717.7h0l249.05-143.79v-287.57l-249.05-143.79-249.05,143.79v287.57l249.05,143.79Z"></path><circle class="cls-1" cx="4974.19" cy="6722.57" r="24.81"></circle><circle class="cls-1" cx="5227.46" cy="6576.35" r="24.81" transform="translate(-3119.09 5622.54) rotate(-45)"></circle><circle class="cls-1" cx="5227.46" cy="6283.9" r="24.81" transform="translate(-1037.32 1033.54) rotate(-10.28)"></circle><path class="cls-2" d="M4974.19,6112.86c-13.7,0-24.81,11.11-24.81,24.82s11.11,24.81,24.81,24.81,24.81-11.11,24.81-24.81-11.11-24.82-24.81-24.82Z"></path><circle class="cls-1" cx="4720.92" cy="6283.9" r="24.81" transform="translate(-1045.45 943.16) rotate(-10.28)"></circle><circle class="cls-1" cx="4720.92" cy="6576.35" r="24.81" transform="translate(-3267.46 5264.36) rotate(-45)"></circle></g></g><polygon class="cls-2" points="3871.71 7253.98 3871.71 7403.87 3358.05 7403.87 3358.05 7253.98 3614.88 7105.69 3871.71 7253.98"></polygon><polygon class="cls-2" points="3617.78 6166.18 3617.78 6351.99 3456.87 6444.89 3295.95 6351.99 3295.95 6166.18 3456.87 6073.28 3617.78 6166.18"></polygon><polygon class="cls-2" points="3710.8 4033.37 3710.8 4219.18 3549.88 4312.08 3388.97 4219.18 3388.97 4033.37 3549.88 3940.46 3710.8 4033.37"></polygon><polygon class="cls-2" points="4931.39 6786.38 4931.39 7007.05 4740.29 7117.39 4549.19 7007.05 4549.19 6786.38 4740.29 6676.05 4931.39 6786.38"></polygon></g><g><path class="cls-2" d="M6612.47,2514.63l257.49,148.66v297.32l-257.49,148.66-257.5-148.66v-297.32l257.5-148.66h0ZM6612.47,3099.53h0l249.04-143.79v-287.57l-249.04-143.79-249.05,143.79v287.57l249.05,143.79Z"></path><path class="cls-2" d="M6612.47,3079.59c-13.71,0-24.81,11.11-24.81,24.81s11.11,24.81,24.81,24.81,24.81-11.11,24.81-24.81-11.11-24.81-24.81-24.81Z"></path><path class="cls-2" d="M6865.74,2933.37c-13.7,0-24.81,11.11-24.81,24.81s11.11,24.81,24.81,24.81,24.82-11.11,24.82-24.81-11.11-24.81-24.82-24.81Z"></path><path class="cls-2" d="M6865.74,2640.92c-13.7,0-24.81,11.11-24.81,24.81s11.11,24.81,24.81,24.81,24.82-11.11,24.82-24.81-11.11-24.81-24.82-24.81Z"></path><circle class="cls-1" cx="6612.47" cy="2519.51" r="24.81" transform="translate(155.19 5413.67) rotate(-45)"></circle><circle class="cls-1" cx="6359.2" cy="2665.73" r="24.81" transform="translate(-442.34 1532.35) rotate(-13.28)"></circle><circle class="cls-1" cx="6359.2" cy="2958.18" r="24.81" transform="translate(-425.77 1182.1) rotate(-10.28)"></circle></g><g><path class="cls-2" d="M6303.18,3032.59l257.49,148.66v297.33l-257.49,148.66-257.5-148.66v-297.33l257.5-148.66h0ZM6303.18,3617.5h0l249.04-143.79v-287.58l-249.04-143.79-249.05,143.79v287.58l249.05,143.79Z"></path><circle class="cls-1" cx="6303.18" cy="3622.37" r="24.81" transform="translate(-212.91 398.67) rotate(-3.56)"></circle><circle class="cls-1" cx="6556.45" cy="3476.14" r="24.81" transform="translate(-515.02 1225.61) rotate(-10.28)"></circle><circle class="cls-1" cx="6556.45" cy="3183.69" r="24.81" transform="translate(-556.07 1591.52) rotate(-13.28)"></circle><circle class="cls-1" cx="6303.18" cy="3037.47" r="24.81" transform="translate(-529.25 1529.43) rotate(-13.28)"></circle><path class="cls-2" d="M6049.91,3158.88c-13.7,0-24.81,11.11-24.81,24.81s11.11,24.81,24.81,24.81,24.81-11.11,24.81-24.81-11.11-24.81-24.81-24.81Z"></path><path class="cls-2" d="M6049.91,3451.33c-13.7,0-24.81,11.11-24.81,24.81s11.11,24.81,24.81,24.81,24.81-11.11,24.81-24.81-11.11-24.81-24.81-24.81Z"></path></g><g><path class="cls-2" d="M6556.44,3620.6l257.5,148.66v297.32l-257.5,148.66-257.49-148.66v-297.32l257.49-148.66h0ZM6556.44,4205.5h0l249.05-143.79v-287.57l-249.05-143.79-249.04,143.79v287.57l249.04,143.79Z"></path><circle class="cls-1" cx="6556.45" cy="4210.37" r="24.81" transform="translate(-791.95 1618.99) rotate(-13.28)"></circle><path class="cls-2" d="M6809.72,4039.33c-13.7,0-24.81,11.11-24.81,24.81s11.11,24.81,24.81,24.81,24.81-11.11,24.81-24.81-11.11-24.81-24.81-24.81Z"></path><circle class="cls-1" cx="6809.72" cy="3771.7" r="24.81"></circle><circle class="cls-1" cx="6556.45" cy="3625.47" r="24.81" transform="translate(-496.07 1097.04) rotate(-9.22)"></circle><circle class="cls-1" cx="6303.18" cy="3771.7" r="24.81" transform="translate(406.46 8151.71) rotate(-67.5)"></circle><path class="cls-2" d="M6303.18,4039.33c-13.71,0-24.81,11.11-24.81,24.81s11.11,24.81,24.81,24.81,24.81-11.11,24.81-24.81-11.11-24.81-24.81-24.81Z"></path></g><g><path class="cls-2" d="M5461.57,2343.59l257.5,148.66v297.32l-257.5,148.67-257.49-148.67v-297.32l257.49-148.66h0ZM5461.57,2928.5h0l249.05-143.79v-287.58l-249.05-143.79-249.04,143.79v287.58l249.04,143.79Z"></path><circle class="cls-1" cx="5461.57" cy="2933.37" r="24.81"></circle><path class="cls-2" d="M5714.84,2762.33c-13.71,0-24.81,11.11-24.81,24.81s11.11,24.81,24.81,24.81,24.81-11.11,24.81-24.81-11.11-24.81-24.81-24.81Z"></path><path class="cls-2" d="M5714.84,2469.88c-13.71,0-24.81,11.11-24.81,24.81s11.11,24.81,24.81,24.81,24.81-11.11,24.81-24.81-11.11-24.81-24.81-24.81Z"></path><path class="cls-2" d="M5461.57,2323.65c-13.7,0-24.81,11.11-24.81,24.82s11.11,24.81,24.81,24.81,24.81-11.11,24.81-24.81-11.11-24.82-24.81-24.82Z"></path><circle class="cls-1" cx="5208.3" cy="2494.69" r="24.81" transform="translate(-332.35 866.49) rotate(-9.22)"></circle><circle class="cls-1" cx="5208.3" cy="2787.14" r="24.81" transform="translate(-379.2 870.27) rotate(-9.22)"></circle></g><g><path class="cls-2" d="M5183.49,2861.55l257.49,148.66v297.32l-257.49,148.67-257.49-148.67v-297.32l257.49-148.66h0ZM5183.49,3446.46h0l249.05-143.79v-287.58l-249.05-143.79-249.04,143.79v287.58l249.04,143.79Z"></path><circle class="cls-1" cx="5183.49" cy="3451.33" r="24.81" transform="translate(-314.86 527.56) rotate(-5.65)"></circle><path class="cls-2" d="M5436.76,3280.29c-13.7,0-24.81,11.11-24.81,24.81s11.11,24.81,24.81,24.81,24.81-11.11,24.81-24.81-11.11-24.81-24.81-24.81Z"></path><path class="cls-2" d="M5436.76,2987.84c-13.7,0-24.81,11.11-24.81,24.81s11.11,24.81,24.81,24.81,24.81-11.11,24.81-24.81-11.11-24.81-24.81-24.81Z"></path><circle class="cls-1" cx="5183.49" cy="2866.43" r="24.81" transform="translate(551.62 6558.41) rotate(-67.5)"></circle><path class="cls-2" d="M4930.22,2987.84c-13.7,0-24.81,11.11-24.81,24.81s11.11,24.81,24.81,24.81,24.82-11.11,24.82-24.81-11.11-24.81-24.82-24.81Z"></path><path class="cls-2" d="M4930.22,3280.29c-13.7,0-24.81,11.11-24.81,24.81s11.11,24.81,24.81,24.81,24.82-11.11,24.82-24.81-11.11-24.81-24.82-24.81Z"></path></g><polygon class="cls-2" points="5501.11 2168.1 5501.11 2464.66 5244.27 2612.94 4987.44 2464.66 4987.44 2168.1 5244.27 2019.81 5501.11 2168.1"></polygon><polygon class="cls-2" points="6206.27 3670.41 6206.27 3856.22 6045.36 3949.12 5884.44 3856.22 5884.44 3670.41 6045.36 3577.5 6206.27 3670.41"></polygon><polygon class="cls-5" points="3776.17 5905.52 3776.17 6022.79 3674.61 6081.42 3573.05 6022.79 3573.05 5905.52 3674.61 5846.88 3776.17 5905.52"></polygon><polygon class="cls-5" points="5312.48 4171.75 5312.48 4502.52 5026.04 4667.9 4739.58 4502.52 4739.58 4171.75 5026.04 4006.37 5312.48 4171.75"></polygon><polygon class="cls-5" points="4516.64 3138.49 4516.64 3255.76 4415.08 3314.39 4313.52 3255.76 4313.52 3138.49 4415.08 3079.85 4516.64 3138.49"></polygon></g></svg>