<svg xmlns="http://www.w3.org/2000/svg" xmlns:xlink="http://www.w3.org/1999/xlink" id="illuminate-dark" viewBox="0 0 1596.52 671.25"><defs><style>      .cls-1 {        fill: #0b2b4a;      }      .cls-2 {        fill: #0d2b4b;      }      .cls-3 {        fill: url(#linear-gradient-2);      }      .cls-4 {        fill: #f16524;      }      .cls-5 {        fill: url(#linear-gradient-4);      }      .cls-6 {        fill: url(#linear-gradient-3);      }      .cls-7 {        fill: url(#linear-gradient-5);      }      .cls-8 {        fill: url(#New_Gradient_Swatch_2);      }      .cls-9 {        fill: url(#linear-gradient-6);      }      .cls-10 {        fill: url(#linear-gradient);      }    </style><linearGradient id="linear-gradient" x1="3321.44" y1="-3605.54" x2="3184.24" y2="-4051.72" gradientTransform="translate(-1843.97 -3671.2) scale(1 -1)" gradientUnits="userSpaceOnUse"><stop offset=".22" stop-color="#0c4d84"></stop><stop offset=".49" stop-color="#267bc0"></stop><stop offset=".77" stop-color="#5fa3d8"></stop></linearGradient><linearGradient id="linear-gradient-2" x1="3345.12" y1="-3921.69" x2="3311.53" y2="-3713.54" xlink:href="#linear-gradient"></linearGradient><linearGradient id="linear-gradient-3" x1="3417.19" y1="-4035.37" x2="2962.99" y2="-3818.3" gradientTransform="translate(-1843.97 -3671.2) scale(1 -1)" gradientUnits="userSpaceOnUse"><stop offset=".22" stop-color="#0c4d84"></stop><stop offset=".55" stop-color="#267bc0"></stop><stop offset=".89" stop-color="#5fa3d8"></stop></linearGradient><linearGradient id="linear-gradient-4" x1="3230.69" y1="-3768.29" x2="3447.68" y2="-4071.9" gradientTransform="translate(-1843.97 -3671.2) scale(1 -1)" gradientUnits="userSpaceOnUse"><stop offset=".1" stop-color="#0c4d84"></stop><stop offset=".42" stop-color="#267bc0"></stop><stop offset=".68" stop-color="#5fa3d8"></stop></linearGradient><linearGradient id="linear-gradient-5" x1="3434.32" y1="-4075.13" x2="3227.97" y2="-3741.99" gradientTransform="translate(-1843.97 -3671.2) scale(1 -1)" gradientUnits="userSpaceOnUse"><stop offset=".22" stop-color="#0c4d84"></stop><stop offset=".44" stop-color="#267bc0"></stop><stop offset=".67" stop-color="#5fa3d8"></stop></linearGradient><linearGradient id="linear-gradient-6" x1="2983.99" y1="-4113.18" x2="3082.64" y2="-3676.47" gradientTransform="translate(-1843.97 -3671.2) scale(1 -1)" gradientUnits="userSpaceOnUse"><stop offset=".26" stop-color="#0c4d84"></stop><stop offset=".5" stop-color="#267bc0"></stop><stop offset=".74" stop-color="#5fa3d8"></stop></linearGradient><linearGradient id="New_Gradient_Swatch_2" data-name="New Gradient Swatch 2" x1="3028.13" y1="-3629.26" x2="3071" y2="-3765.02" gradientTransform="translate(-1843.97 -3671.2) scale(1 -1)" gradientUnits="userSpaceOnUse"><stop offset=".22" stop-color="#e34d25"></stop><stop offset=".58" stop-color="#f26524"></stop><stop offset=".9" stop-color="#f58967"></stop></linearGradient></defs><g id="icon"><path class="cls-4" d="M1501.49,559.83v12.17c0,2.58-2.1,4.68-4.68,4.68h-37.44c-2.58,0-4.68-2.1-4.68-4.68v-12.17h46.8ZM1443.46,537.37v12.17c0,2.58,2.1,4.68,4.68,4.68h59.9c2.58,0,4.68-2.1,4.68-4.68v-12.17h-69.26ZM1455.62,428.8c-4.64,0-8.42,3.78-8.42,8.42s3.78,8.42,8.42,8.42h8.42v-8.42c0-4.64-3.78-8.42-8.42-8.42ZM1500.55,428.8c-4.64,0-8.42,3.78-8.42,8.42v8.42h8.42c4.64,0,8.42-3.78,8.42-8.42s-3.78-8.42-8.42-8.42ZM1469.66,451.26v80.49h16.85v-80.49h-16.85ZM1550.12,428.05c.49,19.84-7,38.52-21,52.52-10.41,10.45-16.4,25.42-16.4,41.11v10.07h-20.59v-80.49h8.42c7.75,0,14.04-6.29,14.04-14.04s-6.29-14.04-14.04-14.04-14.04,6.29-14.04,14.04v8.42h-16.85v-8.42c0-7.75-6.29-14.04-14.04-14.04s-14.04,6.29-14.04,14.04,6.29,14.04,14.04,14.04h8.42v80.49h-20.59v-10.15c0-15.35-6.25-30.32-17.56-42.23-12.84-13.4-19.88-31.07-19.88-49.64,0-19.95,7.97-38.52,22.42-52.26,14.45-13.74,33.47-20.74,53.46-19.69,37.4,1.91,67.35,32.76,68.21,70.27h0ZM1540.68,425.8c-1.98-31.79-27.48-57.05-59.3-58.7-1.09-.04-2.21-.07-3.29-.07-1.53,0-2.81,1.27-2.81,2.81s1.27,2.81,2.81,2.81c1.01,0,2.06.04,3.03.07,28.98,1.5,52.15,24.49,53.95,53.46.11,1.46,1.35,2.62,2.81,2.62h.19c1.53-.11,2.7-1.42,2.62-3h0Z"></path></g><g id="illuminate"><path class="cls-1" d="M40.89,581.95c-3.95,0-7.26-1.34-9.95-4.04s-4.04-6.01-4.04-9.95v-182.11c0-4.12,1.35-7.49,4.04-10.09,2.69-2.6,6.01-3.9,9.95-3.9s7.49,1.3,10.09,3.9c2.6,2.6,3.9,5.96,3.9,10.09v182.11c0,3.95-1.3,7.26-3.9,9.95-2.6,2.69-5.96,4.04-10.09,4.04Z"></path><path class="cls-1" d="M96.7,514.75v-128.1c0-8.1,6.6-14.7,14.7-14.7s14.7,6.6,14.7,14.7v128.1c0,27,14.1,37.8,34.5,37.8,8.1,0,14.4,6.6,14.4,14.7s-6.3,14.7-14.4,14.7c-39.3,0-63.9-26.4-63.9-67.2Z"></path><path class="cls-1" d="M195.4,514.75v-128.1c0-8.1,6.6-14.7,14.7-14.7s14.7,6.6,14.7,14.7v128.1c0,27,14.1,37.8,34.5,37.8,8.1,0,14.4,6.6,14.4,14.7s-6.3,14.7-14.4,14.7c-39.3,0-63.9-26.4-63.9-67.2Z"></path><path class="cls-1" d="M329.5,454.14v65.1c0,18,15.3,33,33.6,33s33.3-15,33.3-33v-65.1c0-8.4,6.6-14.7,14.7-14.7s14.7,6.3,14.7,14.7v65.1c0,34.5-28.2,62.7-62.7,62.7s-63-28.2-63-62.7v-65.1c0-8.4,6.9-14.7,14.7-14.7,8.4,0,14.7,6.3,14.7,14.7Z"></path><path class="cls-1" d="M664.6,497.95v69.3c0,8.1-6.6,14.7-14.7,14.7s-15-6.6-15-14.7v-69.3c0-16.2-12.9-29.1-28.5-29.1s-28.8,12.9-28.8,29.1v69.3c0,8.1-6.6,14.7-14.7,14.7s-14.7-6.6-14.7-14.7v-69.3c0-16.2-12.9-29.1-28.8-29.1s-28.5,12.9-28.5,29.1v69.3c0,8.1-6.6,14.7-15,14.7s-14.7-6.6-14.7-14.7v-69.3c0-32.4,26.1-58.2,58.2-58.2,17.4,0,32.7,7.5,43.5,19.5,10.8-12,26.1-19.5,43.5-19.5,32.1,0,58.2,25.8,58.2,58.2Z"></path><path class="cls-1" d="M697.59,405.54c0-9.6,7.5-17.1,17.1-17.1s16.8,7.5,16.8,17.1-7.2,17.4-16.8,17.4-17.1-8.1-17.1-17.4ZM699.99,567.25v-112.8c0-8.1,6.3-14.7,14.4-14.7s15,6.6,15,14.7v112.8c0,8.1-6.9,14.7-15,14.7s-14.4-6.6-14.4-14.7Z"></path><path class="cls-1" d="M763.3,567.25v-65.1c0-34.5,28.2-62.7,63-62.7s62.7,28.2,62.7,62.7v65.1c0,8.1-6.6,14.7-14.7,14.7s-14.7-6.6-14.7-14.7v-65.1c0-18.3-15-33.3-33.3-33.3s-33.6,15-33.6,33.3v65.1c0,8.1-6.3,14.7-14.7,14.7-7.8,0-14.7-6.6-14.7-14.7Z"></path><path class="cls-1" d="M1058.79,512.65v55.5c0,8.1-6,14.4-13.2,14.4-7.8,0-13.5-6.3-13.5-14.4v-5.4c-11.7,11.7-26.7,20.1-44.4,20.1-39.6,0-71.4-31.8-71.4-71.4s31.8-71.1,71.4-71.1,71.1,32.1,71.1,71.1v1.2ZM1029.69,511.45c0-23.1-18.9-42-42-42s-42.3,18.9-42.3,42,19.2,42.3,42.3,42.3,42-18.9,42-42.3Z"></path><path class="cls-1" d="M1178.79,567.25c0,8.1-6.6,14.7-14.7,14.7h-4.2c-32.1,0-67.8-21-67.8-72v-123.6c0-7.8,6.6-14.4,14.7-14.4s14.7,6.6,14.7,14.4v54h36.3c7.5,0,13.5,6,13.5,13.5s-6,13.8-13.5,13.8h-36.3v42.3c0,24.6,13.8,42.6,38.4,42.6l4.2.3c8.1,0,14.7,6.3,14.7,14.4Z"></path><path class="cls-1" d="M1319.19,520.75l-95.1.3c3.9,18.3,18.9,30.6,39.3,33,12.9,1.5,28.5.6,44.1-11.1,7.2-2.4,15.3-1.8,18.3,5.1,3,7.2-1.2,14.4-8.1,18.3-12.6,11.4-31.8,17.7-58.5,15.3-38.7-4.2-65.1-34.5-65.1-71.1,0-39.3,31.8-71.1,70.8-71.1s68.4,29.4,68.4,67.2c0,6.9-5.4,12.6-12,13.8-.6.3-1.5.3-2.1.3ZM1223.79,500.35l80.1-.3c-2.7-19.8-18.3-33.6-39-33.6s-36.9,12.9-41.1,33.9Z"></path></g><g id="mosaIQ"><g id="mosa"><path class="cls-2" d="M400.08,102.26c-21.28-21.28-49.13-32.41-79.01-32.41s-58.24,13.17-79.52,34.44c-4.05,4.05-7.59,8.11-11.15,12.66-3.04-4.56-6.59-8.61-10.63-12.66-21.26-21.28-49.63-34.44-79.52-34.44-24.82,0-48.63,11.65-68.37,26.85,0,0-39.86,32.54-43.56,81.95v127.73h43.56v-124.59c0-37.98,30.89-69.39,68.37-69.39s68.37,31.4,68.37,69.39v124.59h43.56v-124.59c0-37.98,30.89-69.39,68.88-69.39s68.37,31.4,68.37,69.39v124.59h43.56v-124.59c0-30.39-11.65-58.24-32.92-79.52h0Z"></path><path class="cls-2" d="M663.81,104.29c-22.79-22.79-53.18-34.96-85.59-34.96s-62.81,12.15-86.11,34.96c-22.79,23.3-35.46,53.7-35.46,86.11s12.66,62.81,35.46,86.11c23.3,22.79,53.7,35.46,86.11,35.46s62.81-12.66,85.59-35.46c23.3-23.3,35.96-53.7,35.96-86.11s-12.66-62.81-35.96-86.11h0ZM578.21,268.4c-43.05,0-78-34.96-78-78s34.96-77.5,78-77.5,78,34.44,78,77.5-34.96,78-78,78Z"></path><path class="cls-2" d="M1095.77,101.24c-20.75-19.43-49.13-31.91-78-31.91-32.41,0-62.81,12.15-86.11,34.96-22.79,23.3-35.46,53.7-35.46,86.11s12.66,62.81,35.46,86.11c23.3,22.79,53.7,34.96,86.11,34.96,28.87,0,56.22-13.67,78-31.91v26.85h43.56v-107.12c0-51.92-26.86-82.41-43.56-98.01v-.02ZM1017.77,268.9c-43.05,0-78-35.46-78-78.5s34.96-78.5,78-78.5,78,35.46,78,78.5-34.96,78.5-78,78.5Z"></path><path class="cls-2" d="M876.21,201.03c-5.57-7.09-10.63-12.66-24.31-19.76-11.65-6.59-53.18-15.7-53.7-15.7-30.89-6.59-43.03-14.69-43.03-29.89,0-9.11,6.56-18.24,16.69-23.3,7.09-3.54,15.7-5.07,24.82-5.07,9.63,0,29.37,2.52,52.17,20.26l25.33-29.37c-18.24-14.69-40.02-24.31-62.31-27.85-5.57-.5-11.65-1.02-17.22-1.02-14.69,0-27.85,3.04-40.02,8.61-13.17,6.08-22.25,13.17-28.87,22.28-7.09,10.63-11.15,22.79-11.15,35.46,0,23.3,11.15,42.04,32.41,54.2,14.18,8.11,52.68,15.2,54.2,15.7,31.4,5.57,45.09,15.2,45.09,30.89s-11.65,23.3-18.24,26.33c-8.11,3.54-17.22,5.57-26.85,5.57-14.18,0-36.98-4.56-63.79-27.35l-27.38,29.89c20.29,17.22,44.07,28.37,69.39,33.43,8.11,1.52,15.7,2.52,23.81,2.52,14.69,0,29.37-3.04,41.53-8.61,13.67-6.59,23.81-14.69,30.89-25.33,7.59-10.63,11.15-23.3,11.15-36.46s-3.54-25.33-10.63-35.46l.02.02Z"></path></g><g id="iq"><g><path class="cls-10" d="M1554.8,97.45c-7.7-19.23-19.23-35.91-34.19-50.86-14.54-14.54-31.63-26.08-50.42-34.19-19.68-8.12-40.62-12.4-61.98-12.4-87.63,0-159.02,71.39-159.02,159.42s71.39,158.56,159.02,158.56c17.92,0,35.88-3,52.97-8.97,4.69-1.68,9.35-3.54,13.88-5.65l-43.99-44.16c1.65-.53,3.32-1.14,4.97-1.74-1.74.53-3.51.99-5.32,1.4-7.37,1.8-14.95,2.73-22.52,2.73-55.99,0-101.73-45.73-101.73-102.15s45.73-102.56,101.73-102.56h.2c1.68,0,3.34.05,5.02.13,1.68.08,3.34.2,4.99.38,1.68.16,3.29.36,4.91.61h.03c1.52.24,3.04.49,4.53.78h.03c46.62,9.3,82,50.67,82,100.66,0,7.54-.83,15.09-2.46,22.39l.17.17v.03l44.24,44.55c-.25.91-.53,1.82-.86,2.71.41-.78.78-1.6,1.16-2.4,2.26-4.78,4.28-9.75,6.02-14.87,6.41-16.67,9.42-34.63,9.42-52.57,0-21.37-4.28-42.31-12.84-61.98l.02-.05Z"></path><path class="cls-3" d="M1408.43,56.85c1.68,0,3.34.05,5.02.13,1.68.08,3.34.2,4.99.38,1.68.16,3.29.36,4.91.61h.03c1.52.24,3.04.49,4.53.78h.03c46.75,9.14,82.24,50.61,82.24,100.66,0,7.59-.83,15.2-2.51,22.57v.03l44.24,44.55c16.61-57.58-51.66-175.22-143.46-169.7l-.02-.02ZM1550.52,230.72c.17-.49.36-.96.5-1.44-.2.45-.42.89-.63,1.32l.13.13Z"></path><path class="cls-6" d="M1431.1,259.19c-83.77,28.13-166.76-22.03-181.88-99.79,0,87.62,71.39,158.56,159.02,158.56,17.92,0,35.88-3,52.97-8.97,4.69-1.68,9.35-3.54,13.88-5.65l-43.99-44.16h0Z"></path><polygon class="cls-5" points="1421.03 131.64 1596.52 307.12 1516.15 307.12 1380.43 171.81 1421.03 131.64"></polygon><polygon class="cls-7" points="1516.15 307.12 1596.52 307.12 1537.76 248.36 1380.43 171.81 1516.15 307.12"></polygon><path class="cls-2" d="M1436.06,257.45c-1.65.61-3.32,1.22-4.97,1.74l-.36-.36c1.8-.41,3.58-.86,5.32-1.4l.02.02Z"></path><path class="cls-2" d="M1550.4,230.59c.2-.42.42-.86.63-1.32-.16.49-.33.96-.5,1.44l-.13-.13Z"></path><path class="cls-2" d="M1552.2,226.86c-.38.82-.75,1.62-1.16,2.4.33-.89.61-1.8.86-2.71l.3.3v.02Z"></path></g><g><path class="cls-9" d="M1169.95,39.53v267.87h61.46V101.17l-61.46-61.65v.02Z"></path><path class="cls-8" d="M1167.97,3.7l61.19,61.62V3.7h-61.19Z"></path></g></g></g></svg>