<svg xmlns="http://www.w3.org/2000/svg" xmlns:xlink="http://www.w3.org/1999/xlink" id="iQ-light" viewBox="0 0 1047.71 777.42"><defs><style>      .cls-1 {        fill: url(#linear-gradient-2);      }      .cls-2 {        fill: url(#linear-gradient-4);      }      .cls-3 {        fill: #d1e9f6;      }      .cls-4 {        fill: url(#linear-gradient-3);      }      .cls-5 {        fill: url(#linear-gradient-5);      }      .cls-6 {        fill: url(#linear-gradient-7);      }      .cls-7 {        fill: url(#linear-gradient-6);      }      .cls-8 {        fill: url(#linear-gradient);      }    </style><linearGradient id="linear-gradient" x1="2600.63" y1="-7031.81" x2="2265.2" y2="-8122.66" gradientTransform="translate(-1843.97 -7192.34) scale(1 -1)" gradientUnits="userSpaceOnUse"><stop offset=".22" stop-color="#5fa3d8"></stop><stop offset=".49" stop-color="#267bc0"></stop><stop offset=".77" stop-color="#0c4d84"></stop></linearGradient><linearGradient id="linear-gradient-2" x1="2658.53" y1="-7804.75" x2="2576.41" y2="-7295.86" xlink:href="#linear-gradient"></linearGradient><linearGradient id="linear-gradient-3" x1="2834.72" y1="-8082.69" x2="1724.29" y2="-7551.99" gradientTransform="translate(-1843.97 -7192.34) scale(1 -1)" gradientUnits="userSpaceOnUse"><stop offset=".22" stop-color="#5fa3d8"></stop><stop offset=".55" stop-color="#267bc0"></stop><stop offset=".89" stop-color="#0c4d84"></stop></linearGradient><linearGradient id="linear-gradient-4" x1="2378.76" y1="-7429.71" x2="2909.27" y2="-8171.97" gradientTransform="translate(-1843.97 -7192.34) scale(1 -1)" gradientUnits="userSpaceOnUse"><stop offset=".1" stop-color="#5fa3d8"></stop><stop offset=".42" stop-color="#267bc0"></stop><stop offset=".68" stop-color="#0c4d84"></stop></linearGradient><linearGradient id="linear-gradient-5" x1="2876.59" y1="-8179.88" x2="2372.12" y2="-7365.42" gradientTransform="translate(-1843.97 -7192.34) scale(1 -1)" gradientUnits="userSpaceOnUse"><stop offset=".22" stop-color="#5fa3d8"></stop><stop offset=".44" stop-color="#267bc0"></stop><stop offset=".67" stop-color="#0c4d84"></stop></linearGradient><linearGradient id="linear-gradient-6" x1="1775.63" y1="-8272.91" x2="2016.82" y2="-7205.22" gradientTransform="translate(-1843.97 -7192.34) scale(1 -1)" gradientUnits="userSpaceOnUse"><stop offset=".26" stop-color="#5fa3d8"></stop><stop offset=".5" stop-color="#267bc0"></stop><stop offset=".74" stop-color="#0c4d84"></stop></linearGradient><linearGradient id="linear-gradient-7" x1="1883.54" y1="-7089.82" x2="1988.36" y2="-7421.73" gradientTransform="translate(-1843.97 -7192.34) scale(1 -1)" gradientUnits="userSpaceOnUse"><stop offset=".1" stop-color="#f58967"></stop><stop offset=".42" stop-color="#f26524"></stop><stop offset=".78" stop-color="#e34d25"></stop></linearGradient></defs><g id="iQ"><g><path class="cls-8" d="M945.73,238.24c-18.82-47-47-87.8-83.58-124.34-35.54-35.54-77.33-63.76-123.26-83.58C690.77,10.47,639.59,0,587.37,0,373.12,0,198.6,174.52,198.6,389.76s174.52,387.65,388.77,387.65c43.82,0,87.72-7.32,129.51-21.93,11.46-4.1,22.85-8.66,33.93-13.8l-107.54-107.96c4.03-1.3,8.13-2.8,12.15-4.26-4.26,1.3-8.59,2.42-13,3.41-18.02,4.41-36.54,6.67-55.06,6.67-136.87,0-248.71-111.8-248.71-249.75s111.8-250.74,248.71-250.74h.5c4.1,0,8.17.12,12.27.31,4.1.19,8.17.5,12.19.92,4.1.38,8.05.88,12,1.5h.08c3.72.58,7.44,1.19,11.08,1.92h.08c113.98,22.74,200.48,123.88,200.48,246.1,0,18.44-2.03,36.88-6.02,54.75l.42.42v.08l108.16,108.92c-.61,2.22-1.3,4.45-2.11,6.63,1-1.92,1.92-3.91,2.84-5.87,5.52-11.69,10.47-23.85,14.72-36.35,15.68-40.76,23.04-84.65,23.04-128.52,0-52.26-10.47-103.44-31.4-151.52l.04-.11Z"></path><path class="cls-1" d="M587.86,138.98c4.1,0,8.17.12,12.27.31,4.1.19,8.17.5,12.19.92,4.1.38,8.05.88,12,1.5h.08c3.72.58,7.44,1.19,11.08,1.92h.08c114.29,22.35,201.05,123.72,201.05,246.1,0,18.56-2.03,37.15-6.13,55.17v.08l108.16,108.92c40.6-140.78-126.29-428.37-350.73-414.88l-.04-.04ZM935.26,564.06c.42-1.19.88-2.34,1.23-3.53-.5,1.11-1.04,2.19-1.53,3.22l.31.31Z"></path><path class="cls-4" d="M643.3,633.68c-204.81,68.78-407.71-53.87-444.67-243.96,0,214.2,174.52,387.65,388.77,387.65,43.82,0,87.72-7.32,129.51-21.93,11.46-4.1,22.85-8.66,33.93-13.8l-107.54-107.96h0Z"></path><polygon class="cls-2" points="618.69 321.82 1047.71 750.85 851.22 750.85 519.43 420.05 618.69 321.82"></polygon><polygon class="cls-5" points="851.22 750.85 1047.71 750.85 904.05 607.19 519.43 420.05 851.22 750.85"></polygon><path class="cls-3" d="M655.42,629.42c-4.03,1.5-8.13,2.99-12.15,4.26l-.88-.88c4.41-1,8.74-2.11,13-3.41l.04.04Z"></path><path class="cls-3" d="M934.96,563.75c.5-1.04,1.04-2.11,1.53-3.22-.38,1.19-.81,2.34-1.23,3.53l-.31-.31Z"></path><path class="cls-3" d="M939.36,554.62c-.92,1.99-1.84,3.95-2.84,5.87.81-2.19,1.5-4.41,2.11-6.63l.73.73v.04Z"></path></g><g><path class="cls-7" d="M4.83,96.65v654.88h150.25V247.33L4.83,96.62v.04Z"></path><path class="cls-6" d="M0,9.05l149.6,150.64V9.05H0Z"></path></g></g></svg>