<svg xmlns="http://www.w3.org/2000/svg" xmlns:xlink="http://www.w3.org/1999/xlink" id="Layer_2" data-name="Layer 2" viewBox="0 0 1616.52 509.2"><defs><style>      .cls-1 {        fill: url(#linear-gradient-2);      }      .cls-2 {        fill: #20386e;      }      .cls-3 {        fill: url(#linear-gradient-3);      }      .cls-4 {        fill: #b4c3cb;      }      .cls-5 {        fill: url(#linear-gradient);      }    </style><linearGradient id="linear-gradient" x1="18.63" y1="160.11" x2="429.36" y2="-70.58" gradientTransform="translate(-143.04 274)" gradientUnits="userSpaceOnUse"><stop offset=".44" stop-color="#1a2e59"></stop><stop offset=".5" stop-color="#21355f"></stop><stop offset=".59" stop-color="#364b71"></stop><stop offset=".7" stop-color="#586e8f"></stop><stop offset=".83" stop-color="#889eb8"></stop><stop offset=".97" stop-color="#c3dcec"></stop><stop offset="1" stop-color="#d4edfa"></stop></linearGradient><linearGradient id="linear-gradient-2" x1="14687.09" y1="7365.75" x2="15097.82" y2="7135.06" gradientTransform="translate(14095.36 -9159.84) rotate(120)" xlink:href="#linear-gradient"></linearGradient><linearGradient id="linear-gradient-3" x1="13480.34" y1="-7509.49" x2="13891.08" y2="-7740.18" gradientTransform="translate(13850.52 8506.31) rotate(-120)" xlink:href="#linear-gradient"></linearGradient></defs><g id="lexshift-horiz-dark"><g><g><path class="cls-2" d="M654.04,363.28v66.81h40.74v5.91h-47.66v-72.72h6.93Z"></path><path class="cls-2" d="M741.99,363.28l28.52,72.72h-7.44l-8.86-22.61h-33.1l-8.76,22.61h-7.33l29.23-72.72h7.74ZM751.87,407.48l-14.05-37.28-14.56,37.28h28.62Z"></path><path class="cls-2" d="M779.15,363.28l16.5,63.65h.2l17.72-63.65h8.66l17.82,63.65h.21l16.6-63.65h6.93l-20.06,72.72h-7.33l-18.43-65.08h-.21l-18.33,65.08h-7.54l-20.17-72.72h7.43Z"></path><path class="cls-2" d="M873.39,425.2h8.56v10.79h-8.56v-10.79Z"></path><path class="cls-2" d="M977.89,363.28c2.99,0,5.82.37,8.5,1.12,2.68.75,5.03,1.88,7.03,3.41s3.6,3.5,4.79,5.91c1.19,2.41,1.78,5.25,1.78,8.5,0,4.62-1.19,8.62-3.56,12.02-2.38,3.4-5.91,5.57-10.59,6.52v.2c2.38.34,4.34.97,5.91,1.88,1.56.92,2.83,2.09,3.82,3.51s1.7,3.07,2.14,4.94c.44,1.87.73,3.89.87,6.06.07,1.22.13,2.72.2,4.48.07,1.77.2,3.55.41,5.35.2,1.8.52,3.5.97,5.09.44,1.6,1.04,2.84,1.78,3.72h-7.64c-.41-.68-.73-1.51-.97-2.49s-.41-2-.51-3.06c-.1-1.05-.19-2.09-.26-3.11-.07-1.02-.14-1.9-.2-2.65-.14-2.58-.36-5.14-.66-7.69-.31-2.55-.95-4.82-1.94-6.82-.98-2-2.41-3.62-4.28-4.84s-4.43-1.76-7.69-1.63h-26.28v32.29h-6.93v-72.72h33.3ZM977.38,397.8c2.1,0,4.11-.32,6.01-.97,1.9-.64,3.56-1.58,4.99-2.8,1.43-1.22,2.56-2.7,3.41-4.43.85-1.73,1.27-3.72,1.27-5.96,0-4.48-1.29-8.01-3.87-10.59-2.58-2.58-6.52-3.87-11.81-3.87h-25.87v28.62h25.87Z"></path><path class="cls-2" d="M1069.37,363.28v5.91h-43.28v26.28h40.53v5.91h-40.53v28.72h43.79v5.91h-50.72v-72.72h50.21Z"></path><path class="cls-2" d="M1092.09,363.28v72.72h-6.93v-72.72h6.93Z"></path><path class="cls-2" d="M1121.08,363.28l42.37,61.51h.2v-61.51h6.93v72.72h-7.74l-42.37-61.51h-.2v61.51h-6.93v-72.72h7.74Z"></path><path class="cls-2" d="M1191.55,363.28l23.63,65.08h.2l23.42-65.08h7.33l-26.99,72.72h-8.04l-26.89-72.72h7.33Z"></path><path class="cls-2" d="M1309.94,363.28v5.91h-43.28v26.28h40.53v5.91h-40.53v28.72h43.79v5.91h-50.72v-72.72h50.21Z"></path><path class="cls-2" d="M1333.21,363.28l42.37,61.51h.2v-61.51h6.93v72.72h-7.74l-42.37-61.51h-.21v61.51h-6.92v-72.72h7.74Z"></path><path class="cls-2" d="M1453.98,363.28v5.91h-25.36v66.81h-6.93v-66.81h-25.26v-5.91h57.54Z"></path><path class="cls-2" d="M1517.97,363.28v5.91h-43.28v26.28h40.53v5.91h-40.53v28.72h43.79v5.91h-50.72v-72.72h50.21Z"></path><path class="cls-2" d="M1558.7,363.28c11.07.27,19.4,3.38,25,9.32s8.4,14.96,8.4,27.04-2.8,21.1-8.4,27.04c-5.6,5.94-13.94,9.05-25,9.32h-25.16v-72.72h25.16ZM1555.24,430.09c5.23,0,9.73-.56,13.49-1.68s6.88-2.9,9.32-5.35,4.24-5.6,5.4-9.47c1.15-3.87,1.73-8.52,1.73-13.95s-.58-10.08-1.73-13.95c-1.16-3.87-2.95-7.03-5.4-9.47-2.44-2.44-5.55-4.23-9.32-5.35-3.77-1.12-8.27-1.68-13.49-1.68h-14.77v60.9h14.77Z"></path><path class="cls-2" d="M1607.96,425.2h8.56v10.79h-8.56v-10.79Z"></path></g><g><path class="cls-2" d="M803.38,292.1c-12.26,0-23.24-2.11-32.92-6.33-9.69-4.22-18.09-10.01-25.21-17.37-7.12-7.36-12.6-15.8-16.46-25.31-3.85-9.52-5.78-19.57-5.78-30.17,0-14.66,3.36-28.06,10.08-40.18,6.72-12.12,16.16-21.8,28.32-29.04,12.16-7.23,26.14-10.85,41.97-10.85s30.5,3.67,42.26,11.02c11.76,7.34,20.91,16.98,27.43,28.93,6.53,11.94,9.79,24.76,9.79,38.47,0,2.35-.1,4.56-.3,6.61-.2,2.06-.4,3.67-.59,4.84h-124.56c.99,9.17,3.66,17.13,8.01,23.86,4.35,6.73,9.98,12,16.9,15.81,6.92,3.81,14.24,5.71,21.95,5.71,8.9,0,17.25-2.17,25.06-6.53,7.81-4.35,13.1-10.08,15.87-17.2l27.88,8.01c-3.36,7.52-8.5,14.29-15.42,20.31-6.92,6.03-14.98,10.78-24.17,14.24-9.19,3.46-19.23,5.19-30.1,5.19ZM756.82,201.34h93.72c-.79-8.91-3.31-16.67-7.56-23.26-4.25-6.59-9.84-11.78-16.76-15.56-6.92-3.78-14.44-5.67-22.54-5.67s-15.87,1.89-22.69,5.67c-6.82,3.78-12.41,8.97-16.76,15.56-4.35,6.59-6.82,14.34-7.41,23.26Z"></path><path class="cls-2" d="M1087.83,292.1c-13.05,0-25.41-2.18-37.07-6.52-11.67-4.35-21.65-10.77-29.95-19.28l11.86-21.65c9.09,7.71,18.14,13.4,27.14,17.05,8.99,3.66,17.94,5.49,26.84,5.49s16.76-1.69,22.39-5.08c5.64-3.39,8.45-8.37,8.45-14.96,0-4.89-1.53-8.52-4.6-10.87-3.07-2.35-7.41-4.41-13.05-6.17-5.63-1.76-12.31-3.72-20.02-5.88-10.88-3.33-20.12-6.81-27.73-10.43-7.61-3.62-13.3-8.08-17.05-13.37-3.76-5.29-5.64-12.04-5.64-20.27,0-9.79,2.57-18.22,7.71-25.27,5.14-7.05,12.31-12.49,21.5-16.31,9.19-3.82,19.82-5.73,31.88-5.73,11.27,0,21.7,1.73,31.29,5.19,9.59,3.46,18.04,8.85,25.36,16.16l-13.94,21.35c-6.72-6.13-13.74-10.68-21.06-13.64-7.32-2.96-15.13-4.45-23.43-4.45-4.55,0-9.05.54-13.49,1.61-4.45,1.08-8.16,3.03-11.12,5.87-2.97,2.84-4.45,6.8-4.45,11.88,0,4.3,1.23,7.68,3.71,10.12,2.47,2.45,6.08,4.55,10.83,6.31,4.75,1.76,10.57,3.72,17.5,5.87,12.06,3.33,22.34,6.75,30.84,10.27,8.5,3.52,15.07,7.97,19.72,13.35,4.64,5.38,6.97,12.76,6.97,22.14,0,14.67-5.59,26.21-16.76,34.62-11.17,8.41-26.05,12.61-44.64,12.61Z"></path><path class="cls-2" d="M1314.61,289.13h-32.33v-85.9c0-13.87-2.62-24.24-7.86-31.08-5.24-6.84-12.51-10.26-21.8-10.26-5.93,0-11.91,1.56-17.94,4.67-6.03,3.11-11.37,7.34-16.02,12.69-4.65,5.35-8.15,11.52-10.53,18.51v91.37h-32.62V72.63h32.62v93.4c5.93-10.38,14.04-18.51,24.32-24.38,10.28-5.88,21.35-8.81,33.22-8.81,9.88,0,17.94,1.67,24.17,5,6.23,3.33,11.17,7.89,14.83,13.66,3.66,5.78,6.23,12.39,7.71,19.83,1.48,7.44,2.22,15.47,2.22,24.09v93.72Z"></path><g><rect class="cls-2" x="1347.72" y="138.17" width="32.62" height="150.96"></rect><rect class="cls-2" x="1347.72" y="72.62" width="32.62" height="32.62"></rect></g><path class="cls-2" d="M680.1,91.28l.28,125.56c-.02,32.95,10.99,40.74,39.88,42.05v30.14c-48.17.1-71.38-21.47-72.48-58.88v-6.52s-.31-132.29-.31-132.29l32.62-.06Z"></path><path class="cls-2" d="M1428.86,131.49v6.52s-.01.16-.01.16h-20.63v24.91h20.58l-.25,125.89h.43v.16h32.62v-126.04h39.74v-24.91h-39.71c1.47-27.37,12.87-34.2,39.71-35.41v-30.13h0c-48.17-.11-71.38,21.46-72.48,58.86Z"></path><path class="cls-2" d="M1593.18,286.52c-4.35,1.68-7.61,2.61-12.75,3.8-5.14,1.19-10.48,1.78-16.02,1.78-6.72,0-12.95-1.23-18.68-3.69-5.74-2.46-10.33-6.25-13.79-11.37-3.46-5.12-5.19-11.71-5.19-19.78v-94.17h-8.4v-24.91h8.4v-28.17s32.62,0,32.62,0v28.17h33.81v24.91h-33.81v83.43c.39,5.31,2.12,9.24,5.19,11.79,3.06,2.56,6.87,3.88,11.42,3.83,6.68-.08,12.28-2.07,17.2-4.17v28.54Z"></path><path class="cls-2" d="M915.82,136.4l31.64,50.87,30.46-50.87,37.5.02s-31.73,53.95-45.59,77.45c-1.08,1.82-1.07,3.53.03,5.39,12.21,20.63,42.24,71.54,42.24,71.54l-36.67.02-27.66-45.4-27.78,45.41-37.17-.02s29.79-50.5,42.26-71.6c1.07-1.81,1.08-3.49.03-5.28-13.74-23.29-45.62-77.5-45.62-77.5l36.32-.02Z"></path><g><path class="cls-4" d="M947.47,187.27l30.46-50.87,37.5.02s-31.73,53.95-45.59,77.45c-1.02,1.72-1.05,3.35-.12,5.09l-22.24-31.69Z"></path><path class="cls-4" d="M969.87,219.26c12.21,20.63,42.24,71.54,42.24,71.54l-36.67.02-27.66-45.4,21.79-31.03c-.79,1.63-.7,3.2.3,4.88Z"></path></g></g><g><path class="cls-5" d="M237.42,0c-50.12,108.56-78.42,208.28-69.75,366.19,99.81.51,119.82,1.19,234.63,1.19-75.22,49.03-191.05,104.34-352,122.69-17.04-29.51-34.72-60.13-50.29-87.11C38.97,287.25,153.07,104.85,237.42,0Z"></path><path class="cls-1" d="M568.27,407.09c-62.59-84.56-151.42-173.35-282.26-243.5-50.34,86.18-60.94,103.17-118.35,202.6C163.15,253.11,164.97,150.97,237.42,0c34.08,0,69.43,0,100.59,0,80.73,91.61,181.64,281.61,230.27,407.09Z"></path><path class="cls-3" d="M50.29,490.07c104.53-11.93,225.84-44.46,352-122.69-49.47-86.69-58.88-104.37-116.28-203.79,92.44,51.22,177.79,107.39,282.26,243.5-17.04,29.51-34.72,60.13-50.29,87.11-119.7,24.11-334.7,16.5-467.69-4.13Z"></path></g></g></g></svg>