<svg xmlns="http://www.w3.org/2000/svg" xmlns:xlink="http://www.w3.org/1999/xlink" id="Layer_2" data-name="Layer 2" viewBox="0 0 929.98 833.3"><defs><style>      .cls-1 {        fill: url(#linear-gradient-2);      }      .cls-2 {        fill: url(#linear-gradient-3);      }      .cls-3 {        fill: url(#linear-gradient);      }    </style><linearGradient id="linear-gradient" x1="-60.56" y1="436.43" x2="611.61" y2="58.9" gradientTransform="translate(-143.04 274)" gradientUnits="userSpaceOnUse"><stop offset=".44" stop-color="#bfd5dd"></stop><stop offset=".5" stop-color="#b7cdd7"></stop><stop offset=".61" stop-color="#a1b8c8"></stop><stop offset=".73" stop-color="#7e95b0"></stop><stop offset=".88" stop-color="#4e668e"></stop><stop offset="1" stop-color="#20386e"></stop></linearGradient><linearGradient id="linear-gradient-2" x1="9746.7" y1="5119.02" x2="10418.87" y2="4741.5" gradientTransform="translate(9916.79 -6083.2) rotate(120)" xlink:href="#linear-gradient"></linearGradient><linearGradient id="linear-gradient-3" x1="8785.17" y1="-4285.02" x2="9457.35" y2="-4662.54" gradientTransform="translate(9096.79 6425.88) rotate(-120)" xlink:href="#linear-gradient"></linearGradient></defs><g id="lexshift-vert-light"><g><path class="cls-3" d="M388.53,0c-82.02,177.66-128.33,340.85-114.14,599.27,163.34.83,196.09,1.95,383.97,1.95-123.1,80.25-312.65,170.75-576.06,200.79-27.88-48.3-56.81-98.41-82.3-142.55C63.78,470.08,250.49,171.59,388.53,0Z"></path><path class="cls-1" d="M929.98,666.21c-102.44-138.39-247.8-283.69-461.91-398.49-82.39,141.04-99.73,168.84-193.67,331.55C266.99,414.22,269.98,247.06,388.53,0c55.77,0,113.63,0,164.61,0,132.11,149.92,297.25,460.86,376.84,666.21Z"></path><path class="cls-2" d="M82.3,802.01c171.07-19.52,369.59-72.75,576.06-200.79-80.95-141.87-96.36-170.79-190.3-333.5,151.29,83.82,290.96,175.74,461.91,398.49-27.88,48.3-56.81,98.41-82.3,142.55-195.89,39.45-547.75,27-765.37-6.75Z"></path></g></g></svg>