<svg xmlns="http://www.w3.org/2000/svg" xmlns:xlink="http://www.w3.org/1999/xlink" id="mosaIQ-dark" viewBox="0 0 1975.21 400.51"><defs><style>      .cls-1 {        fill: #0d2b4b;      }      .cls-2 {        fill: url(#linear-gradient-2);      }      .cls-3 {        fill: url(#linear-gradient-4);      }      .cls-4 {        fill: url(#linear-gradient-3);      }      .cls-5 {        fill: url(#linear-gradient-5);      }      .cls-6 {        fill: url(#linear-gradient-7);      }      .cls-7 {        fill: url(#linear-gradient-6);      }      .cls-8 {        fill: url(#linear-gradient);      }    </style><linearGradient id="linear-gradient" x1="3669.24" y1="-2307.47" x2="3496.43" y2="-2869.45" gradientTransform="translate(-1843.97 -2390.17) scale(1 -1)" gradientUnits="userSpaceOnUse"><stop offset=".22" stop-color="#0c4d84"></stop><stop offset=".49" stop-color="#267bc0"></stop><stop offset=".77" stop-color="#5fa3d8"></stop></linearGradient><linearGradient id="linear-gradient-2" x1="3699.07" y1="-2705.67" x2="3656.76" y2="-2443.5" xlink:href="#linear-gradient"></linearGradient><linearGradient id="linear-gradient-3" x1="3789.84" y1="-2848.86" x2="3217.76" y2="-2575.45" gradientTransform="translate(-1843.97 -2390.17) scale(1 -1)" gradientUnits="userSpaceOnUse"><stop offset=".22" stop-color="#0c4d84"></stop><stop offset=".55" stop-color="#267bc0"></stop><stop offset=".89" stop-color="#5fa3d8"></stop></linearGradient><linearGradient id="linear-gradient-4" x1="3554.93" y1="-2512.46" x2="3828.25" y2="-2894.86" gradientTransform="translate(-1843.97 -2390.17) scale(1 -1)" gradientUnits="userSpaceOnUse"><stop offset=".1" stop-color="#0c4d84"></stop><stop offset=".42" stop-color="#267bc0"></stop><stop offset=".68" stop-color="#5fa3d8"></stop></linearGradient><linearGradient id="linear-gradient-5" x1="3811.41" y1="-2898.93" x2="3551.51" y2="-2479.34" gradientTransform="translate(-1843.97 -2390.17) scale(1 -1)" gradientUnits="userSpaceOnUse"><stop offset=".22" stop-color="#0c4d84"></stop><stop offset=".44" stop-color="#267bc0"></stop><stop offset=".67" stop-color="#5fa3d8"></stop></linearGradient><linearGradient id="linear-gradient-6" x1="3244.21" y1="-2946.86" x2="3368.47" y2="-2396.8" gradientTransform="translate(-1843.97 -2390.17) scale(1 -1)" gradientUnits="userSpaceOnUse"><stop offset=".26" stop-color="#0c4d84"></stop><stop offset=".5" stop-color="#267bc0"></stop><stop offset=".74" stop-color="#5fa3d8"></stop></linearGradient><linearGradient id="linear-gradient-7" x1="3299.8" y1="-2337.35" x2="3353.8" y2="-2508.35" gradientTransform="translate(-1843.97 -2390.17) scale(1 -1)" gradientUnits="userSpaceOnUse"><stop offset=".22" stop-color="#e34d25"></stop><stop offset=".58" stop-color="#f26524"></stop><stop offset=".9" stop-color="#f58967"></stop></linearGradient></defs><g id="mosa"><path class="cls-1" d="M468.26,128.8c-26.8-26.8-61.88-40.83-99.51-40.83s-73.36,16.59-100.16,43.38c-5.1,5.1-9.56,10.21-14.04,15.94-3.83-5.75-8.3-10.84-13.39-15.94-26.78-26.8-62.52-43.38-100.16-43.38-31.27,0-61.25,14.68-86.12,33.82,0,0-50.21,40.99-54.87,103.22v160.88h54.87v-156.93c0-47.84,38.91-87.4,86.12-87.4s86.12,39.54,86.12,87.4v156.93h54.87v-156.93c0-47.84,38.91-87.4,86.75-87.4s86.12,39.54,86.12,87.4v156.93h54.87v-156.93c0-38.28-14.68-73.36-41.46-100.16h0Z"></path><path class="cls-1" d="M800.44,131.35c-28.7-28.7-66.98-44.03-107.81-44.03s-79.11,15.31-108.46,44.03c-28.7,29.35-44.66,67.63-44.66,108.46s15.94,79.11,44.66,108.46c29.35,28.7,67.63,44.66,108.46,44.66s79.11-15.94,107.81-44.66c29.35-29.35,45.29-67.63,45.29-108.46s-15.94-79.11-45.29-108.46h0ZM692.63,338.06c-54.22,0-98.25-44.03-98.25-98.25s44.03-97.62,98.25-97.62,98.25,43.38,98.25,97.62-44.03,98.25-98.25,98.25Z"></path><path class="cls-1" d="M1344.51,127.52c-26.13-24.47-61.88-40.2-98.25-40.2-40.83,0-79.11,15.31-108.46,44.03-28.7,29.35-44.66,67.63-44.66,108.46s15.94,79.11,44.66,108.46c29.35,28.7,67.63,44.03,108.46,44.03,36.36,0,70.81-17.22,98.25-40.2v33.82h54.87v-134.93c0-65.4-33.84-103.8-54.87-123.45v-.02ZM1246.26,338.69c-54.22,0-98.25-44.66-98.25-98.88s44.03-98.88,98.25-98.88,98.25,44.66,98.25,98.88-44.03,98.88-98.25,98.88Z"></path><path class="cls-1" d="M1067.96,253.2c-7.01-8.93-13.39-15.94-30.62-24.89-14.68-8.3-66.98-19.77-67.63-19.77-38.91-8.3-54.2-18.51-54.2-37.65,0-11.48,8.26-22.97,21.02-29.35,8.93-4.46,19.77-6.38,31.27-6.38,12.13,0,37,3.18,65.72,25.52l31.9-37c-22.97-18.51-50.41-30.62-78.48-35.08-7.01-.63-14.68-1.28-21.69-1.28-18.51,0-35.08,3.83-50.41,10.84-16.59,7.66-28.03,16.59-36.36,28.07-8.93,13.39-14.04,28.7-14.04,44.66,0,29.35,14.04,52.96,40.83,68.26,17.86,10.21,66.35,19.14,68.26,19.77,39.54,7.01,56.79,19.14,56.79,38.91s-14.68,29.35-22.97,33.16c-10.21,4.46-21.69,7.01-33.82,7.01-17.86,0-46.58-5.75-80.35-34.45l-34.49,37.65c25.56,21.69,55.5,35.73,87.4,42.11,10.21,1.92,19.77,3.18,29.98,3.18,18.51,0,37-3.83,52.3-10.84,17.22-8.3,29.98-18.51,38.91-31.9,9.56-13.39,14.04-29.35,14.04-45.92s-4.46-31.9-13.39-44.66l.02.02Z"></path></g><g id="iQ"><g><path class="cls-8" d="M1922.67,122.74c-9.7-24.22-24.22-45.23-43.06-64.06-18.31-18.31-39.84-32.85-63.5-43.06-24.79-10.23-51.16-15.62-78.06-15.62-110.37,0-200.29,89.91-200.29,200.8s89.91,199.71,200.29,199.71c22.58,0,45.19-3.77,66.72-11.3,5.91-2.11,11.77-4.46,17.48-7.11l-55.4-55.62c2.07-.67,4.19-1.44,6.26-2.19-2.19.67-4.42,1.24-6.7,1.76-9.28,2.27-18.82,3.44-28.36,3.44-70.52,0-128.13-57.6-128.13-128.67s57.6-129.18,128.13-129.18h.26c2.11,0,4.21.06,6.32.16,2.11.1,4.21.26,6.28.47,2.11.2,4.15.45,6.18.77h.04c1.92.3,3.83.61,5.71.99h.04c58.72,11.71,103.28,63.82,103.28,126.79,0,9.5-1.05,19-3.1,28.21l.22.22v.04l55.72,56.12c-.32,1.15-.67,2.29-1.09,3.42.51-.99.99-2.01,1.46-3.02,2.84-6.02,5.39-12.29,7.58-18.73,8.08-21,11.87-43.61,11.87-66.21,0-26.92-5.39-53.29-16.18-78.06l.02-.06Z"></path><path class="cls-2" d="M1738.31,71.6c2.11,0,4.21.06,6.32.16,2.11.1,4.21.26,6.28.47,2.11.2,4.15.45,6.18.77h.04c1.92.3,3.83.61,5.71.99h.04c58.88,11.52,103.58,63.74,103.58,126.79,0,9.56-1.05,19.14-3.16,28.42v.04l55.72,56.12c20.92-72.53-65.06-220.69-180.69-213.74l-.02-.02ZM1917.28,290.59c.22-.61.45-1.2.63-1.82-.26.57-.53,1.13-.79,1.66l.16.16Z"></path><path class="cls-4" d="M1766.87,326.46c-105.52,35.44-210.04-27.75-229.09-125.68,0,110.36,89.91,199.71,200.29,199.71,22.58,0,45.19-3.77,66.72-11.3,5.91-2.11,11.77-4.46,17.48-7.11l-55.4-55.62h0Z"></path><polygon class="cls-3" points="1754.19 165.8 1975.21 386.83 1873.98 386.83 1703.05 216.4 1754.19 165.8"></polygon><polygon class="cls-5" points="1873.98 386.83 1975.21 386.83 1901.2 312.81 1703.05 216.4 1873.98 386.83"></polygon><path class="cls-1" d="M1773.11,324.27c-2.07.77-4.19,1.54-6.26,2.19l-.45-.45c2.27-.51,4.5-1.09,6.7-1.76l.02.02Z"></path><path class="cls-1" d="M1917.12,290.44c.26-.53.53-1.09.79-1.66-.2.61-.41,1.2-.63,1.82l-.16-.16Z"></path><path class="cls-1" d="M1919.39,285.73c-.47,1.03-.95,2.03-1.46,3.02.41-1.13.77-2.27,1.09-3.42l.38.38v.02Z"></path></g><g><path class="cls-7" d="M1437.94,49.8v337.39h77.41V127.42l-77.41-77.65v.02Z"></path><path class="cls-6" d="M1435.45,4.66l77.07,77.61V4.66h-77.07Z"></path></g></g></svg>