<svg xmlns="http://www.w3.org/2000/svg" xmlns:xlink="http://www.w3.org/1999/xlink" id="mosaIQ-light" viewBox="0 0 1975.21 401.5"><defs><style>      .cls-1 {        fill: url(#linear-gradient-2);      }      .cls-2 {        fill: url(#linear-gradient-4);      }      .cls-3 {        fill: #d1e9f6;      }      .cls-4 {        fill: url(#linear-gradient-3);      }      .cls-5 {        fill: url(#linear-gradient-5);      }      .cls-6 {        fill: url(#linear-gradient-6);      }      .cls-7 {        fill: url(#linear-gradient);      }      .cls-8 {        fill: url(#New_Gradient_Swatch_4);      }    </style><linearGradient id="linear-gradient" x1="3667.96" y1="-2307.52" x2="3495.27" y2="-2869.12" gradientTransform="translate(-1843.97 -2390.17) scale(1 -1)" gradientUnits="userSpaceOnUse"><stop offset=".22" stop-color="#5fa3d8"></stop><stop offset=".49" stop-color="#267bc0"></stop><stop offset=".77" stop-color="#0c4d84"></stop></linearGradient><linearGradient id="linear-gradient-2" x1="3697.77" y1="-2705.45" x2="3655.49" y2="-2443.46" xlink:href="#linear-gradient"></linearGradient><linearGradient id="linear-gradient-3" x1="3788.47" y1="-2848.54" x2="3216.79" y2="-2575.32" gradientTransform="translate(-1843.97 -2390.17) scale(1 -1)" gradientUnits="userSpaceOnUse"><stop offset=".22" stop-color="#5fa3d8"></stop><stop offset=".55" stop-color="#267bc0"></stop><stop offset=".89" stop-color="#0c4d84"></stop></linearGradient><linearGradient id="linear-gradient-4" x1="3553.73" y1="-2512.37" x2="3826.85" y2="-2894.51" gradientTransform="translate(-1843.97 -2390.17) scale(1 -1)" gradientUnits="userSpaceOnUse"><stop offset=".1" stop-color="#5fa3d8"></stop><stop offset=".42" stop-color="#267bc0"></stop><stop offset=".68" stop-color="#0c4d84"></stop></linearGradient><linearGradient id="linear-gradient-5" x1="3810.03" y1="-2898.58" x2="3550.31" y2="-2479.28" gradientTransform="translate(-1843.97 -2390.17) scale(1 -1)" gradientUnits="userSpaceOnUse"><stop offset=".22" stop-color="#5fa3d8"></stop><stop offset=".44" stop-color="#267bc0"></stop><stop offset=".67" stop-color="#0c4d84"></stop></linearGradient><linearGradient id="linear-gradient-6" x1="3243.22" y1="-2946.47" x2="3367.4" y2="-2396.8" gradientTransform="translate(-1843.97 -2390.17) scale(1 -1)" gradientUnits="userSpaceOnUse"><stop offset=".26" stop-color="#5fa3d8"></stop><stop offset=".5" stop-color="#267bc0"></stop><stop offset=".74" stop-color="#0c4d84"></stop></linearGradient><linearGradient id="New_Gradient_Swatch_4" data-name="New Gradient Swatch 4" x1="3298.78" y1="-2337.39" x2="3352.74" y2="-2508.26" gradientTransform="translate(-1843.97 -2390.17) scale(1 -1)" gradientUnits="userSpaceOnUse"><stop offset=".1" stop-color="#f58967"></stop><stop offset=".42" stop-color="#f26524"></stop><stop offset=".78" stop-color="#e34d25"></stop></linearGradient></defs><g id="mosa"><path class="cls-3" d="M467.94,128.71c-26.78-26.78-61.84-40.8-99.44-40.8s-73.31,16.58-100.09,43.35c-5.09,5.09-9.55,10.2-14.03,15.93-3.83-5.74-8.29-10.84-13.38-15.93-26.77-26.78-62.47-43.35-100.09-43.35-31.25,0-61.21,14.67-86.06,33.79,0,0-50.17,40.96-54.83,103.15v160.77h54.83v-156.82c0-47.81,38.88-87.34,86.06-87.34s86.06,39.52,86.06,87.34v156.82h54.83v-156.82c0-47.81,38.88-87.34,86.69-87.34s86.06,39.52,86.06,87.34v156.82h54.83v-156.82c0-38.25-14.67-73.31-41.43-100.09h0Z"></path><path class="cls-3" d="M799.87,131.26c-28.68-28.68-66.93-44-107.73-44s-79.05,15.3-108.38,44c-28.68,29.33-44.63,67.58-44.63,108.38s15.93,79.05,44.63,108.38c29.33,28.68,67.58,44.63,108.38,44.63s79.05-15.93,107.73-44.63c29.33-29.33,45.26-67.58,45.26-108.38s-15.93-79.05-45.26-108.38h0ZM692.14,337.82c-54.18,0-98.18-44-98.18-98.18s44-97.55,98.18-97.55,98.18,43.35,98.18,97.55-44,98.18-98.18,98.18Z"></path><path class="cls-3" d="M1343.56,127.43c-26.11-24.46-61.84-40.17-98.18-40.17-40.8,0-79.05,15.3-108.38,44-28.68,29.33-44.63,67.58-44.63,108.38s15.93,79.05,44.63,108.38c29.33,28.68,67.58,44,108.38,44,36.34,0,70.76-17.21,98.18-40.17v33.79h54.83v-134.83c0-65.35-33.81-103.72-54.83-123.36v-.02ZM1245.39,338.45c-54.18,0-98.18-44.63-98.18-98.81s44-98.81,98.18-98.81,98.18,44.63,98.18,98.81-44,98.81-98.18,98.81Z"></path><path class="cls-3" d="M1067.21,253.02c-7.01-8.92-13.38-15.93-30.59-24.87-14.67-8.29-66.93-19.76-67.58-19.76-38.88-8.29-54.16-18.49-54.16-37.62,0-11.47,8.25-22.96,21-29.33,8.92-4.46,19.76-6.38,31.25-6.38,12.12,0,36.97,3.18,65.67,25.5l31.88-36.97c-22.96-18.49-50.37-30.59-78.42-35.06-7.01-.63-14.67-1.28-21.67-1.28-18.49,0-35.06,3.83-50.37,10.84-16.58,7.66-28.01,16.58-36.34,28.05-8.92,13.38-14.03,28.68-14.03,44.63,0,29.33,14.03,52.92,40.8,68.22,17.84,10.2,66.3,19.13,68.22,19.76,39.52,7.01,56.75,19.13,56.75,38.88s-14.67,29.33-22.96,33.14c-10.2,4.46-21.67,7.01-33.79,7.01-17.84,0-46.54-5.74-80.3-34.42l-34.46,37.62c25.54,21.67,55.46,35.71,87.34,42.08,10.2,1.91,19.76,3.18,29.96,3.18,18.49,0,36.97-3.83,52.27-10.84,17.21-8.29,29.96-18.49,38.88-31.88,9.55-13.38,14.03-29.33,14.03-45.89s-4.46-31.88-13.38-44.63l.02.02Z"></path></g><g id="iQ"><g><path class="cls-7" d="M1921.32,122.65c-9.69-24.2-24.2-45.2-43.03-64.01-18.3-18.3-39.81-32.82-63.46-43.03-24.77-10.22-51.12-15.61-78.01-15.61-110.3,0-200.15,89.85-200.15,200.66s89.85,199.57,200.15,199.57c22.56,0,45.16-3.77,66.68-11.29,5.9-2.11,11.76-4.46,17.47-7.11l-55.37-55.58c2.07-.67,4.18-1.44,6.26-2.19-2.19.67-4.42,1.24-6.69,1.76-9.28,2.27-18.81,3.43-28.34,3.43-70.47,0-128.04-57.56-128.04-128.58s57.56-129.09,128.04-129.09h.26c2.11,0,4.2.06,6.32.16,2.11.1,4.2.26,6.28.47,2.11.2,4.14.45,6.18.77h.04c1.91.3,3.83.61,5.7.99h.04c58.68,11.7,103.21,63.77,103.21,126.7,0,9.49-1.05,18.99-3.1,28.19l.22.22v.04l55.68,56.08c-.32,1.14-.67,2.29-1.09,3.41.51-.99.99-2.01,1.46-3.02,2.84-6.02,5.39-12.28,7.58-18.71,8.07-20.98,11.86-43.58,11.86-66.16,0-26.9-5.39-53.25-16.17-78.01l.02-.06Z"></path><path class="cls-1" d="M1737.09,71.55c2.11,0,4.2.06,6.32.16,2.11.1,4.2.26,6.28.47,2.11.2,4.14.45,6.18.77h.04c1.91.3,3.83.61,5.7.99h.04c58.84,11.51,103.51,63.7,103.51,126.7,0,9.55-1.05,19.13-3.16,28.4v.04l55.68,56.08c20.9-72.48-65.02-220.54-180.57-213.59l-.02-.02ZM1915.93,290.39c.22-.61.45-1.2.63-1.82-.26.57-.53,1.13-.79,1.66l.16.16Z"></path><path class="cls-4" d="M1765.63,326.23c-105.44,35.41-209.9-27.73-228.92-125.59,0,110.28,89.85,199.57,200.15,199.57,22.56,0,45.16-3.77,66.68-11.29,5.9-2.11,11.76-4.46,17.47-7.11l-55.37-55.58h0Z"></path><polygon class="cls-2" points="1752.96 165.68 1973.83 386.55 1872.67 386.55 1701.85 216.25 1752.96 165.68"></polygon><polygon class="cls-5" points="1872.67 386.55 1973.83 386.55 1899.87 312.59 1701.85 216.25 1872.67 386.55"></polygon><path class="cls-3" d="M1771.86,324.04c-2.07.77-4.18,1.54-6.26,2.19l-.45-.45c2.27-.51,4.5-1.09,6.69-1.76l.02.02Z"></path><path class="cls-3" d="M1915.78,290.23c.26-.53.53-1.09.79-1.66-.2.61-.41,1.2-.63,1.82l-.16-.16Z"></path><path class="cls-3" d="M1918.05,285.53c-.47,1.03-.95,2.03-1.46,3.02.41-1.13.77-2.27,1.09-3.41l.38.38v.02Z"></path></g><g><path class="cls-6" d="M1436.93,49.76v337.15h77.35V127.33l-77.35-77.59v.02Z"></path><path class="cls-8" d="M1434.44,4.66l77.02,77.55V4.66h-77.02Z"></path></g></g></svg>