<svg xmlns="http://www.w3.org/2000/svg" xmlns:xlink="http://www.w3.org/1999/xlink" id="orchestrate-light" viewBox="0 0 1581.52 608.33"><defs><style>      .cls-1 {        fill: url(#linear-gradient-2);      }      .cls-2 {        fill: #f16524;      }      .cls-3 {        fill: #d1e9f7;      }      .cls-4 {        fill: url(#linear-gradient-4);      }      .cls-5 {        fill: #d1e9f6;      }      .cls-6 {        fill: url(#linear-gradient-3);      }      .cls-7 {        fill: url(#linear-gradient-5);      }      .cls-8 {        fill: url(#linear-gradient-6);      }      .cls-9 {        fill: url(#linear-gradient);      }      .cls-10 {        fill: url(#New_Gradient_Swatch_4);      }    </style><linearGradient id="linear-gradient" x1="3306.44" y1="-5430.01" x2="3169.24" y2="-5876.2" gradientTransform="translate(-1843.97 -5495.68) scale(1 -1)" gradientUnits="userSpaceOnUse"><stop offset=".22" stop-color="#5fa3d8"></stop><stop offset=".49" stop-color="#267bc0"></stop><stop offset=".77" stop-color="#0c4d84"></stop></linearGradient><linearGradient id="linear-gradient-2" x1="3330.12" y1="-5746.17" x2="3296.53" y2="-5538.02" xlink:href="#linear-gradient"></linearGradient><linearGradient id="linear-gradient-3" x1="3402.19" y1="-5859.85" x2="2947.99" y2="-5642.78" gradientTransform="translate(-1843.97 -5495.68) scale(1 -1)" gradientUnits="userSpaceOnUse"><stop offset=".22" stop-color="#5fa3d8"></stop><stop offset=".55" stop-color="#267bc0"></stop><stop offset=".89" stop-color="#0c4d84"></stop></linearGradient><linearGradient id="linear-gradient-4" x1="3215.69" y1="-5592.77" x2="3432.68" y2="-5896.37" gradientTransform="translate(-1843.97 -5495.68) scale(1 -1)" gradientUnits="userSpaceOnUse"><stop offset=".1" stop-color="#5fa3d8"></stop><stop offset=".42" stop-color="#267bc0"></stop><stop offset=".68" stop-color="#0c4d84"></stop></linearGradient><linearGradient id="linear-gradient-5" x1="3419.32" y1="-5899.61" x2="3212.97" y2="-5566.47" gradientTransform="translate(-1843.97 -5495.68) scale(1 -1)" gradientUnits="userSpaceOnUse"><stop offset=".22" stop-color="#5fa3d8"></stop><stop offset=".44" stop-color="#267bc0"></stop><stop offset=".67" stop-color="#0c4d84"></stop></linearGradient><linearGradient id="linear-gradient-6" x1="2968.99" y1="-5937.66" x2="3067.64" y2="-5500.94" gradientTransform="translate(-1843.97 -5495.68) scale(1 -1)" gradientUnits="userSpaceOnUse"><stop offset=".26" stop-color="#5fa3d8"></stop><stop offset=".5" stop-color="#267bc0"></stop><stop offset=".74" stop-color="#0c4d84"></stop></linearGradient><linearGradient id="New_Gradient_Swatch_4" data-name="New Gradient Swatch 4" x1="3013.13" y1="-5453.74" x2="3056" y2="-5589.5" gradientTransform="translate(-1843.97 -5495.68) scale(1 -1)" gradientUnits="userSpaceOnUse"><stop offset=".1" stop-color="#f58967"></stop><stop offset=".42" stop-color="#f26524"></stop><stop offset=".78" stop-color="#e34d25"></stop></linearGradient></defs><g id="icon"><path class="cls-2" d="M1544.87,459.8c-.13-.78-.36-1.52-.65-2.24v-59.54s0-50.02,0-50.02l-73.59,24.74-82.28,27.66v100.09c-.07-.01-.15-.02-.23-.03-.31-.05-.61-.11-.93-.14-.29-.03-.59-.03-.89-.05-.33-.02-.66-.05-1-.05-.02,0-.05,0-.07,0-.31,0-.64.03-.96.04-.31.01-.62.02-.93.04-.35.03-.71.09-1.06.13-.33.04-.65.07-.98.13-.35.06-.71.15-1.07.22-.34.07-.68.13-1.03.22-.37.09-.74.21-1.11.32-.34.1-.69.19-1.03.3-.38.13-.77.28-1.15.42-.34.13-.68.24-1.03.38-.39.16-.78.35-1.18.53-.34.15-.68.29-1.02.46-.44.21-.88.46-1.31.69-.3.16-.59.3-.89.47-.73.42-1.47.87-2.19,1.35-11.72,7.71-18.01,20.31-14.04,28.13.25.49.53.95.85,1.38.12.16.26.29.38.44.21.26.42.52.66.76.16.16.35.29.52.44.23.2.45.4.69.58.19.14.41.25.62.37.25.16.5.32.76.46.22.11.47.2.7.3.27.12.54.25.83.35.25.09.52.15.78.22.3.08.58.18.89.25.27.06.55.09.83.13.32.05.63.11.96.15.29.03.59.03.89.05.33.02.66.05,1,.05.02,0,.05,0,.07,0,.32,0,.66-.03.98-.05.3-.01.6-.01.91-.04.36-.03.74-.09,1.11-.14.31-.04.62-.07.93-.12.37-.06.75-.16,1.13-.24.32-.07.65-.13.98-.21.38-.1.77-.22,1.16-.34.33-.1.65-.18.98-.29.4-.13.81-.3,1.21-.45.32-.12.64-.23.97-.36.4-.17.81-.36,1.22-.54.33-.15.66-.28.99-.44.44-.21.88-.46,1.31-.69.3-.16.59-.3.89-.47.73-.42,1.47-.87,2.19-1.35,11.28-7.43,17.5-19.36,14.41-27.23v-59.54l62.74-21.1v49.34c-.07-.01-.15-.02-.23-.03-.31-.05-.61-.11-.93-.14-.29-.03-.59-.03-.89-.05-.33-.02-.66-.05-1-.05-.02,0-.05,0-.07,0-.31,0-.64.03-.96.04-.31.01-.62.02-.93.04-.35.03-.71.09-1.06.13-.33.04-.65.07-.98.13-.35.06-.71.15-1.07.22-.34.07-.68.13-1.03.22-.37.09-.74.21-1.11.32-.34.1-.69.19-1.03.3-.38.13-.77.28-1.15.42-.34.13-.68.24-1.03.38-.39.16-.78.35-1.18.53-.34.15-.68.29-1.02.46-.44.21-.88.46-1.31.69-.3.16-.59.3-.89.47-.73.42-1.47.87-2.19,1.35-11.72,7.71-18.01,20.31-14.04,28.13.25.49.53.95.85,1.38.12.16.26.29.38.44.21.26.42.52.66.76.16.16.35.29.52.44.23.2.45.4.69.58.19.14.41.25.62.37.25.16.5.32.76.46.22.11.47.2.7.3.27.12.54.25.83.35.25.09.52.15.78.22.3.08.58.18.89.25.27.06.55.09.83.13.32.05.63.11.96.15.29.03.59.03.89.05.33.02.66.05,1,.05.02,0,.05,0,.07,0,.32,0,.66-.03.98-.05.3-.01.6-.01.91-.04.36-.03.74-.09,1.11-.14.31-.04.62-.07.93-.12.37-.06.75-.16,1.13-.24.32-.07.64-.13.97-.21.39-.1.78-.22,1.17-.34.32-.1.65-.18.97-.28.41-.13.82-.3,1.23-.45.32-.12.63-.22.95-.35.41-.17.83-.37,1.25-.56.32-.14.64-.27.95-.43.46-.22.92-.48,1.38-.73.28-.15.55-.28.83-.44.73-.42,1.47-.87,2.2-1.35,11.28-7.42,17.5-19.36,14.41-27.23v-58.81l67.08-22.56v50.07c-.07-.01-.15-.02-.23-.03-.31-.05-.61-.11-.93-.14-.29-.03-.59-.03-.89-.05-.33-.02-.66-.05-1-.05-.03,0-.05,0-.07,0-.31,0-.64.03-.96.04-.31.01-.62.02-.93.04-.35.03-.7.09-1.06.13-.33.04-.65.07-.98.13-.35.06-.71.15-1.06.22-.35.07-.69.13-1.04.22-.36.09-.73.21-1.1.32-.35.1-.69.19-1.05.31-.38.12-.76.28-1.13.42-.35.13-.7.24-1.05.39-.39.16-.77.35-1.16.52-.35.16-.69.3-1.04.47-.44.21-.88.46-1.31.69-.3.16-.59.3-.89.47-.66.38-1.33.79-1.99,1.22-.07.05-.14.08-.21.13-2.2,1.45-4.2,3.06-5.99,4.79-4.16,4.03-7.11,8.64-8.44,13.04-1.14,3.77-1.1,7.37.39,10.31.02.05.06.09.08.13.23.44.48.86.77,1.25.12.17.27.31.4.46.21.25.41.51.64.74.16.16.35.29.52.44.23.2.45.4.69.58.19.14.41.25.62.37.25.16.5.32.76.46.22.11.47.2.71.3.27.12.54.25.82.35.25.09.52.15.78.22.29.08.58.18.88.24.27.06.56.09.83.13.32.05.63.11.95.15.29.03.59.03.89.05.33.02.66.05,1,.05.02,0,.05,0,.07,0,.32,0,.66-.03.98-.05.3-.01.6-.02.91-.04.36-.03.73-.09,1.1-.14.31-.04.62-.07.94-.12.37-.06.75-.15,1.12-.24.33-.07.65-.13.98-.21.38-.1.77-.22,1.15-.33.33-.1.66-.18.99-.29.4-.13.81-.3,1.21-.45.32-.12.64-.23.97-.36.41-.17.82-.36,1.23-.55.32-.15.64-.28.97-.43.46-.22.92-.48,1.38-.73.28-.15.55-.28.83-.44.73-.42,1.47-.87,2.2-1.35,1.46-.96,2.84-2,4.13-3.1,7.71-6.59,12.03-15.24,10.93-21.89h0Z"></path></g><g id="orchestrate"><path class="cls-3" d="M8.64,460.76c0-50.54,40.89-91.18,91.44-91.18s90.68,40.64,90.68,91.18-40.89,90.93-90.68,90.93S8.64,510.8,8.64,460.76ZM165.86,460.76c0-36.58-29.72-66.29-65.79-66.29s-66.29,29.72-66.29,66.29,29.72,66.04,66.29,66.04,65.79-29.97,65.79-66.04Z"></path><path class="cls-3" d="M207.01,537.47v-55.88c0-29.21,23.88-52.83,53.09-52.83,22.61,0,42.67,14.22,50.04,35.81,2.29,6.35-1.27,13.46-7.62,15.75-6.6,2.03-13.72-1.27-16-7.87-3.81-11.43-14.48-19.05-26.42-19.05-15.49,0-28.19,12.7-28.19,28.19v55.88c0,6.6-5.59,12.19-12.45,12.19s-12.45-5.59-12.45-12.19Z"></path><path class="cls-3" d="M317.75,489.46c0-33.53,27.18-60.71,60.71-60.71,13.72,0,26.67,4.32,37.34,12.7,5.59,4.32,6.6,12.19,2.29,17.53-4.32,5.33-11.94,6.35-17.27,2.03-6.6-4.83-13.97-7.37-22.35-7.37-19.56,0-35.81,16.26-35.81,35.81s16.26,36.07,35.81,36.07c8.38,0,15.75-2.54,22.35-7.62,5.33-4.06,12.95-3.05,17.27,2.29,4.32,5.33,3.3,13.21-2.29,17.53-10.67,8.38-23.62,12.7-37.34,12.7-33.53,0-60.71-27.18-60.71-60.96Z"></path><path class="cls-3" d="M542.79,482.1v55.12c0,6.86-5.59,12.45-12.45,12.45s-12.45-5.59-12.45-12.45v-55.12c0-15.49-12.7-28.19-28.19-28.19s-28.45,12.7-28.45,28.19v55.12c0,6.86-5.33,12.45-12.45,12.45-6.6,0-12.45-5.59-12.45-12.45v-153.41c0-7.11,5.84-12.45,12.45-12.45,7.11,0,12.45,5.33,12.45,12.45v53.34c8.13-5.08,18.03-8.13,28.45-8.13,29.21,0,53.09,23.88,53.09,53.09Z"></path><path class="cls-3" d="M661.16,497.84l-80.52.25c3.3,15.49,16,25.91,33.27,27.94,10.92,1.27,24.13.51,37.34-9.4,6.1-2.03,12.95-1.52,15.49,4.32,2.54,6.1-1.02,12.19-6.86,15.49-10.67,9.65-26.92,14.99-49.53,12.95-32.77-3.56-55.12-29.21-55.12-60.2,0-33.27,26.92-60.2,59.94-60.2s57.91,24.89,57.91,56.9c0,5.84-4.57,10.67-10.16,11.68-.51.25-1.27.25-1.78.25ZM580.39,480.57l67.82-.25c-2.29-16.76-15.49-28.45-33.02-28.45s-31.24,10.92-34.8,28.7Z"></path><path class="cls-3" d="M690.11,538.74c-6.1-2.54-8.89-9.65-6.6-15.75,2.54-6.35,9.65-9.14,15.75-6.6,23.37,14.48,52.32,10.92,52.58-1.78,0-6.35-8.64-11.68-21.59-14.48-37.08-9.4-44.2-26.67-43.18-39.62,1.27-18.54,21.59-32,45.72-31.24,13.72,0,24.64,3.81,34.29,9.4,6.1,2.79,8.89,10.16,6.1,16-2.79,6.1-9.91,9.14-16,6.1-20.83-12.95-42.67-6.86-43.43,2.03-.51,3.3,3.05,10.92,21.33,14.99,38.1,9.65,43.69,26.16,43.69,36.83,0,17.02-13.97,35.05-45.47,35.81-17.78.25-33.78-6.86-43.18-11.68Z"></path><path class="cls-3" d="M863.85,537.21c0,6.86-5.59,12.45-12.45,12.45h-3.56c-27.18,0-57.4-17.78-57.4-60.96v-104.65c0-6.6,5.59-12.19,12.45-12.19s12.45,5.59,12.45,12.19v45.72h30.73c6.35,0,11.43,5.08,11.43,11.43s-5.08,11.68-11.43,11.68h-30.73v35.81c0,20.83,11.68,36.07,32.51,36.07l3.56.25c6.86,0,12.45,5.33,12.45,12.19Z"></path><path class="cls-3" d="M877.31,537.47v-55.88c0-29.21,23.88-52.83,53.09-52.83,22.61,0,42.67,14.22,50.04,35.81,2.29,6.35-1.27,13.46-7.62,15.75-6.6,2.03-13.72-1.27-16-7.87-3.81-11.43-14.48-19.05-26.42-19.05-15.49,0-28.19,12.7-28.19,28.19v55.88c0,6.6-5.59,12.19-12.45,12.19s-12.45-5.59-12.45-12.19Z"></path><path class="cls-3" d="M1108.7,490.98v46.99c0,6.86-5.08,12.19-11.18,12.19-6.6,0-11.43-5.33-11.43-12.19v-4.57c-9.91,9.91-22.61,17.02-37.59,17.02-33.53,0-60.45-26.92-60.45-60.45s26.92-60.2,60.45-60.2,60.2,27.18,60.2,60.2v1.02ZM1084.07,489.97c0-19.56-16-35.56-35.56-35.56s-35.81,16-35.81,35.56,16.26,35.81,35.81,35.81,35.56-16,35.56-35.81Z"></path><path class="cls-3" d="M1197.86,537.21c0,6.86-5.59,12.45-12.45,12.45h-3.56c-27.18,0-57.4-17.78-57.4-60.96v-104.65c0-6.6,5.59-12.19,12.45-12.19s12.45,5.59,12.45,12.19v45.72h30.73c6.35,0,11.43,5.08,11.43,11.43s-5.08,11.68-11.43,11.68h-30.73v35.81c0,20.83,11.68,36.07,32.51,36.07l3.56.25c6.86,0,12.45,5.33,12.45,12.19Z"></path><path class="cls-3" d="M1304.29,497.84l-80.52.25c3.3,15.49,16,25.91,33.27,27.94,10.92,1.27,24.13.51,37.34-9.4,6.1-2.03,12.95-1.52,15.49,4.32,2.54,6.1-1.02,12.19-6.86,15.49-10.67,9.65-26.92,14.99-49.53,12.95-32.77-3.56-55.12-29.21-55.12-60.2,0-33.27,26.92-60.2,59.94-60.2s57.91,24.89,57.91,56.9c0,5.84-4.57,10.67-10.16,11.68-.51.25-1.27.25-1.78.25ZM1223.51,480.57l67.82-.25c-2.29-16.76-15.49-28.45-33.02-28.45s-31.24,10.92-34.8,28.7Z"></path></g><g id="mosaIQ"><g id="mosa"><path class="cls-5" d="M385.08,102.26c-21.28-21.28-49.13-32.41-79.01-32.41s-58.24,13.17-79.52,34.44c-4.05,4.05-7.59,8.11-11.15,12.66-3.04-4.56-6.59-8.61-10.63-12.66-21.26-21.28-49.63-34.44-79.52-34.44-24.82,0-48.63,11.65-68.37,26.85,0,0-39.86,32.54-43.56,81.95v127.73h43.56v-124.59c0-37.98,30.89-69.39,68.37-69.39s68.37,31.4,68.37,69.39v124.59h43.56v-124.59c0-37.98,30.89-69.39,68.88-69.39s68.37,31.4,68.37,69.39v124.59h43.56v-124.59c0-30.39-11.65-58.24-32.92-79.52h0Z"></path><path class="cls-5" d="M648.81,104.29c-22.79-22.79-53.18-34.96-85.59-34.96s-62.81,12.15-86.11,34.96c-22.79,23.3-35.46,53.7-35.46,86.11s12.66,62.81,35.46,86.11c23.3,22.79,53.7,35.46,86.11,35.46s62.81-12.66,85.59-35.46c23.3-23.3,35.96-53.7,35.96-86.11s-12.66-62.81-35.96-86.11h0ZM563.21,268.4c-43.05,0-78-34.96-78-78s34.96-77.5,78-77.5,78,34.44,78,77.5-34.96,78-78,78Z"></path><path class="cls-5" d="M1080.77,101.24c-20.75-19.43-49.13-31.91-78-31.91-32.41,0-62.81,12.15-86.11,34.96-22.79,23.3-35.46,53.7-35.46,86.11s12.66,62.81,35.46,86.11c23.3,22.79,53.7,34.96,86.11,34.96,28.87,0,56.22-13.67,78-31.91v26.85h43.56v-107.12c0-51.92-26.86-82.41-43.56-98.01v-.02ZM1002.77,268.9c-43.05,0-78-35.46-78-78.5s34.96-78.5,78-78.5,78,35.46,78,78.5-34.96,78.5-78,78.5Z"></path><path class="cls-3" d="M861.21,201.03c-5.57-7.09-10.63-12.66-24.31-19.76-11.65-6.59-53.18-15.7-53.7-15.7-30.89-6.59-43.03-14.69-43.03-29.89,0-9.11,6.56-18.24,16.69-23.3,7.09-3.54,15.7-5.07,24.82-5.07,9.63,0,29.37,2.52,52.17,20.26l25.33-29.37c-18.24-14.69-40.02-24.31-62.31-27.85-5.57-.5-11.65-1.02-17.22-1.02-14.69,0-27.85,3.04-40.02,8.61-13.17,6.08-22.25,13.17-28.87,22.28-7.09,10.63-11.15,22.79-11.15,35.46,0,23.3,11.15,42.04,32.41,54.2,14.18,8.11,52.68,15.2,54.2,15.7,31.4,5.57,45.09,15.2,45.09,30.89s-11.65,23.3-18.24,26.33c-8.11,3.54-17.22,5.57-26.85,5.57-14.18,0-36.98-4.56-63.79-27.35l-27.38,29.89c20.29,17.22,44.07,28.37,69.39,33.43,8.11,1.52,15.7,2.52,23.81,2.52,14.69,0,29.37-3.04,41.53-8.61,13.67-6.59,23.81-14.69,30.89-25.33,7.59-10.63,11.15-23.3,11.15-36.46s-3.54-25.33-10.63-35.46l.02.02Z"></path></g><g id="iQ"><g><path class="cls-9" d="M1539.8,97.45c-7.7-19.23-19.23-35.91-34.19-50.86-14.54-14.54-31.63-26.08-50.42-34.19-19.68-8.12-40.62-12.4-61.98-12.4-87.63,0-159.02,71.39-159.02,159.42s71.39,158.56,159.02,158.56c17.92,0,35.88-3,52.97-8.97,4.69-1.68,9.35-3.54,13.88-5.65l-43.99-44.16c1.65-.53,3.32-1.14,4.97-1.74-1.74.53-3.51.99-5.32,1.4-7.37,1.8-14.95,2.73-22.52,2.73-55.99,0-101.73-45.73-101.73-102.15s45.73-102.56,101.73-102.56h.2c1.68,0,3.34.05,5.02.13,1.68.08,3.34.2,4.99.38,1.68.16,3.29.36,4.91.61h.03c1.52.24,3.04.49,4.53.78h.03c46.62,9.3,82,50.67,82,100.66,0,7.54-.83,15.09-2.46,22.39l.17.17v.03l44.24,44.55c-.25.91-.53,1.82-.86,2.71.41-.78.78-1.6,1.16-2.4,2.26-4.78,4.28-9.75,6.02-14.87,6.41-16.67,9.42-34.63,9.42-52.57,0-21.37-4.28-42.31-12.84-61.98l.02-.05Z"></path><path class="cls-1" d="M1393.43,56.85c1.68,0,3.34.05,5.02.13,1.68.08,3.34.2,4.99.38,1.68.16,3.29.36,4.91.61h.03c1.52.24,3.04.49,4.53.78h.03c46.75,9.14,82.24,50.61,82.24,100.66,0,7.59-.83,15.2-2.51,22.57v.03l44.24,44.55c16.61-57.58-51.66-175.22-143.46-169.7l-.02-.02ZM1535.52,230.72c.17-.49.36-.96.5-1.44-.2.45-.42.89-.63,1.32l.13.13Z"></path><path class="cls-6" d="M1416.1,259.19c-83.77,28.13-166.76-22.03-181.88-99.79,0,87.62,71.39,158.56,159.02,158.56,17.92,0,35.88-3,52.97-8.97,4.69-1.68,9.35-3.54,13.88-5.65l-43.99-44.16h0Z"></path><polygon class="cls-4" points="1406.03 131.64 1581.52 307.12 1501.15 307.12 1365.43 171.81 1406.03 131.64"></polygon><polygon class="cls-7" points="1501.15 307.12 1581.52 307.12 1522.76 248.36 1365.43 171.81 1501.15 307.12"></polygon><path class="cls-5" d="M1421.06,257.45c-1.65.61-3.32,1.22-4.97,1.74l-.36-.36c1.8-.41,3.58-.86,5.32-1.4l.02.02Z"></path><path class="cls-5" d="M1535.4,230.59c.2-.42.42-.86.63-1.32-.16.49-.33.96-.5,1.44l-.13-.13Z"></path><path class="cls-5" d="M1537.2,226.86c-.38.82-.75,1.62-1.16,2.4.33-.89.61-1.8.86-2.71l.3.3v.02Z"></path></g><g><path class="cls-8" d="M1154.95,39.53v267.87h61.46V101.17l-61.46-61.65v.02Z"></path><path class="cls-10" d="M1152.97,3.7l61.19,61.62V3.7h-61.19Z"></path></g></g></g></svg>