<svg xmlns="http://www.w3.org/2000/svg" xmlns:xlink="http://www.w3.org/1999/xlink" id="Layer_2" data-name="Layer 2" viewBox="0 0 2710.58 850.98"><defs><style>      .cls-1 {        fill: url(#linear-gradient-2);      }      .cls-2 {        fill: #d0e6f7;      }      .cls-3 {        fill: #4e75a6;      }      .cls-4 {        fill: url(#linear-gradient);      }    </style><linearGradient id="linear-gradient" x1="1123.6" y1="893.22" x2="190.7" y2="357.49" gradientUnits="userSpaceOnUse"><stop offset=".23" stop-color="#bfd5dc"></stop><stop offset=".3" stop-color="#b7cdd6"></stop><stop offset=".4" stop-color="#a1b8c7"></stop><stop offset=".54" stop-color="#7e95af"></stop><stop offset=".68" stop-color="#4e668e"></stop><stop offset=".81" stop-color="#20386e"></stop></linearGradient><linearGradient id="linear-gradient-2" x1="-865.19" y1="6.69" x2="3254.37" y2="1253.64" gradientUnits="userSpaceOnUse"><stop offset=".28" stop-color="#bfd5dc"></stop><stop offset=".3" stop-color="#b7cdd6"></stop><stop offset=".32" stop-color="#a1b8c7"></stop><stop offset=".34" stop-color="#7e95af"></stop><stop offset=".37" stop-color="#4e668e"></stop><stop offset=".4" stop-color="#20386e"></stop></linearGradient></defs><g id="sharer_light_logo"><g><g><path class="cls-4" d="M792.47,404.28h-321.93c-.62,0-1-.67-.69-1.21l96.06-164.7c.31-.53,1.08-.53,1.38,0,0,0,.01.02.04.07,30.9,53.06,87.72,85.67,149.12,85.57,17.16-.03,29.59-.1,29.49-.27,0,0-107.95-184.96-146.43-250.89-20.14-30.94-40.47-43.72-40.47-43.72l-286.94,492.14h417.17c25.86,0,49.79,13.7,62.87,36.01l51.53,87.84c24.81,42.29-5.68,95.53-54.71,95.54,0,0-743.9.3-743.84.57,10.72,47.36,63.29,109.74,145.54,109.74h638.41c117.18,0,190.2-127.1,131.17-228.33l-127.1-217.97c-.14-.25-.41-.4-.69-.4Z"></path><path class="cls-1" d="M674.57,575.74l-498.73.19L508.8,5.09s-17.81-5.09-39.02-5.09c-51.84,0-104.57,27.93-131.55,76.7L16.61,629.75s-14.05,24.16-16.61,56.32l733.11-.2c13.31,0,21.63-14.41,14.99-25.94l-36.03-62.53c-7.73-13.41-22.02-21.67-37.5-21.66Z"></path></g><g><path class="cls-3" d="M1941.61,707.05h87.92v33.71h-128.77v-219.59h40.85v185.87Z"></path><path class="cls-3" d="M2337.95,740.76h-31.59c-3.55,0-6.45-.88-8.73-2.66-2.28-1.77-3.92-3.97-4.93-6.61l-16.4-44.8h-90.96l-16.4,44.8c-.81,2.33-2.41,4.46-4.78,6.38-2.38,1.92-5.29,2.89-8.73,2.89h-31.74l86.25-219.59h41.76l86.25,219.59ZM2195.81,657.85h70.01l-26.73-73.04c-1.21-3.24-2.56-7.06-4.02-11.47-1.47-4.4-2.91-9.19-4.33-14.35-1.42,5.16-2.81,9.97-4.18,14.43-1.37,4.46-2.71,8.35-4.02,11.69l-26.73,72.74Z"></path><path class="cls-3" d="M2390.64,521.18h34.32c3.54,0,6.5.84,8.88,2.51,2.38,1.67,3.97,3.92,4.78,6.76l37.36,131.36c.91,3.24,1.75,6.76,2.51,10.55.76,3.8,1.49,7.82,2.2,12.07.81-4.25,1.69-8.27,2.66-12.07.96-3.8,2-7.31,3.11-10.55l43.13-131.36c.81-2.33,2.4-4.45,4.78-6.38,2.38-1.92,5.29-2.89,8.73-2.89h12c3.54,0,6.48.84,8.81,2.51,2.33,1.67,3.95,3.92,4.86,6.76l42.82,131.36c2.23,6.48,4.15,13.67,5.77,21.56.71-3.95,1.44-7.74,2.2-11.39.76-3.64,1.54-7.04,2.35-10.17l37.36-131.36c.71-2.53,2.28-4.71,4.71-6.53,2.43-1.82,5.37-2.74,8.81-2.74h32.04l-68.18,219.59h-36.9l-47.99-150.03c-.61-1.92-1.24-4-1.9-6.23-.66-2.23-1.29-4.61-1.9-7.14-.61,2.53-1.24,4.91-1.9,7.14-.66,2.23-1.29,4.3-1.9,6.23l-48.44,150.03h-36.9l-68.18-219.59Z"></path></g><g><path class="cls-2" d="M1048.61,324.69c3.65,7.03,8.5,12.73,14.55,17.08,6.04,4.36,13.14,7.59,21.3,9.7,8.15,2.11,16.59,3.16,25.31,3.16,5.91,0,12.23-.49,18.98-1.48,6.75-.98,13.08-2.88,18.98-5.69,5.91-2.81,10.82-6.68,14.76-11.6,3.93-4.92,5.91-11.18,5.91-18.77,0-8.15-2.6-14.76-7.8-19.83-5.21-5.06-12.02-9.28-20.46-12.65-8.44-3.37-18-6.33-28.68-8.86-10.69-2.53-21.51-5.34-32.48-8.44-11.25-2.81-22.22-6.25-32.9-10.33-10.69-4.07-20.25-9.35-28.68-15.82-8.44-6.47-15.26-14.55-20.46-24.25-5.21-9.7-7.8-21.44-7.8-35.22,0-15.46,3.3-28.89,9.91-40.28,6.6-11.39,15.25-20.88,25.94-28.47,10.68-7.59,22.78-13.21,36.28-16.87,13.5-3.65,27-5.48,40.49-5.48,15.75,0,30.86,1.76,45.35,5.27,14.48,3.52,27.35,9.21,38.6,17.08,11.24,7.88,20.17,17.93,26.79,30.16,6.6,12.23,9.91,27.07,9.91,44.5h-64.12c-.57-9-2.47-16.45-5.69-22.36-3.24-5.91-7.53-10.55-12.87-13.92-5.35-3.37-11.46-5.76-18.35-7.17-6.89-1.4-14.41-2.11-22.57-2.11-5.35,0-10.69.57-16.03,1.69-5.35,1.13-10.2,3.1-14.55,5.91-4.36,2.81-7.95,6.33-10.76,10.55-2.81,4.22-4.22,9.56-4.22,16.03,0,5.91,1.12,10.69,3.37,14.34,2.25,3.66,6.68,7.03,13.29,10.12,6.6,3.1,15.75,6.19,27.42,9.28,11.67,3.1,26.92,7.03,45.77,11.81,5.62,1.13,13.43,3.16,23.41,6.12,9.98,2.95,19.89,7.67,29.74,14.13,9.84,6.47,18.35,15.12,25.52,25.94,7.17,10.83,10.76,24.68,10.76,41.55,0,13.78-2.68,26.57-8.01,38.39-5.35,11.81-13.29,22.01-23.83,30.58-10.55,8.58-23.62,15.26-39.23,20.04-15.61,4.78-33.68,7.17-54.2,7.17-16.6,0-32.69-2.04-48.3-6.12-15.61-4.07-29.39-10.47-41.34-19.19-11.96-8.71-21.45-19.83-28.47-33.32-7.03-13.5-10.41-29.53-10.12-48.09h64.12c0,10.12,1.83,18.71,5.48,25.73Z"></path><path class="cls-2" d="M1337.98,97.75v115.58h121.91v-115.58h66.23v301.18h-66.23v-129.92h-121.91v129.92h-66.23V97.75h66.23Z"></path><path class="cls-2" d="M1734.49,97.75l112.63,301.18h-68.76l-22.78-67.07h-112.63l-23.62,67.07h-66.65l113.89-301.18h67.91ZM1738.28,282.51l-37.96-110.52h-.84l-39.23,110.52h78.04Z"></path><path class="cls-2" d="M2035.67,97.75c13.5,0,25.66,2.18,36.49,6.54,10.82,4.36,20.1,10.33,27.84,17.93,7.73,7.59,13.64,16.39,17.72,26.36,4.07,9.99,6.12,20.74,6.12,32.27,0,17.72-3.73,33.05-11.18,45.98-7.45,12.94-19.61,22.78-36.49,29.53v.84c8.15,2.25,14.9,5.69,20.25,10.33,5.34,4.64,9.7,10.12,13.08,16.45,3.37,6.33,5.83,13.29,7.38,20.88,1.54,7.59,2.6,15.19,3.16,22.78.28,4.79.56,10.41.84,16.87.28,6.47.77,13.08,1.48,19.83.7,6.75,1.83,13.15,3.37,19.19,1.54,6.05,3.86,11.18,6.96,15.4h-66.23c-3.66-9.56-5.91-20.95-6.75-34.17-.84-13.21-2.11-25.87-3.8-37.96-2.25-15.75-7.03-27.27-14.34-34.59-7.32-7.31-19.27-10.97-35.85-10.97h-66.23v117.69h-66.23V97.75h162.4ZM2012.05,234c15.19,0,26.57-3.37,34.17-10.12,7.59-6.75,11.39-17.72,11.39-32.9s-3.8-25.24-11.39-31.85c-7.59-6.6-18.98-9.91-34.17-9.91h-72.55v84.79h72.55Z"></path><path class="cls-2" d="M2403.07,97.75v55.68h-159.03v64.54h145.95v51.46h-145.95v73.82h162.4v55.68h-228.63V97.75h225.25Z"></path><path class="cls-2" d="M2613.56,97.75c13.5,0,25.66,2.18,36.49,6.54,10.82,4.36,20.1,10.33,27.84,17.93,7.73,7.59,13.64,16.39,17.72,26.36,4.07,9.99,6.12,20.74,6.12,32.27,0,17.72-3.73,33.05-11.18,45.98-7.45,12.94-19.61,22.78-36.49,29.53v.84c8.15,2.25,14.9,5.69,20.25,10.33,5.34,4.64,9.7,10.12,13.08,16.45,3.37,6.33,5.83,13.29,7.38,20.88,1.54,7.59,2.6,15.19,3.16,22.78.28,4.79.56,10.41.84,16.87.28,6.47.77,13.08,1.48,19.83.7,6.75,1.83,13.15,3.37,19.19,1.54,6.05,3.86,11.18,6.96,15.4h-66.23c-3.66-9.56-5.91-20.95-6.75-34.17-.84-13.21-2.11-25.87-3.8-37.96-2.25-15.75-7.03-27.27-14.34-34.59-7.32-7.31-19.27-10.97-35.85-10.97h-66.23v117.69h-66.23V97.75h162.4ZM2589.94,234c15.19,0,26.57-3.37,34.17-10.12,7.59-6.75,11.39-17.72,11.39-32.9s-3.8-25.24-11.39-31.85c-7.59-6.6-18.98-9.91-34.17-9.91h-72.55v84.79h72.55Z"></path></g></g></g></svg>