<svg xmlns="http://www.w3.org/2000/svg" xmlns:xlink="http://www.w3.org/1999/xlink" id="Layer_2" data-name="Layer 2" viewBox="0 0 2730.83 861.09"><defs><style>      .cls-1 {        fill: url(#linear-gradient-2);      }      .cls-2 {        fill: #2a4c8c;      }      .cls-3 {        fill: #0092bd;      }      .cls-4 {        fill: url(#linear-gradient);      }    </style><linearGradient id="linear-gradient" x1="1136.95" y1="903.83" x2="192.96" y2="361.74" gradientUnits="userSpaceOnUse"><stop offset=".23" stop-color="#20386e"></stop><stop offset=".3" stop-color="#263f73"></stop><stop offset=".41" stop-color="#375583"></stop><stop offset=".54" stop-color="#53789d"></stop><stop offset=".69" stop-color="#7aa8c1"></stop><stop offset=".81" stop-color="#9ed4e2"></stop></linearGradient><linearGradient id="linear-gradient-2" x1="-875.47" y1="6.77" x2="3293.03" y2="1268.54" gradientUnits="userSpaceOnUse"><stop offset=".28" stop-color="#20386e"></stop><stop offset=".3" stop-color="#263f73"></stop><stop offset=".32" stop-color="#375583"></stop><stop offset=".35" stop-color="#53789d"></stop><stop offset=".38" stop-color="#7aa8c1"></stop><stop offset=".4" stop-color="#9ed4e2"></stop></linearGradient></defs><g id="sharer_dark_logo"><g><g><path class="cls-4" d="M801.89,409.08h-325.75c-.63,0-1.02-.68-.7-1.22l97.2-166.66c.31-.54,1.09-.54,1.4,0,0,0,.01.02.04.07,31.27,53.69,88.77,86.69,150.9,86.59,17.36-.03,29.94-.11,29.84-.27,0,0-109.24-187.16-148.17-253.87-20.38-31.31-40.95-44.24-40.95-44.24l-290.35,497.98h422.12c26.17,0,50.38,13.87,63.62,36.44l52.15,88.88c25.1,42.79-5.75,96.67-55.36,96.68,0,0-752.74.3-752.68.58,10.85,47.92,64.05,111.04,147.27,111.04h646c118.57,0,192.46-128.61,132.73-231.04l-128.61-220.56c-.15-.25-.41-.4-.7-.4Z"></path><path class="cls-1" d="M682.59,582.58l-504.65.2L514.85,5.15s-18.02-5.15-39.48-5.15c-52.45,0-105.82,28.26-133.11,77.61L16.8,637.23s-14.22,24.44-16.8,56.98l741.82-.2c13.47,0,21.89-14.58,15.17-26.25l-36.46-63.28c-7.82-13.57-22.28-21.92-37.94-21.92Z"></path></g><g><path class="cls-3" d="M1957.84,715.45h88.97v34.11h-130.3v-222.19h41.33v188.08Z"></path><path class="cls-3" d="M2358.9,749.56h-31.96c-3.59,0-6.53-.9-8.84-2.69-2.3-1.79-3.97-4.02-4.99-6.68l-16.59-45.33h-92.04l-16.6,45.33c-.82,2.36-2.43,4.51-4.84,6.45-2.41,1.95-5.35,2.92-8.84,2.92h-32.12l87.28-222.19h42.26l87.28,222.19ZM2215.07,665.67h70.84l-27.04-73.91c-1.23-3.28-2.59-7.14-4.07-11.6-1.49-4.46-2.95-9.3-4.38-14.52-1.44,5.22-2.84,10.09-4.23,14.6-1.38,4.51-2.74,8.45-4.07,11.83l-27.04,73.6Z"></path><path class="cls-3" d="M2412.21,527.37h34.73c3.58,0,6.58.84,8.99,2.53,2.41,1.69,4.02,3.97,4.84,6.84l37.8,132.92c.92,3.28,1.77,6.84,2.54,10.68s1.51,7.91,2.23,12.22c.82-4.3,1.71-8.37,2.69-12.22.97-3.84,2.02-7.4,3.15-10.68l43.64-132.92c.82-2.36,2.43-4.51,4.84-6.46,2.41-1.94,5.35-2.92,8.84-2.92h12.14c3.58,0,6.56.84,8.91,2.53,2.36,1.69,3.99,3.97,4.92,6.84l43.33,132.92c2.25,6.56,4.2,13.83,5.84,21.82.72-3.99,1.46-7.84,2.23-11.52.77-3.69,1.56-7.12,2.38-10.29l37.8-132.92c.72-2.56,2.31-4.77,4.76-6.61,2.46-1.84,5.43-2.76,8.91-2.76h32.42l-68.99,222.19h-37.34l-48.56-151.82c-.61-1.95-1.26-4.05-1.92-6.3-.67-2.25-1.31-4.66-1.92-7.22-.61,2.56-1.26,4.97-1.92,7.22-.67,2.25-1.31,4.36-1.92,6.3l-49.02,151.82h-37.34l-68.99-222.19Z"></path></g><g><path class="cls-2" d="M1049.12,328.55c3.69,7.12,8.6,12.88,14.73,17.29,6.12,4.42,13.3,7.68,21.56,9.82,8.25,2.13,16.79,3.2,25.61,3.2,5.98,0,12.38-.49,19.21-1.49,6.83-.99,13.23-2.91,19.21-5.76,5.98-2.84,10.95-6.76,14.94-11.74,3.98-4.98,5.98-11.31,5.98-18.99,0-8.25-2.63-14.94-7.9-20.06-5.27-5.12-12.16-9.39-20.7-12.81s-18.21-6.4-29.02-8.96c-10.82-2.56-21.77-5.4-32.87-8.54-11.38-2.84-22.48-6.33-33.29-10.46-10.82-4.12-20.49-9.46-29.02-16.01-8.54-6.54-15.44-14.73-20.7-24.54-5.27-9.82-7.9-21.7-7.9-35.64,0-15.65,3.34-29.24,10.03-40.76,6.68-11.52,15.43-21.13,26.25-28.81,10.81-7.68,23.05-13.37,36.71-17.07,13.66-3.69,27.32-5.55,40.98-5.55,15.93,0,31.23,1.78,45.88,5.34,14.65,3.56,27.67,9.32,39.06,17.29,11.38,7.97,20.41,18.14,27.1,30.52,6.68,12.38,10.03,27.39,10.03,45.03h-64.88c-.57-9.1-2.49-16.65-5.76-22.62-3.27-5.98-7.62-10.67-13.02-14.09-5.41-3.41-11.6-5.83-18.57-7.26-6.98-1.42-14.59-2.13-22.84-2.13-5.41,0-10.82.57-16.22,1.71-5.41,1.14-10.32,3.13-14.73,5.98-4.42,2.85-8.04,6.4-10.88,10.67-2.85,4.27-4.27,9.68-4.27,16.22,0,5.98,1.13,10.82,3.41,14.51,2.27,3.7,6.76,7.12,13.45,10.24,6.68,3.13,15.93,6.26,27.74,9.39,11.8,3.13,27.24,7.12,46.31,11.95,5.69,1.14,13.59,3.2,23.69,6.19,10.1,2.99,20.13,7.76,30.09,14.3,9.96,6.55,18.57,15.3,25.82,26.25,7.26,10.96,10.88,24.97,10.88,42.04,0,13.95-2.71,26.89-8.11,38.84-5.41,11.95-13.45,22.27-24.12,30.95-10.67,8.68-23.9,15.44-39.7,20.27-15.79,4.84-34.08,7.26-54.85,7.26-16.79,0-33.08-2.07-48.87-6.19-15.79-4.12-29.74-10.6-41.83-19.42-12.1-8.82-21.7-20.06-28.81-33.72-7.12-13.66-10.53-29.88-10.24-48.66h64.88c0,10.24,1.85,18.93,5.55,26.04Z"></path><path class="cls-2" d="M1341.92,98.91v116.95h123.35v-116.95h67.01v304.76h-67.01v-131.46h-123.35v131.46h-67.01V98.91h67.01Z"></path><path class="cls-2" d="M1743.14,98.91l113.96,304.76h-69.57l-23.05-67.87h-113.96l-23.9,67.87h-67.44l115.25-304.76h68.72ZM1746.98,285.87l-38.42-111.83h-.85l-39.7,111.83h78.96Z"></path><path class="cls-2" d="M2047.9,98.91c13.66,0,25.96,2.21,36.92,6.62,10.95,4.42,20.34,10.46,28.17,18.14,7.82,7.68,13.8,16.58,17.93,26.68,4.12,10.1,6.19,20.99,6.19,32.65,0,17.93-3.77,33.44-11.31,46.52-7.54,13.09-19.85,23.05-36.92,29.88v.85c8.25,2.28,15.08,5.76,20.49,10.46,5.4,4.7,9.82,10.24,13.23,16.65,3.41,6.4,5.9,13.45,7.47,21.13,1.56,7.68,2.63,15.37,3.2,23.05.28,4.84.57,10.53.85,17.07.28,6.55.78,13.23,1.49,20.06.71,6.83,1.85,13.31,3.41,19.42,1.56,6.12,3.91,11.31,7.04,15.58h-67.01c-3.7-9.67-5.98-21.19-6.83-34.57-.85-13.37-2.13-26.18-3.84-38.42-2.28-15.93-7.12-27.6-14.51-35-7.4-7.4-19.49-11.1-36.28-11.1h-67.01v119.09h-67.01V98.91h164.33ZM2024,236.78c15.37,0,26.89-3.41,34.57-10.24,7.68-6.83,11.52-17.93,11.52-33.29s-3.84-25.54-11.52-32.23c-7.68-6.68-19.21-10.03-34.57-10.03h-73.42v85.79h73.42Z"></path><path class="cls-2" d="M2419.67,98.91v56.34h-160.92v65.31h147.68v52.07h-147.68v74.7h164.33v56.34h-231.34V98.91h227.93Z"></path><path class="cls-2" d="M2632.66,98.91c13.66,0,25.96,2.21,36.92,6.62,10.95,4.42,20.34,10.46,28.17,18.14,7.82,7.68,13.8,16.58,17.93,26.68,4.12,10.1,6.19,20.99,6.19,32.65,0,17.93-3.77,33.44-11.31,46.52-7.54,13.09-19.85,23.05-36.92,29.88v.85c8.25,2.28,15.08,5.76,20.49,10.46,5.4,4.7,9.82,10.24,13.23,16.65,3.41,6.4,5.9,13.45,7.47,21.13,1.56,7.68,2.63,15.37,3.2,23.05.28,4.84.57,10.53.85,17.07.28,6.55.78,13.23,1.49,20.06.71,6.83,1.85,13.31,3.41,19.42,1.56,6.12,3.91,11.31,7.04,15.58h-67.01c-3.7-9.67-5.98-21.19-6.83-34.57-.85-13.37-2.13-26.18-3.84-38.42-2.28-15.93-7.12-27.6-14.51-35-7.4-7.4-19.49-11.1-36.28-11.1h-67.01v119.09h-67.01V98.91h164.33ZM2608.75,236.78c15.37,0,26.89-3.41,34.57-10.24,7.68-6.83,11.52-17.93,11.52-33.29s-3.84-25.54-11.52-32.23c-7.68-6.68-19.21-10.03-34.57-10.03h-73.42v85.79h73.42Z"></path></g></g></g></svg>