<svg xmlns="http://www.w3.org/2000/svg" xmlns:xlink="http://www.w3.org/1999/xlink" id="Layer_2" data-name="Layer 2" viewBox="0 0 1482.32 1340.28"><defs><style>      .cls-1 {        fill: url(#linear-gradient-2);      }      .cls-2 {        fill: url(#linear-gradient);      }    </style><linearGradient id="linear-gradient" x1="1769.66" y1="1406.81" x2="300.34" y2="563.05" gradientUnits="userSpaceOnUse"><stop offset=".23" stop-color="#20386e"></stop><stop offset=".3" stop-color="#263f73"></stop><stop offset=".41" stop-color="#375583"></stop><stop offset=".54" stop-color="#53789d"></stop><stop offset=".69" stop-color="#7aa8c1"></stop><stop offset=".81" stop-color="#9ed4e2"></stop></linearGradient><linearGradient id="linear-gradient-2" x1="-1362.67" y1="10.53" x2="5125.6" y2="1974.47" gradientUnits="userSpaceOnUse"><stop offset=".28" stop-color="#20386e"></stop><stop offset=".3" stop-color="#263f73"></stop><stop offset=".32" stop-color="#375583"></stop><stop offset=".35" stop-color="#53789d"></stop><stop offset=".38" stop-color="#7aa8c1"></stop><stop offset=".4" stop-color="#9ed4e2"></stop></linearGradient></defs><g id="sharer_icon_dark"><g><path class="cls-2" d="M1248.14,636.73h-507.03c-.97,0-1.58-1.06-1.09-1.9l151.29-259.4c.49-.84,1.69-.84,2.18,0,0,0,.02.04.07.11,48.66,83.57,138.16,134.93,234.87,134.77,27.03-.04,46.6-.17,46.45-.43,0,0-170.03-291.31-230.63-395.14-31.72-48.73-63.74-68.86-63.74-68.86l-451.93,775.11h657.03c40.73,0,78.41,21.58,99.02,56.71l81.16,138.35c39.07,66.6-8.94,150.46-86.16,150.48,0,0-1171.64.47-1171.54.91,16.89,74.59,99.69,172.84,229.23,172.84h1005.5c184.56,0,299.56-200.18,206.6-359.62l-200.18-343.3c-.23-.39-.64-.63-1.09-.63Z"></path><path class="cls-1" d="M1062.44,906.78l-785.49.31L801.36,8.02s-28.05-8.02-61.46-8.02c-81.64,0-164.7,43.99-207.18,120.8L26.15,991.85s-22.13,38.05-26.15,88.7l1154.65-.31c20.96,0,34.07-22.69,23.6-40.86l-56.75-98.49c-12.17-21.12-34.69-34.12-59.06-34.11Z"></path></g></g></svg>