<svg xmlns="http://www.w3.org/2000/svg" xmlns:xlink="http://www.w3.org/1999/xlink" id="Layer_2" data-name="Layer 2" viewBox="0 0 1479.5 1337.73"><defs><style>      .cls-1 {        fill: url(#linear-gradient-2);      }      .cls-2 {        fill: url(#linear-gradient);      }    </style><linearGradient id="linear-gradient" x1="1766.29" y1="1404.14" x2="299.77" y2="561.98" gradientUnits="userSpaceOnUse"><stop offset=".23" stop-color="#bfd5dc"></stop><stop offset=".3" stop-color="#b7cdd6"></stop><stop offset=".4" stop-color="#a1b8c7"></stop><stop offset=".54" stop-color="#7e95af"></stop><stop offset=".68" stop-color="#4e668e"></stop><stop offset=".81" stop-color="#20386e"></stop></linearGradient><linearGradient id="linear-gradient-2" x1="-1360.08" y1="10.51" x2="5115.84" y2="1970.71" gradientUnits="userSpaceOnUse"><stop offset=".28" stop-color="#bfd5dc"></stop><stop offset=".3" stop-color="#b7cdd6"></stop><stop offset=".32" stop-color="#a1b8c7"></stop><stop offset=".34" stop-color="#7e95af"></stop><stop offset=".37" stop-color="#4e668e"></stop><stop offset=".4" stop-color="#20386e"></stop></linearGradient></defs><g id="sharer_icon_light"><g><path class="cls-2" d="M1245.76,635.52h-506.07c-.97,0-1.58-1.05-1.09-1.9l151-258.91c.49-.83,1.69-.83,2.18,0,0,0,.02.04.07.11,48.57,83.41,137.9,134.67,234.42,134.51,26.98-.04,46.51-.17,46.36-.43,0,0-169.7-290.76-230.19-394.39-31.66-48.64-63.62-68.73-63.62-68.73l-451.07,773.63h655.78c40.65,0,78.26,21.54,98.84,56.6l81.01,138.08c39,66.48-8.93,150.18-86,150.2,0,0-1169.41.47-1169.31.9,16.86,74.44,99.5,172.51,228.79,172.51h1003.58c184.21,0,298.99-199.8,206.2-358.93l-199.8-342.65c-.23-.39-.64-.63-1.09-.63Z"></path><path class="cls-1" d="M1060.42,905.05l-784,.31L799.84,8s-28-8-61.34-8c-81.49,0-164.39,43.91-206.79,120.57L26.1,989.96s-22.09,37.97-26.1,88.53l1152.45-.31c20.92,0,34.01-22.65,23.56-40.78l-56.64-98.3c-12.14-21.08-34.62-34.06-58.94-34.05Z"></path></g></g></svg>