<svg xmlns="http://www.w3.org/2000/svg" xmlns:xlink="http://www.w3.org/1999/xlink" id="Layer_2" data-name="Layer 2" viewBox="0 0 1470.43 1935.56"><defs><style>      .cls-1 {        fill: url(#linear-gradient-2);      }      .cls-2 {        fill: #d0e6f7;      }      .cls-3 {        fill: #4e75a6;      }      .cls-4 {        fill: url(#linear-gradient);      }    </style><linearGradient id="linear-gradient" x1="1580.82" y1="1161.28" x2="367.95" y2="464.78" gradientUnits="userSpaceOnUse"><stop offset=".23" stop-color="#bfd5dc"></stop><stop offset=".3" stop-color="#b7cdd6"></stop><stop offset=".4" stop-color="#a1b8c7"></stop><stop offset=".54" stop-color="#7e95af"></stop><stop offset=".68" stop-color="#4e668e"></stop><stop offset=".81" stop-color="#20386e"></stop></linearGradient><linearGradient id="linear-gradient-2" x1="-1004.82" y1="8.7" x2="4351.05" y2="1629.87" gradientUnits="userSpaceOnUse"><stop offset=".28" stop-color="#bfd5dc"></stop><stop offset=".3" stop-color="#b7cdd6"></stop><stop offset=".32" stop-color="#a1b8c7"></stop><stop offset=".34" stop-color="#7e95af"></stop><stop offset=".37" stop-color="#4e668e"></stop><stop offset=".4" stop-color="#20386e"></stop></linearGradient></defs><g id="sharer_vertical_light"><g><g><path class="cls-4" d="M1150.32,525.6h-418.54c-.8,0-1.31-.87-.9-1.57l124.89-214.13c.4-.69,1.4-.69,1.8,0,0,0,.02.03.05.09,40.17,68.98,114.05,111.38,193.88,111.25,22.31-.04,38.47-.14,38.34-.35,0,0-140.35-240.47-190.38-326.18-26.19-40.23-52.61-56.84-52.61-56.84l-373.06,639.83h542.36c33.62,0,64.73,17.81,81.74,46.81l67,114.2c32.25,54.98-7.38,124.2-71.12,124.22,0,0-967.15.39-967.07.75,13.94,61.57,82.29,142.67,189.22,142.67h830.01c152.35,0,247.28-165.25,170.54-296.85l-165.24-283.39c-.19-.32-.53-.52-.9-.52Z"></path><path class="cls-1" d="M997.04,748.52l-648.4.25L781.52,6.62s-23.16-6.62-50.73-6.62c-67.39,0-135.96,36.31-171.02,99.72L141.61,818.74s-18.27,31.41-21.59,73.22l953.13-.26c17.31,0,28.12-18.73,19.48-33.73l-46.85-81.3c-10.04-17.43-28.63-28.17-48.75-28.16Z"></path></g><g><path class="cls-3" d="M449.58,1905.34h78.81v30.22h-115.43v-196.83h36.62v166.61Z"></path><path class="cls-3" d="M777.62,1935.56h-28.31c-3.18,0-5.79-.79-7.83-2.38-2.04-1.59-3.52-3.56-4.42-5.92l-14.7-40.16h-81.53l-14.7,40.16c-.73,2.09-2.16,3.99-4.29,5.72-2.13,1.72-4.74,2.59-7.83,2.59h-28.45l77.32-196.83h37.43l77.32,196.83ZM650.22,1861.24h62.75l-23.96-65.47c-1.09-2.9-2.29-6.33-3.61-10.28-1.32-3.95-2.61-8.24-3.88-12.86-1.27,4.63-2.52,8.94-3.74,12.93-1.23,3.99-2.43,7.49-3.61,10.48l-23.96,65.2Z"></path><path class="cls-3" d="M797.63,1738.73h30.76c3.17,0,5.83.75,7.96,2.25,2.13,1.5,3.56,3.52,4.29,6.06l33.49,117.74c.82,2.91,1.57,6.06,2.25,9.46s1.34,7.01,1.97,10.82c.73-3.81,1.52-7.42,2.38-10.82.86-3.4,1.79-6.55,2.79-9.46l38.66-117.74c.73-2.09,2.15-3.99,4.29-5.72,2.13-1.72,4.74-2.59,7.83-2.59h10.75c3.17,0,5.81.75,7.89,2.25,2.09,1.5,3.54,3.52,4.36,6.06l38.39,117.74c2,5.81,3.72,12.25,5.17,19.33.63-3.54,1.29-6.94,1.97-10.21.68-3.27,1.38-6.31,2.11-9.12l33.49-117.74c.63-2.27,2.04-4.22,4.22-5.85,2.18-1.63,4.81-2.45,7.89-2.45h28.72l-61.12,196.83h-33.08l-43.01-134.48c-.54-1.72-1.11-3.58-1.7-5.58-.59-2-1.16-4.13-1.7-6.4-.54,2.27-1.11,4.4-1.7,6.4-.59,2-1.16,3.86-1.7,5.58l-43.42,134.48h-33.08l-61.12-196.83Z"></path></g><g><path class="cls-2" d="M59.12,1582.24c3.1,5.97,7.22,10.81,12.36,14.51,5.13,3.71,11.16,6.45,18.09,8.24,6.92,1.79,14.09,2.69,21.49,2.69,5.01,0,10.39-.41,16.12-1.25,5.73-.83,11.1-2.45,16.12-4.84,5.02-2.38,9.19-5.67,12.54-9.85,3.34-4.18,5.02-9.49,5.02-15.94,0-6.92-2.21-12.54-6.63-16.83-4.42-4.3-10.21-7.88-17.37-10.75-7.16-2.87-15.29-5.37-24.36-7.52-9.08-2.15-18.27-4.53-27.58-7.16-9.55-2.38-18.87-5.31-27.94-8.78-9.08-3.46-17.19-7.94-24.36-13.43-7.16-5.49-12.96-12.36-17.37-20.6-4.42-8.24-6.63-18.21-6.63-29.91,0-13.13,2.8-24.54,8.42-34.21,5.61-9.67,12.95-17.73,22.03-24.18,9.07-6.45,19.34-11.22,30.81-14.33,11.46-3.1,22.92-4.66,34.39-4.66,13.37,0,26.21,1.49,38.51,4.48,12.3,2.99,23.22,7.83,32.78,14.51,9.55,6.69,17.13,15.22,22.75,25.61,5.61,10.39,8.42,22.99,8.42,37.79h-54.45c-.48-7.64-2.09-13.97-4.83-18.99-2.75-5.01-6.39-8.96-10.93-11.82-4.54-2.87-9.73-4.89-15.58-6.09-5.85-1.19-12.24-1.79-19.16-1.79-4.54,0-9.08.48-13.61,1.43-4.54.96-8.66,2.63-12.36,5.02-3.71,2.39-6.75,5.37-9.13,8.96-2.39,3.58-3.58,8.12-3.58,13.61,0,5.01.95,9.08,2.87,12.18,1.91,3.11,5.67,5.97,11.28,8.6,5.61,2.63,13.37,5.25,23.28,7.88,9.91,2.63,22.86,5.97,38.87,10.03,4.77.96,11.4,2.69,19.88,5.19,8.47,2.51,16.89,6.51,25.25,12,8.36,5.5,15.58,12.84,21.67,22.03,6.09,9.2,9.13,20.96,9.13,35.28,0,11.7-2.27,22.57-6.81,32.6-4.54,10.03-11.28,18.69-20.24,25.97-8.96,7.29-20.06,12.96-33.31,17.01-13.25,4.06-28.6,6.09-46.03,6.09-14.09,0-27.76-1.74-41.01-5.19-13.25-3.46-24.96-8.89-35.1-16.3-10.15-7.4-18.21-16.84-24.18-28.3-5.97-11.46-8.84-25.07-8.6-40.83h54.45c0,8.6,1.55,15.88,4.66,21.85Z"></path><path class="cls-2" d="M304.84,1389.53v98.15h103.52v-98.15h56.24v255.76h-56.24v-110.33h-103.52v110.33h-56.24v-255.76h56.24Z"></path><path class="cls-2" d="M641.55,1389.53l95.64,255.76h-58.39l-19.34-56.96h-95.64l-20.06,56.96h-56.6l96.72-255.76h57.67ZM644.78,1546.42l-32.24-93.85h-.72l-33.31,93.85h66.27Z"></path><path class="cls-2" d="M897.31,1389.53c11.46,0,21.79,1.85,30.99,5.55,9.19,3.71,17.07,8.78,23.64,15.22,6.57,6.45,11.58,13.91,15.04,22.39,3.46,8.48,5.19,17.61,5.19,27.4,0,15.04-3.17,28.06-9.49,39.04-6.33,10.99-16.66,19.34-30.98,25.08v.72c6.92,1.91,12.65,4.84,17.19,8.78,4.53,3.94,8.24,8.6,11.1,13.97s4.95,11.28,6.27,17.73c1.31,6.45,2.21,12.9,2.69,19.34.24,4.06.48,8.84.72,14.33.23,5.5.65,11.1,1.25,16.84.59,5.73,1.55,11.17,2.87,16.3,1.31,5.14,3.28,9.49,5.91,13.07h-56.24c-3.11-8.12-5.01-17.79-5.73-29.01-.72-11.22-1.79-21.97-3.22-32.24-1.91-13.37-5.97-23.16-12.18-29.37-6.21-6.21-16.36-9.31-30.45-9.31h-56.24v99.94h-56.24v-255.76h137.91ZM877.25,1505.23c12.89,0,22.57-2.87,29.01-8.6,6.45-5.73,9.67-15.04,9.67-27.94s-3.22-21.43-9.67-27.04c-6.45-5.61-16.12-8.42-29.01-8.42h-61.61v72h61.61Z"></path><path class="cls-2" d="M1209.3,1389.53v47.28h-135.04v54.81h123.94v43.7h-123.94v62.69h137.91v47.28h-194.15v-255.76h191.28Z"></path><path class="cls-2" d="M1388.05,1389.53c11.46,0,21.79,1.85,30.99,5.55,9.19,3.71,17.07,8.78,23.64,15.22,6.57,6.45,11.58,13.91,15.04,22.39,3.46,8.48,5.19,17.61,5.19,27.4,0,15.04-3.17,28.06-9.49,39.04-6.33,10.99-16.66,19.34-30.98,25.08v.72c6.92,1.91,12.65,4.84,17.19,8.78,4.53,3.94,8.24,8.6,11.1,13.97s4.95,11.28,6.27,17.73c1.31,6.45,2.21,12.9,2.69,19.34.24,4.06.48,8.84.72,14.33.23,5.5.65,11.1,1.25,16.84.59,5.73,1.55,11.17,2.87,16.3,1.31,5.14,3.28,9.49,5.91,13.07h-56.24c-3.11-8.12-5.01-17.79-5.73-29.01-.72-11.22-1.79-21.97-3.22-32.24-1.91-13.37-5.97-23.16-12.18-29.37-6.21-6.21-16.36-9.31-30.45-9.31h-56.24v99.94h-56.24v-255.76h137.91ZM1367.99,1505.23c12.89,0,22.57-2.87,29.01-8.6,6.45-5.73,9.67-15.04,9.67-27.94s-3.22-21.43-9.67-27.04c-6.45-5.61-16.12-8.42-29.01-8.42h-61.61v72h61.61Z"></path></g></g></g></svg>