<svg id="Layer_1" data-name="Layer 1" xmlns="http://www.w3.org/2000/svg" xmlns:xlink="http://www.w3.org/1999/xlink" width="1616.52" height="509.2" viewBox="0 0 1616.52 509.2">
  <defs>
    <style>
      .cls-1 {
        fill: url(#linear-gradient);
      }

      .cls-2 {
        fill: url(#linear-gradient-2);
      }

      .cls-3 {
        fill: url(#linear-gradient-3);
      }

      .cls-4 {
        fill: #d4e9f8;
      }

      .cls-5 {
        fill: #3964ab;
      }
    </style>
    <linearGradient id="linear-gradient" x1="28.12" y1="160.11" x2="438.86" y2="-70.58" gradientTransform="translate(-143.04 274)" gradientUnits="userSpaceOnUse">
      <stop offset="0.44" stop-color="#c1d5de"/>
      <stop offset="0.5" stop-color="#b9cdd9"/>
      <stop offset="0.61" stop-color="#a4b9ca"/>
      <stop offset="0.73" stop-color="#8196b1"/>
      <stop offset="0.87" stop-color="#516790"/>
      <stop offset="1" stop-color="#20386e"/>
    </linearGradient>
    <linearGradient id="linear-gradient-2" x1="15387.35" y1="6136.41" x2="15798.09" y2="5905.73" gradientTransform="matrix(-0.5, 0.87, -0.87, -0.5, 13390.35, -10380.95)" xlink:href="#linear-gradient"/>
    <linearGradient id="linear-gradient-3" x1="12770.58" y1="-8722.38" x2="13181.32" y2="-8953.07" gradientTransform="translate(14555.53 7285.2) rotate(-120)" xlink:href="#linear-gradient"/>
  </defs>
  <g>
    <path class="cls-1" d="M246.91,0c-50.11,108.56-78.42,208.28-69.75,366.19,99.81.51,119.83,1.19,234.63,1.19-75.22,49-191,104.34-352,122.69L9.5,403C48.47,287.25,162.56,104.85,246.91,0Z"/>
    <path class="cls-2" d="M577.77,407.09c-62.6-84.56-151.42-173.35-282.26-243.5-50.34,86.19-60.94,103.18-118.35,202.6C172.64,253.11,174.47,151,246.91,0H347.5C428.23,91.61,529.14,281.61,577.77,407.09Z"/>
    <path class="cls-3" d="M59.79,490.07c104.53-11.92,225.84-44.45,352-122.69C362.33,280.69,352.91,263,295.51,163.59,388,214.81,473.3,271,577.77,407.09l-50.3,87.11C407.77,518.31,192.77,510.7,59.79,490.07Z"/>
  </g>
  <g>
    <path class="cls-4" d="M812.88,292.1q-18.4,0-32.92-6.33a78.26,78.26,0,0,1-41.67-42.69,79.5,79.5,0,0,1-5.79-30.17,81.38,81.38,0,0,1,10.09-40.18,76.48,76.48,0,0,1,28.32-29q18.24-10.84,42-10.85,24.61,0,42.26,11a77.27,77.27,0,0,1,27.43,28.93,78.9,78.9,0,0,1,9.79,38.46q0,3.54-.3,6.61c-.2,2.06-.4,3.68-.59,4.85H766.91a53.88,53.88,0,0,0,8,23.86,46.56,46.56,0,0,0,16.91,15.8,44.82,44.82,0,0,0,21.95,5.71,50.74,50.74,0,0,0,25.06-6.52q11.71-6.53,15.86-17.2l27.88,8a58.76,58.76,0,0,1-15.42,20.31A78.53,78.53,0,0,1,843,286.91,85.06,85.06,0,0,1,812.88,292.1Zm-46.57-90.76H860a50.41,50.41,0,0,0-7.56-23.25,45.71,45.71,0,0,0-16.76-15.56,47.93,47.93,0,0,0-45.23,0,46.55,46.55,0,0,0-24.17,38.81Z"/>
    <path class="cls-4" d="M1097.32,292.1a105.28,105.28,0,0,1-37.07-6.53,80.33,80.33,0,0,1-30-19.28l11.86-21.64q13.63,11.57,27.14,17a70.74,70.74,0,0,0,26.84,5.48q13.93,0,22.39-5.08a16.39,16.39,0,0,0,8.45-15q0-7.35-4.59-10.87t-13.05-6.17q-8.46-2.64-20-5.88a204.78,204.78,0,0,1-27.73-10.43q-11.43-5.44-17.06-13.37t-5.63-20.28q0-14.69,7.71-25.27t21.5-16.3q13.8-5.73,31.88-5.73a91.55,91.55,0,0,1,31.29,5.19,68.32,68.32,0,0,1,25.36,16.16l-13.94,21.35a71.12,71.12,0,0,0-21.06-13.64,61.83,61.83,0,0,0-23.43-4.45,57.47,57.47,0,0,0-13.49,1.61,23.81,23.81,0,0,0-11.12,5.87q-4.45,4.26-4.45,11.88,0,6.47,3.71,10.12t10.82,6.31q7.13,2.64,17.5,5.87A264.7,264.7,0,0,1,1132,209.38q12.75,5.28,19.73,13.34t7,22.15q0,22-16.76,34.61T1097.32,292.1Z"/>
    <path class="cls-4" d="M1324.11,289.13h-32.33v-85.9q0-20.8-7.86-31.07t-21.8-10.26a38.89,38.89,0,0,0-17.94,4.67,53.74,53.74,0,0,0-16,12.68,54.79,54.79,0,0,0-10.52,18.51v91.37H1185V72.63h32.63V166A64.31,64.31,0,0,1,1242,141.65a65.81,65.81,0,0,1,33.22-8.81q14.83,0,24.17,5a39,39,0,0,1,14.83,13.66,57.75,57.75,0,0,1,7.71,19.83,123.53,123.53,0,0,1,2.23,24.09Z"/>
    <g>
      <rect class="cls-4" x="1357.22" y="138.17" width="32.62" height="150.96"/>
      <rect class="cls-4" x="1357.22" y="72.62" width="32.62" height="32.62"/>
    </g>
    <path class="cls-4" d="M689.6,91.28l.28,125.56c0,32.95,11,40.75,39.89,42.06V289c-48.18.09-71.38-21.47-72.48-58.88l0-6.52L657,91.35Z"/>
    <path class="cls-4" d="M1438.35,131.49v6.68h-20.63v24.92h20.58L1438,289h.43v.15h32.62v-126h39.75V138.17h-39.72c1.47-27.37,12.88-34.19,39.72-35.41V72.63h0C1462.66,72.52,1439.46,94.09,1438.35,131.49Z"/>
    <path class="cls-4" d="M1602.67,286.52a84.89,84.89,0,0,1-12.75,3.8,71.38,71.38,0,0,1-16,1.78,47,47,0,0,1-18.68-3.69A31.06,31.06,0,0,1,1541.43,277q-5.19-7.68-5.19-19.78V163.09h-8.4V138.17h8.4V110h32.62v28.17h33.81v24.92h-33.81v83.43q.6,8,5.19,11.79a17,17,0,0,0,11.42,3.83c6.68-.07,12.28-2.07,17.2-4.16Z"/>
    <path class="cls-4" d="M925.32,136.4,957,187.27l30.46-50.87,37.5,0s-31.73,54-45.59,77.45a4.85,4.85,0,0,0,0,5.39c12.21,20.62,42.24,71.53,42.24,71.53l-36.66,0-27.66-45.4-27.79,45.41-37.16,0s29.78-50.5,42.26-71.59a4.78,4.78,0,0,0,0-5.28c-13.74-23.29-45.62-77.5-45.62-77.5Z"/>
    <g>
      <path class="cls-5" d="M957,187.27l30.46-50.87,37.5,0s-31.73,54-45.59,77.45a4.82,4.82,0,0,0-.13,5.09Z"/>
      <path class="cls-5" d="M979.36,219.26c12.21,20.62,42.24,71.53,42.24,71.53l-36.66,0-27.66-45.4,21.79-31A4.8,4.8,0,0,0,979.36,219.26Z"/>
    </g>
  </g>
  <g>
    <path class="cls-4" d="M663.53,363.28v66.81h40.74V436H656.61V363.28Z"/>
    <path class="cls-4" d="M751.49,363.28,780,436h-7.43l-8.86-22.61h-33.1L721.85,436h-7.33l29.23-72.71Zm9.88,44.2L747.31,370.2l-14.56,37.28Z"/>
    <path class="cls-4" d="M788.65,363.28l16.5,63.65h.2l17.72-63.65h8.66l17.82,63.65h.21l16.6-63.65h6.92L853.22,436h-7.33l-18.44-65.08h-.2L808.92,436h-7.54l-20.17-72.71Z"/>
    <path class="cls-4" d="M882.89,425.2h8.55V436h-8.55Z"/>
    <path class="cls-4" d="M987.38,363.28a31.39,31.39,0,0,1,8.5,1.12,20.29,20.29,0,0,1,7,3.41,16.52,16.52,0,0,1,4.79,5.91,19,19,0,0,1,1.78,8.5,20.48,20.48,0,0,1-3.56,12,16.29,16.29,0,0,1-10.59,6.52v.2a16.26,16.26,0,0,1,5.9,1.88,11.85,11.85,0,0,1,3.82,3.52,14.25,14.25,0,0,1,2.14,4.94,36.51,36.51,0,0,1,.87,6.06c.06,1.22.13,2.71.2,4.48s.2,3.55.41,5.35a33,33,0,0,0,1,5.09,9.8,9.8,0,0,0,1.79,3.71h-7.64a8.8,8.8,0,0,1-1-2.49,21.23,21.23,0,0,1-.51-3.06c-.1-1.05-.19-2.09-.25-3.1s-.14-1.9-.21-2.65q-.2-3.87-.66-7.69a21,21,0,0,0-1.93-6.82,12,12,0,0,0-4.28-4.84c-1.87-1.22-4.43-1.77-7.69-1.63H961V436h-6.92V363.28Zm-.51,34.52a18.42,18.42,0,0,0,6-1,14.7,14.7,0,0,0,5-2.8,13.66,13.66,0,0,0,3.41-4.43,13.33,13.33,0,0,0,1.28-6q0-6.72-3.87-10.59t-11.82-3.87H961V397.8Z"/>
    <path class="cls-4" d="M1078.87,363.28v5.9h-43.28v26.28h40.53v5.91h-40.53v28.72h43.79V436h-50.72V363.28Z"/>
    <path class="cls-4" d="M1101.59,363.28V436h-6.93V363.28Z"/>
    <path class="cls-4" d="M1130.57,363.28l42.37,61.51h.21V363.28h6.92V436h-7.74L1130,374.48h-.2V436h-6.93V363.28Z"/>
    <path class="cls-4" d="M1201,363.28l23.63,65.07h.2l23.43-65.07h7.33l-27,72.71h-8l-26.89-72.71Z"/>
    <path class="cls-4" d="M1319.44,363.28v5.9h-43.29v26.28h40.54v5.91h-40.54v28.72H1320V436h-50.72V363.28Z"/>
    <path class="cls-4" d="M1342.71,363.28l42.36,61.51h.21V363.28h6.92V436h-7.74l-42.36-61.51h-.21V436H1335V363.28Z"/>
    <path class="cls-4" d="M1463.47,363.28v5.9h-25.35V436h-6.93V369.18h-25.26v-5.9Z"/>
    <path class="cls-4" d="M1527.46,363.28v5.9h-43.28v26.28h40.53v5.91h-40.53v28.72H1528V436h-50.71V363.28Z"/>
    <path class="cls-4" d="M1568.19,363.28q16.61.41,25,9.32t8.4,27q0,18.14-8.4,27.05t-25,9.31H1543V363.28Zm-3.46,66.81a47.63,47.63,0,0,0,13.49-1.68,21.62,21.62,0,0,0,9.32-5.35,21.92,21.92,0,0,0,5.4-9.47,57.15,57.15,0,0,0,0-27.91,21.87,21.87,0,0,0-5.4-9.47,21.62,21.62,0,0,0-9.32-5.35,47.63,47.63,0,0,0-13.49-1.68H1550v60.91Z"/>
  </g>
</svg>
