<svg id="Layer_1" data-name="Layer 1" xmlns="http://www.w3.org/2000/svg" width="2000" height="519.21" viewBox="0 0 2000 519.21">
  <defs>
    <style>
      .cls-1 {
        fill: #d4e9f8;
      }

      .cls-2 {
        fill: #3964ab;
      }
    </style>
  </defs>
  <g>
    <path class="cls-1" d="M329.82,494.83q-38.9,0-69.62-13.39a165.55,165.55,0,0,1-88.11-90.26,168.37,168.37,0,0,1-12.23-63.8q0-46.5,21.32-85A161.71,161.71,0,0,1,241.08,181q38.57-22.93,88.74-22.95,52,0,89.36,23.29a163.53,163.53,0,0,1,58,61.17,167,167,0,0,1,20.7,81.34c0,5-.22,9.64-.63,14s-.84,7.77-1.25,10.25H232.61q3.13,29.1,16.93,50.45A98.3,98.3,0,0,0,285.29,432,94.76,94.76,0,0,0,331.7,444a107.2,107.2,0,0,0,53-13.8q24.76-13.78,33.55-36.38l58.95,16.94q-10.67,23.83-32.61,43a165.72,165.72,0,0,1-51.11,30.1Q364.31,494.82,329.82,494.83ZM231.36,302.92H429.53q-2.5-28.28-16-49.18a96.75,96.75,0,0,0-35.43-32.9,97.92,97.92,0,0,0-47.67-12q-26.34,0-48,12A100,100,0,0,0,247,253.74Q233.23,274.64,231.36,302.92Z"/>
    <path class="cls-1" d="M931.31,494.83A222.69,222.69,0,0,1,852.92,481q-37-13.78-63.34-40.77l25.08-45.78q28.85,24.47,57.39,36.07t56.75,11.59q29.48,0,47.35-10.75T994,399.76q0-15.52-9.73-23t-27.59-13q-17.87-5.58-42.33-12.43-34.5-10.56-58.64-22.06T819.68,301q-11.92-16.77-11.91-42.87,0-31.06,16.3-53.43t45.47-34.48Q898.7,158.06,937,158.05q35.74,0,66.16,11a144.35,144.35,0,0,1,53.62,34.18l-29.48,45.15q-21.32-19.43-44.52-28.85a130.7,130.7,0,0,0-49.55-9.41,120.68,120.68,0,0,0-28.53,3.42,50.32,50.32,0,0,0-23.52,12.4q-9.4,9-9.41,25.13,0,13.65,7.84,21.39t22.89,13.34q15.06,5.6,37,12.41,38.24,10.56,65.22,21.71t41.7,28.23q14.73,17.06,14.74,46.82,0,46.55-35.43,73.2T931.31,494.83Z"/>
    <path class="cls-1" d="M1410.86,488.55h-68.35V306.92q0-44-16.62-65.71t-46.1-21.7q-18.81,0-37.94,9.87A113.46,113.46,0,0,0,1208,256.2a115.73,115.73,0,0,0-22.26,39.15v193.2h-69V30.74h69V228.25a136,136,0,0,1,51.43-51.56,139.13,139.13,0,0,1,70.24-18.64q31.35,0,51.11,10.56a82.48,82.48,0,0,1,31.36,28.89,122.31,122.31,0,0,1,16.3,41.93,260.44,260.44,0,0,1,4.7,50.95Z"/>
    <g>
      <rect class="cls-1" x="1480.89" y="169.34" width="68.98" height="319.22"/>
      <rect class="cls-1" x="1480.89" y="30.71" width="68.98" height="68.98"/>
    </g>
    <path class="cls-1" d="M69.13,70.19l.6,265.5c0,69.67,23.24,86.16,84.34,88.93v63.74C52.21,488.56,3.14,443,.8,363.86l0-13.79L.15,70.32Z"/>
    <path class="cls-1" d="M1652.45,155.21l0,13.8v.33H1608.8V222h43.52l-.52,266.2h.9v.32h69V222h84V169.34h-84c3.1-57.88,27.22-72.31,84-74.88V30.72C1703.86,30.51,1654.79,76.12,1652.45,155.21Z"/>
    <path class="cls-1" d="M1999.92,483a179.43,179.43,0,0,1-27,8,150.21,150.21,0,0,1-33.87,3.76,99.14,99.14,0,0,1-39.51-7.8,65.68,65.68,0,0,1-29.16-24q-11-16.23-11-41.83V222h-17.75V169.34h17.75V109.76h69v59.58h71.49V222h-71.49V398.44q1.24,16.85,11,24.94c6.48,5.41,14.53,8.21,24.15,8.1,14.12-.16,26-4.37,36.37-8.81Z"/>
    <path class="cls-1" d="M567.59,165.59,634.5,273.15l64.4-107.57,79.31,0S711.11,279.72,681.8,329.4c-2.28,3.86-2.25,7.48.07,11.4,25.81,43.62,89.32,151.27,89.32,151.27l-77.54,0-58.49-96-58.75,96-78.59-.05s63-106.79,89.38-151.4a10.07,10.07,0,0,0,0-11.15c-29-49.26-96.46-163.88-96.46-163.88Z"/>
    <g>
      <path class="cls-2" d="M634.5,273.15l64.4-107.57,79.31,0S711.11,279.72,681.8,329.4a10.19,10.19,0,0,0-.27,10.76Z"/>
      <path class="cls-2" d="M681.87,340.8c25.81,43.62,89.32,151.27,89.32,151.27l-77.54,0-58.49-96,46.08-65.62C679.57,333.94,679.76,337.24,681.87,340.8Z"/>
    </g>
  </g>
</svg>
