<?xml version="1.0" encoding="UTF-8"?>
<svg xmlns="http://www.w3.org/2000/svg" xmlns:xlink="http://www.w3.org/1999/xlink" id="Layer_1" data-name="Layer 1" width="4031.92" height="986.72" viewBox="0 0 4031.92 986.72">
  <defs>
    <style>
      .cls-1 {
        fill: #20386e;
      }

      .cls-2 {
        fill: #b5c4cc;
      }

      .cls-3 {
        fill: url(#linear-gradient);
      }

      .cls-4 {
        fill: url(#linear-gradient-2);
      }

      .cls-5 {
        fill: url(#linear-gradient-3);
      }
    </style>
    <linearGradient id="linear-gradient" x1="-55.01" y1="561.24" x2="727.23" y2="121.9" gradientTransform="translate(-143.04 274)" gradientUnits="userSpaceOnUse">
      <stop offset="0.44" stop-color="#1a2e59"></stop>
      <stop offset="0.5" stop-color="#223660"></stop>
      <stop offset="0.59" stop-color="#374b72"></stop>
      <stop offset="0.7" stop-color="#596e8f"></stop>
      <stop offset="0.82" stop-color="#899fb8"></stop>
      <stop offset="0.96" stop-color="#c5ddec"></stop>
      <stop offset="1" stop-color="#d6eefb"></stop>
    </linearGradient>
    <linearGradient id="linear-gradient-2" x1="18912.47" y1="315.97" x2="19694.71" y2="-123.37" gradientTransform="matrix(-0.5, 0.87, -0.87, -0.5, 10478.93, -16447.08)" xlink:href="#linear-gradient"></linearGradient>
    <linearGradient id="linear-gradient-3" x1="9103.04" y1="-14557.22" x2="9885.27" y2="-14996.56" gradientTransform="translate(18353.24 1730.77) rotate(-120)" xlink:href="#linear-gradient"></linearGradient>
  </defs>
  <g>
    <path class="cls-1" d="M1717.73,792.47q-53.19,0-95.2-18.3a226.35,226.35,0,0,1-120.48-123.42,230.2,230.2,0,0,1-16.73-87.25q0-63.58,29.16-116.19t81.9-84Q1649.12,332,1717.73,332q71.16,0,122.2,31.85t79.32,83.64a228.33,228.33,0,0,1,28.3,111.23q0,10.2-.86,19.12c-.57,6-1.15,10.61-1.71,14H1584.8q4.29,39.8,23.16,69a134.58,134.58,0,0,0,48.88,45.7A129.68,129.68,0,0,0,1720.3,723a146.6,146.6,0,0,0,72.46-18.87q33.87-18.85,45.88-49.74l80.61,23.16q-14.6,32.6-44.59,58.74t-69.89,41.16Q1764.89,792.46,1717.73,792.47ZM1583.09,530.06h271q-3.45-38.67-21.87-67.25a132.24,132.24,0,0,0-48.45-45,133.83,133.83,0,0,0-65.18-16.4q-36,0-65.6,16.4a136.58,136.58,0,0,0-48.45,45Q1585.65,491.39,1583.09,530.06Z"></path>
    <path class="cls-1" d="M2540.22,792.47q-56.59,0-107.19-18.87t-86.62-55.74l34.3-62.6q39.45,33.45,78.47,49.31t77.61,15.86q40.3,0,64.75-14.7T2626,662.47q0-21.22-13.29-31.43T2575,613.2q-24.43-7.63-57.88-17-47.18-14.43-80.18-30.15t-49.31-38.67q-16.3-22.93-16.3-58.62,0-42.47,22.3-73.07t62.17-47.14Q2495.64,332,2547.94,332q48.89,0,90.47,15a197.54,197.54,0,0,1,73.33,46.73l-40.31,61.75q-29.16-26.58-60.89-39.45a178.65,178.65,0,0,0-67.74-12.86,165.38,165.38,0,0,0-39,4.66q-19.31,4.67-32.16,17t-12.87,34.36q0,18.67,10.72,29.26t31.31,18.24q20.58,7.63,50.59,17,52.3,14.43,89.19,29.69t57,38.59q20.13,23.32,20.15,64,0,63.63-48.45,100.1T2540.22,792.47Z"></path>
    <path class="cls-1" d="M3196,783.89H3102.5V535.52q0-60.18-22.72-89.86t-63-29.66q-25.72,0-51.88,13.49a155.09,155.09,0,0,0-46.31,36.68,158,158,0,0,0-30.44,53.53V783.89h-94.33v-626h94.33V428a185.93,185.93,0,0,1,70.32-70.51A190.36,190.36,0,0,1,3054.48,332q42.87,0,69.89,14.44a112.79,112.79,0,0,1,42.88,39.51q15.86,25.07,22.3,57.33A357.13,357.13,0,0,1,3196,512.9Z"></path>
    <g>
      <rect class="cls-1" x="3291.72" y="347.39" width="94.33" height="436.5"></rect>
      <rect class="cls-1" x="3291.72" y="157.83" width="94.33" height="94.33"></rect>
    </g>
    <path class="cls-1" d="M1361.26,211.81l.82,363.05c-.07,95.28,31.78,117.82,115.33,121.61v87.16c-139.3.27-206.39-62.08-209.59-170.24l0-18.87L1266.93,212Z"></path>
    <path class="cls-1" d="M3526.33,328.08l0,18.86v.45h-59.65v72h59.51l-.72,364h1.24v.44H3621V419.43h114.91v-72H3621.08c4.25-79.14,37.22-98.87,114.83-102.39V157.84C3596.62,157.56,3529.52,219.92,3526.33,328.08Z"></path>
    <path class="cls-1" d="M4001.46,776.33c-12.58,4.86-22,7.56-36.87,11a205.43,205.43,0,0,1-46.31,5.15,135.56,135.56,0,0,1-54-10.67,89.77,89.77,0,0,1-39.88-32.87q-15-22.18-15-57.2V419.43h-24.28v-72h24.28V265.93h94.34v81.46h97.76v72H3903.7V660.67q1.71,23,15,34.1c8.86,7.4,19.86,11.24,33,11.09,19.31-.23,35.51-6,49.73-12.05Z"></path>
    <path class="cls-1" d="M2042.86,342.26l91.5,147.09,88.06-147.1,108.45.07s-91.75,156-131.84,224c-3.11,5.27-3.08,10.22.1,15.58,35.29,59.64,122.14,206.85,122.14,206.85l-106,.06-80-131.29-80.33,131.3-107.47-.07s86.13-146,122.21-207c3.1-5.25,3.13-10.09.08-15.26-39.72-67.35-131.9-224.09-131.9-224.09Z"></path>
    <g>
      <path class="cls-2" d="M2134.36,489.35l88.06-147.1,108.45.07s-91.75,156-131.84,224c-2.94,5-3,9.68-.36,14.71Z"></path>
      <path class="cls-2" d="M2199.13,581.85c35.29,59.64,122.14,206.85,122.14,206.85l-106,.06-80-131.29,63-89.73C2196,572.46,2196.25,577,2199.13,581.85Z"></path>
    </g>
  </g>
  <g>
    <path class="cls-3" d="M491.05,8.49C395.6,215.24,341.7,405.14,358.21,705.89c190.09,1,228.2,2.27,446.85,2.27C661.8,801.54,441.21,906.86,134.67,941.82L38.89,775.92C113.11,555.54,330.4,208.18,491.05,8.49Z"></path>
    <path class="cls-4" d="M1121.15,783.78C1001.94,622.73,832.78,453.63,583.6,320c-95.88,164.14-116.06,196.5-225.39,385.85C349.6,490.53,353.08,296,491.05,8.49H682.61C836.36,183,1028.54,544.81,1121.15,783.78Z"></path>
    <path class="cls-5" d="M134.67,941.82c199.08-22.71,430.11-84.67,670.39-233.66C710.85,543.06,692.92,509.39,583.6,320c176.06,97.54,338.6,204.52,537.55,463.74l-95.78,165.9C797.4,995.59,387.93,981.1,134.67,941.82Z"></path>
  </g>
</svg>
