<svg id="Layer_1" data-name="Layer 1" xmlns="http://www.w3.org/2000/svg" width="2000" height="519.21" viewBox="0 0 2000 519.21">
  <defs>
    <style>
      .cls-1 {
        fill: #20386e;
      }

      .cls-2 {
        fill: #b5c4cc;
      }
    </style>
  </defs>
  <g>
    <path class="cls-1" d="M329.71,494.86q-38.9,0-69.62-13.38A165.56,165.56,0,0,1,172,391.21a168.42,168.42,0,0,1-12.23-63.81q0-46.51,21.33-85A161.67,161.67,0,0,1,241,181q38.57-22.93,88.75-22.95,52.05,0,89.37,23.3a163.56,163.56,0,0,1,58,61.17,167,167,0,0,1,20.7,81.35c0,5-.22,9.64-.63,14s-.84,7.77-1.25,10.25H232.49q3.13,29.1,16.93,50.46A98.38,98.38,0,0,0,285.17,432a94.83,94.83,0,0,0,46.42,12.08,107.27,107.27,0,0,0,53-13.8q24.77-13.78,33.55-36.38l59,16.94q-10.67,23.83-32.61,43a165.92,165.92,0,0,1-51.12,30.11Q364.21,494.86,329.71,494.86ZM231.24,302.94H429.43q-2.51-28.29-16-49.19A96.78,96.78,0,0,0,378,220.85a97.82,97.82,0,0,0-47.67-12q-26.34,0-48,12a100,100,0,0,0-35.43,32.9Q233.11,274.65,231.24,302.94Z"/>
    <path class="cls-1" d="M931.27,494.86a222.74,222.74,0,0,1-78.4-13.79q-37-13.8-63.35-40.77l25.09-45.79Q843.46,419,872,430.58t56.76,11.6q29.47,0,47.36-10.75T994,399.78q0-15.52-9.72-23t-27.6-13q-17.86-5.6-42.33-12.44-34.51-10.56-58.65-22.06T819.63,301q-11.93-16.78-11.92-42.88,0-31.07,16.31-53.44t45.47-34.48q29.16-12.12,67.42-12.13,35.76,0,66.17,11a144.44,144.44,0,0,1,53.63,34.18l-29.48,45.16q-21.33-19.44-44.53-28.85a130.66,130.66,0,0,0-49.55-9.41,121.27,121.27,0,0,0-28.54,3.41,50.47,50.47,0,0,0-23.52,12.41q-9.4,9-9.4,25.13,0,13.65,7.83,21.4t22.9,13.34q15,5.58,37,12.41,38.25,10.55,65.23,21.71t41.71,28.23q14.73,17.06,14.74,46.83,0,46.54-35.43,73.21T931.27,494.86Z"/>
    <path class="cls-1" d="M1410.88,488.59h-68.37V306.93q0-44-16.62-65.72t-46.1-21.69q-18.81,0-38,9.87A113.31,113.31,0,0,0,1208,256.21a115.82,115.82,0,0,0-22.26,39.15V488.59h-69V30.73h69V228.26a136,136,0,0,1,51.43-51.57,139.3,139.3,0,0,1,70.25-18.64q31.35,0,51.12,10.57a82.47,82.47,0,0,1,31.36,28.89,122.23,122.23,0,0,1,16.3,41.93,260.49,260.49,0,0,1,4.71,50.95Z"/>
    <g>
      <rect class="cls-1" x="1480.91" y="169.34" width="68.99" height="319.25"/>
      <rect class="cls-1" x="1480.91" y="30.7" width="68.99" height="68.99"/>
    </g>
    <path class="cls-1" d="M69,70.18l.6,265.53c0,69.68,23.25,86.17,84.35,88.94V488.4C52.07,488.6,3,443,.66,363.89l0-13.8L0,70.31Z"/>
    <path class="cls-1" d="M1652.49,155.21l0,13.8v.33h-43.63V222h43.53l-.52,266.23h.9v.33h69V222h84V169.34h-84c3.11-57.88,27.23-72.32,84-74.89V30.7C1703.9,30.5,1654.83,76.11,1652.49,155.21Z"/>
    <path class="cls-1" d="M2000,483.06a178,178,0,0,1-27,8,150.21,150.21,0,0,1-33.87,3.76,99.14,99.14,0,0,1-39.51-7.8,65.67,65.67,0,0,1-29.17-24q-11-16.23-11-41.83V222h-17.75V169.34h17.75V109.76h69v59.58H2000V222h-71.5V398.47q1.24,16.84,11,24.94c6.48,5.41,14.53,8.22,24.15,8.1,14.13-.16,26-4.37,36.38-8.81Z"/>
    <path class="cls-1" d="M567.51,165.59l66.92,107.58,64.41-107.59,79.31,0s-67.1,114.1-96.42,163.79c-2.28,3.86-2.25,7.48.07,11.4,25.81,43.62,89.33,151.29,89.33,151.29l-77.55,0-58.49-96-58.76,96-78.6-.05s63-106.8,89.39-151.42a10.07,10.07,0,0,0,0-11.15c-29-49.27-96.47-163.9-96.47-163.9Z"/>
    <g>
      <path class="cls-2" d="M634.43,273.17l64.41-107.59,79.31,0s-67.1,114.1-96.42,163.79a10.19,10.19,0,0,0-.27,10.76Z"/>
      <path class="cls-2" d="M681.8,340.82c25.81,43.62,89.33,151.29,89.33,151.29l-77.55,0-58.49-96,46.08-65.63C679.5,334,679.69,337.26,681.8,340.82Z"/>
    </g>
  </g>
</svg>
