<svg id="Layer_1" data-name="Layer 1" xmlns="http://www.w3.org/2000/svg" xmlns:xlink="http://www.w3.org/1999/xlink" width="1616.52" height="509.2" viewBox="0 0 1616.52 509.2">
  <defs>
    <style>
      .cls-1 {
        fill: url(#linear-gradient);
      }

      .cls-2 {
        fill: url(#linear-gradient-2);
      }

      .cls-3 {
        fill: url(#linear-gradient-3);
      }

      .cls-4 {
        fill: #20386e;
      }

      .cls-5 {
        fill: #b5c4cc;
      }
    </style>
    <linearGradient id="linear-gradient" x1="18.63" y1="160.11" x2="429.36" y2="-70.58" gradientTransform="translate(-143.04 274)" gradientUnits="userSpaceOnUse">
      <stop offset="0.44" stop-color="#1a2e59"/>
      <stop offset="0.5" stop-color="#223660"/>
      <stop offset="0.59" stop-color="#374b72"/>
      <stop offset="0.7" stop-color="#596e8f"/>
      <stop offset="0.82" stop-color="#899fb8"/>
      <stop offset="0.96" stop-color="#c5ddec"/>
      <stop offset="1" stop-color="#d6eefb"/>
    </linearGradient>
    <linearGradient id="linear-gradient-2" x1="14687.09" y1="7365.75" x2="15097.82" y2="7135.06" gradientTransform="matrix(-0.5, 0.87, -0.87, -0.5, 14095.36, -9159.84)" xlink:href="#linear-gradient"/>
    <linearGradient id="linear-gradient-3" x1="13480.34" y1="-7509.49" x2="13891.08" y2="-7740.18" gradientTransform="translate(13850.52 8506.31) rotate(-120)" xlink:href="#linear-gradient"/>
  </defs>
  <g>
    <path class="cls-1" d="M237.42,0C187.3,108.56,159,208.28,167.67,366.19c99.81.51,119.82,1.19,234.63,1.19-75.22,49-191,104.34-352,122.69L0,403C39,287.25,153.07,104.85,237.42,0Z"/>
    <path class="cls-2" d="M568.27,407.09C505.68,322.53,416.85,233.74,286,163.59c-50.34,86.19-60.94,103.18-118.34,202.6C163.15,253.11,165,151,237.42,0H338C418.73,91.61,519.64,281.61,568.27,407.09Z"/>
    <path class="cls-3" d="M50.29,490.07c104.53-11.92,225.84-44.45,352-122.69C352.83,280.69,343.42,263,286,163.59c92.45,51.22,177.8,107.39,282.26,243.5L518,494.2C398.28,518.31,183.27,510.7,50.29,490.07Z"/>
  </g>
  <g>
    <path class="cls-4" d="M803.38,292.1q-18.39,0-32.92-6.33a78.26,78.26,0,0,1-41.67-42.69A79.69,79.69,0,0,1,723,212.91a81.48,81.48,0,0,1,10.08-40.18,76.51,76.51,0,0,1,28.33-29q18.23-10.84,42-10.85,24.61,0,42.26,11a77.37,77.37,0,0,1,27.44,28.93,79,79,0,0,1,9.78,38.46q0,3.54-.29,6.61c-.2,2.06-.4,3.68-.6,4.85H757.41a54,54,0,0,0,8,23.86,46.53,46.53,0,0,0,16.9,15.8,44.85,44.85,0,0,0,21.95,5.71,50.68,50.68,0,0,0,25.06-6.52Q841,255,845.2,244.35l27.88,8a58.92,58.92,0,0,1-15.43,20.31,78.41,78.41,0,0,1-24.17,14.24A85,85,0,0,1,803.38,292.1Zm-46.56-90.76h93.72A50.53,50.53,0,0,0,843,178.09a45.68,45.68,0,0,0-16.75-15.56,47.93,47.93,0,0,0-45.23,0,46.5,46.5,0,0,0-24.17,38.81Z"/>
    <path class="cls-4" d="M1087.83,292.1a105.2,105.2,0,0,1-37.07-6.53,80.45,80.45,0,0,1-30-19.28l11.87-21.64q13.63,11.57,27.13,17a70.82,70.82,0,0,0,26.84,5.48q13.93,0,22.39-5.08a16.4,16.4,0,0,0,8.46-15q0-7.35-4.6-10.87t-13.05-6.17q-8.44-2.64-20-5.88a205.29,205.29,0,0,1-27.73-10.43q-11.41-5.44-17-13.37t-5.64-20.28q0-14.69,7.71-25.27t21.51-16.3q13.79-5.73,31.88-5.73a91.59,91.59,0,0,1,31.29,5.19,68.28,68.28,0,0,1,25.35,16.16l-13.93,21.35a71.38,71.38,0,0,0-21.06-13.64,61.91,61.91,0,0,0-23.43-4.45,57.41,57.41,0,0,0-13.49,1.61,23.89,23.89,0,0,0-11.13,5.87q-4.44,4.26-4.45,11.88,0,6.47,3.71,10.12t10.83,6.31q7.11,2.64,17.49,5.87a264.92,264.92,0,0,1,30.85,10.27q12.75,5.28,19.72,13.34t7,22.15q0,22-16.76,34.61T1087.83,292.1Z"/>
    <path class="cls-4" d="M1314.61,289.13h-32.33v-85.9q0-20.8-7.85-31.07t-21.8-10.26a38.93,38.93,0,0,0-18,4.67,53.57,53.57,0,0,0-16,12.68,54.65,54.65,0,0,0-10.53,18.51v91.37h-32.62V72.63h32.62V166a64.34,64.34,0,0,1,24.32-24.38,65.78,65.78,0,0,1,33.22-8.81q14.82,0,24.17,5a39,39,0,0,1,14.83,13.66,58.16,58.16,0,0,1,7.71,19.83,123.56,123.56,0,0,1,2.22,24.09Z"/>
    <g>
      <rect class="cls-4" x="1347.72" y="138.17" width="32.62" height="150.96"/>
      <rect class="cls-4" x="1347.72" y="72.62" width="32.62" height="32.62"/>
    </g>
    <path class="cls-4" d="M680.1,91.28l.29,125.56c0,32.95,11,40.75,39.88,42.06V289c-48.17.09-71.38-21.47-72.48-58.88v-6.52l-.3-132.29Z"/>
    <path class="cls-4" d="M1428.86,131.49v6.68h-20.63v24.92h20.58L1428.55,289h.43v.15h32.62v-126h39.74V138.17h-39.71c1.47-27.37,12.87-34.19,39.71-35.41V72.63h0C1453.17,72.52,1430,94.09,1428.86,131.49Z"/>
    <path class="cls-4" d="M1593.18,286.52a85.25,85.25,0,0,1-12.75,3.8,71.51,71.51,0,0,1-16,1.78,47,47,0,0,1-18.68-3.69,31.08,31.08,0,0,1-13.8-11.37q-5.19-7.68-5.19-19.78V163.09h-8.39V138.17h8.39V110h32.63v28.17h33.81v24.92h-33.81v83.43q.59,8,5.19,11.79a16.94,16.94,0,0,0,11.42,3.83c6.68-.07,12.28-2.07,17.2-4.16Z"/>
    <path class="cls-4" d="M915.82,136.4l31.65,50.87,30.45-50.87,37.51,0s-31.73,54-45.6,77.45a4.87,4.87,0,0,0,0,5.39c12.2,20.62,42.24,71.53,42.24,71.53l-36.67,0-27.66-45.4L920,290.82l-37.17,0s29.79-50.5,42.27-71.59a4.76,4.76,0,0,0,0-5.28c-13.73-23.29-45.61-77.5-45.61-77.5Z"/>
    <g>
      <path class="cls-5" d="M947.47,187.27l30.45-50.87,37.51,0s-31.73,54-45.6,77.45a4.82,4.82,0,0,0-.12,5.09Z"/>
      <path class="cls-5" d="M969.87,219.26c12.2,20.62,42.24,71.53,42.24,71.53l-36.67,0-27.66-45.4,21.79-31A4.8,4.8,0,0,0,969.87,219.26Z"/>
    </g>
  </g>
  <g>
    <path class="cls-4" d="M654,363.28v66.81h40.74V436H647.11V363.28Z"/>
    <path class="cls-4" d="M742,363.28,770.51,436h-7.44l-8.86-22.61h-33.1L712.35,436H705l29.23-72.71Zm9.88,44.2-14-37.28-14.57,37.28Z"/>
    <path class="cls-4" d="M779.15,363.28l16.5,63.65h.21l17.72-63.65h8.66l17.82,63.65h.2l16.6-63.65h6.93L843.73,436h-7.34L818,370.91h-.21L799.42,436h-7.53l-20.17-72.71Z"/>
    <path class="cls-4" d="M873.39,425.2H882V436h-8.56Z"/>
    <path class="cls-4" d="M977.89,363.28a31.44,31.44,0,0,1,8.5,1.12,20.46,20.46,0,0,1,7,3.41,16.39,16.39,0,0,1,4.78,5.91,19,19,0,0,1,1.79,8.5,20.41,20.41,0,0,1-3.57,12,16.29,16.29,0,0,1-10.59,6.52v.2a16.32,16.32,0,0,1,5.91,1.88,12,12,0,0,1,3.82,3.52,14.64,14.64,0,0,1,2.14,4.94,36.54,36.54,0,0,1,.86,6.06c.07,1.22.14,2.71.2,4.48s.21,3.55.41,5.35a34.26,34.26,0,0,0,1,5.09,9.65,9.65,0,0,0,1.78,3.71h-7.64a8.8,8.8,0,0,1-1-2.49,21.23,21.23,0,0,1-.51-3.06c-.11-1.05-.19-2.09-.26-3.1s-.14-1.9-.2-2.65q-.21-3.87-.66-7.69a21,21,0,0,0-1.94-6.82,11.92,11.92,0,0,0-4.28-4.84c-1.86-1.22-4.43-1.77-7.69-1.63H951.51V436h-6.93V363.28Zm-.51,34.52a18.51,18.51,0,0,0,6-1,14.79,14.79,0,0,0,5-2.8,13.8,13.8,0,0,0,3.41-4.43,13.33,13.33,0,0,0,1.27-6q0-6.72-3.87-10.59t-11.81-3.87H951.51V397.8Z"/>
    <path class="cls-4" d="M1069.37,363.28v5.9h-43.28v26.28h40.53v5.91h-40.53v28.72h43.79V436h-50.72V363.28Z"/>
    <path class="cls-4" d="M1092.09,363.28V436h-6.92V363.28Z"/>
    <path class="cls-4" d="M1121.08,363.28l42.37,61.51h.2V363.28h6.93V436h-7.74l-42.37-61.51h-.21V436h-6.92V363.28Z"/>
    <path class="cls-4" d="M1191.55,363.28l23.62,65.07h.21l23.42-65.07h7.34l-27,72.71h-8.05l-26.89-72.71Z"/>
    <path class="cls-4" d="M1309.94,363.28v5.9h-43.28v26.28h40.53v5.91h-40.53v28.72h43.79V436h-50.72V363.28Z"/>
    <path class="cls-4" d="M1333.21,363.28l42.37,61.51h.2V363.28h6.93V436H1375l-42.37-61.51h-.2V436h-6.93V363.28Z"/>
    <path class="cls-4" d="M1454,363.28v5.9h-25.36V436h-6.93V369.18h-25.25v-5.9Z"/>
    <path class="cls-4" d="M1518,363.28v5.9h-43.28v26.28h40.53v5.91h-40.53v28.72h43.79V436h-50.72V363.28Z"/>
    <path class="cls-4" d="M1558.7,363.28q16.59.41,25,9.32t8.4,27q0,18.14-8.4,27.05t-25,9.31h-25.16V363.28Zm-3.46,66.81a47.73,47.73,0,0,0,13.49-1.68,21.68,21.68,0,0,0,9.32-5.35,22.13,22.13,0,0,0,5.4-9.47,57.15,57.15,0,0,0,0-27.91,22.07,22.07,0,0,0-5.4-9.47,21.68,21.68,0,0,0-9.32-5.35,47.73,47.73,0,0,0-13.49-1.68h-14.77v60.91Z"/>
    <path class="cls-4" d="M1608,425.2h8.56V436H1608Z"/>
  </g>
</svg>
