<svg id="Layer_1" data-name="Layer 1" xmlns="http://www.w3.org/2000/svg" xmlns:xlink="http://www.w3.org/1999/xlink" width="1000" height="202.77" viewBox="0 0 1000 202.77">
  <defs>
    <style>
      .cls-1 {
        fill: url(#radial-gradient);
      }

      .cls-2 {
        fill: #ddf7fc;
      }

      .cls-3 {
        fill: url(#linear-gradient);
      }

      .cls-4 {
        fill: url(#linear-gradient-2);
      }

      .cls-5 {
        fill: url(#linear-gradient-3);
      }

      .cls-6 {
        fill: url(#linear-gradient-4);
      }

      .cls-7 {
        fill: url(#linear-gradient-5);
      }

      .cls-8 {
        fill: #0b1521;
      }

      .cls-9 {
        fill: url(#linear-gradient-6);
      }

      .cls-10 {
        fill: url(#linear-gradient-7);
      }
    </style>
    <radialGradient id="radial-gradient" cx="432.4" cy="57.86" r="1.47" gradientUnits="userSpaceOnUse">
      <stop offset="0" stop-color="#ddf7fc"/>
      <stop offset="1" stop-color="#152942"/>
    </radialGradient>
    <linearGradient id="linear-gradient" x1="924.09" y1="-41.87" x2="836.6" y2="242.65" gradientUnits="userSpaceOnUse">
      <stop offset="0.22" stop-color="#79def5"/>
      <stop offset="0.35" stop-color="#57a8bd"/>
      <stop offset="0.49" stop-color="#367487"/>
      <stop offset="0.61" stop-color="#1e4e60"/>
      <stop offset="0.71" stop-color="#0f3748"/>
      <stop offset="0.77" stop-color="#0a2e3f"/>
    </linearGradient>
    <linearGradient id="linear-gradient-2" x1="939.19" y1="159.73" x2="917.77" y2="27" xlink:href="#linear-gradient"/>
    <linearGradient id="linear-gradient-3" x1="985.14" y1="232.23" x2="695.51" y2="93.81" gradientUnits="userSpaceOnUse">
      <stop offset="0.22" stop-color="#79def5"/>
      <stop offset="0.22" stop-color="#79ddf4"/>
      <stop offset="0.55" stop-color="#3e8094"/>
      <stop offset="0.78" stop-color="#184557"/>
      <stop offset="0.89" stop-color="#0a2e3f"/>
    </linearGradient>
    <linearGradient id="linear-gradient-4" x1="866.22" y1="61.91" x2="1004.59" y2="255.51" gradientUnits="userSpaceOnUse">
      <stop offset="0.1" stop-color="#79def5"/>
      <stop offset="0.14" stop-color="#6bc7dd"/>
      <stop offset="0.23" stop-color="#4d99ad"/>
      <stop offset="0.33" stop-color="#357286"/>
      <stop offset="0.42" stop-color="#225567"/>
      <stop offset="0.51" stop-color="#153f51"/>
      <stop offset="0.6" stop-color="#0d3244"/>
      <stop offset="0.68" stop-color="#0a2e3f"/>
    </linearGradient>
    <linearGradient id="linear-gradient-5" x1="996.07" y1="257.57" x2="864.49" y2="45.14" gradientUnits="userSpaceOnUse">
      <stop offset="0.22" stop-color="#79def5"/>
      <stop offset="0.32" stop-color="#57a8bd"/>
      <stop offset="0.44" stop-color="#367487"/>
      <stop offset="0.54" stop-color="#1e4e60"/>
      <stop offset="0.62" stop-color="#0f3748"/>
      <stop offset="0.67" stop-color="#0a2e3f"/>
    </linearGradient>
    <linearGradient id="linear-gradient-6" x1="708.91" y1="281.84" x2="771.82" y2="3.36" gradientUnits="userSpaceOnUse">
      <stop offset="0.26" stop-color="#79def5"/>
      <stop offset="0.34" stop-color="#66bfd5"/>
      <stop offset="0.74" stop-color="#0a2e3f"/>
    </linearGradient>
    <linearGradient id="linear-gradient-7" x1="737.05" y1="-26.74" x2="764.39" y2="59.83" gradientUnits="userSpaceOnUse">
      <stop offset="0.22" stop-color="#79def5"/>
      <stop offset="0.27" stop-color="#6fcde4"/>
      <stop offset="0.58" stop-color="#39788c"/>
      <stop offset="0.8" stop-color="#174354"/>
      <stop offset="0.9" stop-color="#0a2e3f"/>
    </linearGradient>
  </defs>
  <path class="cls-1" d="M432.4,59.36a1.5,1.5,0,0,0,0-3,1.5,1.5,0,0,0,0,3Z"/>
  <g>
    <g>
      <path class="cls-2" d="M237.07,65.21a70.29,70.29,0,0,0-50.39-20.67c-19.06,0-37.14,8.4-50.71,22a84.25,84.25,0,0,0-7.1,8.08,52.92,52.92,0,0,0-6.78-8.08c-13.57-13.56-31.66-22-50.71-22-15.83,0-31,7.43-43.6,17.12,0,0-25.42,20.75-27.78,52.25v81.46H27.78V115.92c0-24.23,19.7-44.25,43.6-44.25,24.22,0,43.6,20,43.6,44.25v79.45h27.78V115.92c0-24.23,19.7-44.25,43.92-44.25,23.9,0,43.6,20,43.6,44.25v79.45h27.78V115.92A70.81,70.81,0,0,0,237.07,65.21Z"/>
      <path class="cls-2" d="M405.24,66.5a76.4,76.4,0,0,0-54.58-22.28,77.35,77.35,0,1,0,0,154.7A77.42,77.42,0,0,0,405.24,66.5ZM350.66,171.15a49.58,49.58,0,1,1,49.73-49.74A49.76,49.76,0,0,1,350.66,171.15Z"/>
      <path class="cls-2" d="M680.69,64.56C667.46,52.18,649.36,44.22,631,44.22a77.19,77.19,0,1,0,0,154.38c18.41,0,35.85-8.72,49.74-20.35v17.12h27.78V127.06C708.47,94,691.33,74.51,680.69,64.56ZM631,171.47c-27.45,0-49.74-22.61-49.74-50.06S603.5,71.35,631,71.35s49.74,22.6,49.74,50.06S658.4,171.47,631,171.47Z"/>
      <path class="cls-2" d="M540.68,128.19c-3.55-4.52-6.78-8.07-15.5-12.6-7.43-4.2-33.92-10-34.24-10-19.7-4.2-27.44-9.37-27.44-19,0-5.82,4.19-11.63,10.65-14.86A35.56,35.56,0,0,1,490,68.44c6.14,0,18.73,1.61,33.27,12.92l16.15-18.73a85.11,85.11,0,0,0-39.73-17.77c-3.55-.32-7.43-.64-11-.64a60.08,60.08,0,0,0-25.51,5.49c-8.4,3.87-14.2,8.39-18.41,14.21a40.63,40.63,0,0,0-7.11,22.61c0,14.85,7.11,26.8,20.67,34.55,9,5.17,33.59,9.69,34.56,10,20,3.55,28.74,9.69,28.74,19.7S514.2,165.66,510,167.59a42.72,42.72,0,0,1-17.12,3.56c-9,0-23.58-2.91-40.68-17.45l-17.46,19.06A97.59,97.59,0,0,0,479,194.08a80.71,80.71,0,0,0,15.18,1.61,64.75,64.75,0,0,0,26.48-5.49c8.73-4.2,15.18-9.37,19.71-16.15a39.57,39.57,0,0,0,7.1-23.25A38.91,38.91,0,0,0,540.68,128.19Z"/>
    </g>
    <g>
      <g>
        <path class="cls-3" d="M973.4,62.14a95.72,95.72,0,0,0-21.8-32.43A100,100,0,0,0,879.93,0C824.06,0,778.54,45.52,778.54,101.66c0,55.87,45.52,101.11,101.39,101.11a102.5,102.5,0,0,0,33.79-5.72c3-1.07,6-2.26,8.85-3.6l-28.05-28.17c1.05-.34,2.11-.72,3.16-1.11-1.11.34-2.24.63-3.39.89a61,61,0,0,1-14.36,1.74,65.08,65.08,0,0,1-64.87-65.14c0-36.24,29.17-65.41,64.87-65.41h.13c1.07,0,2.14,0,3.2.08s2.13.13,3.18.25,2.1.22,3.14.38h0c1,.15,1.94.31,2.89.51h0a65.56,65.56,0,0,1,50.72,78.46l.11.12h0l28.22,28.41c-.16.58-.34,1.16-.55,1.73.26-.51.5-1,.74-1.54a90.72,90.72,0,0,0,3.84-9.48,93.43,93.43,0,0,0,6-33.52A98.53,98.53,0,0,0,973.4,62.14Z"/>
        <path class="cls-4" d="M880.06,36.25c1.07,0,2.14,0,3.2.08s2.13.13,3.18.25,2.1.22,3.14.38h0c1,.15,1.94.31,2.89.51h0a65.51,65.51,0,0,1,50.83,78.58h0l28.22,28.41C982.14,107.75,938.6,32.73,880.06,36.25Zm90.61,110.87c.12-.31.23-.62.33-.92-.13.29-.28.56-.41.84Z"/>
        <path class="cls-5" d="M894.52,165.28c-53.42,17.94-106.34-14.05-116-63.62,0,55.87,45.52,101.11,101.39,101.11a102.5,102.5,0,0,0,33.79-5.72c3-1.07,6-2.26,8.85-3.6Z"/>
        <polygon class="cls-6" points="888.11 83.94 1000 195.84 948.75 195.84 862.21 109.56 888.11 83.94"/>
        <polygon class="cls-7" points="948.75 195.84 1000 195.84 962.53 158.37 862.21 109.56 948.75 195.84"/>
        <path class="cls-8" d="M897.68,164.17c-1,.39-2.11.77-3.16,1.11l-.23-.22C895.44,164.8,896.57,164.51,897.68,164.17Z"/>
        <path class="cls-8" d="M970.59,147c.13-.28.28-.55.41-.84-.1.3-.21.61-.33.92Z"/>
        <path class="cls-8" d="M971.74,144.66c-.24.52-.48,1-.74,1.54.21-.57.39-1.15.55-1.73Z"/>
      </g>
      <g>
        <path class="cls-9" d="M728,25.21V196h39.19V64.51Z"/>
        <path class="cls-10" d="M726.73,2.36l39,39.29V2.36Z"/>
      </g>
    </g>
  </g>
</svg>
