<svg xmlns="http://www.w3.org/2000/svg" xmlns:xlink="http://www.w3.org/1999/xlink" id="Layer_2" data-name="Layer 2" viewBox="0 0 1016.35 754.14"><defs><style>      .cls-1 {        fill: url(#linear-gradient-2);      }      .cls-2 {        fill: url(#linear-gradient-4);      }      .cls-3 {        fill: url(#linear-gradient-3);      }      .cls-4 {        fill: url(#linear-gradient-5);      }      .cls-5 {        fill: #d3ebf8;      }      .cls-6 {        fill: url(#linear-gradient-7);      }      .cls-7 {        fill: url(#linear-gradient-6);      }      .cls-8 {        fill: url(#linear-gradient);      }    </style><linearGradient id="linear-gradient" x1="2577.98" y1="-3533.38" x2="2252.59" y2="-4591.57" gradientTransform="translate(-1843.97 -3689.1) scale(1 -1)" gradientUnits="userSpaceOnUse"><stop offset=".22" stop-color="#5ba4e0"></stop><stop offset=".49" stop-color="#257bc1"></stop><stop offset=".77" stop-color="#0a4c84"></stop></linearGradient><linearGradient id="linear-gradient-2" x1="2634.15" y1="-4283.17" x2="2554.48" y2="-3789.52" xlink:href="#linear-gradient"></linearGradient><linearGradient id="linear-gradient-3" x1="2805.06" y1="-4552.79" x2="1727.87" y2="-4037.98" gradientTransform="translate(-1843.97 -3689.1) scale(1 -1)" gradientUnits="userSpaceOnUse"><stop offset=".22" stop-color="#5ba4e0"></stop><stop offset=".55" stop-color="#257bc1"></stop><stop offset=".89" stop-color="#0a4c84"></stop></linearGradient><linearGradient id="linear-gradient-4" x1="2362.75" y1="-3919.37" x2="2877.38" y2="-4639.41" gradientTransform="translate(-1843.97 -3689.1) scale(1 -1)" gradientUnits="userSpaceOnUse"><stop offset=".1" stop-color="#5ba4e0"></stop><stop offset=".42" stop-color="#257bc1"></stop><stop offset=".68" stop-color="#0a4c84"></stop></linearGradient><linearGradient id="linear-gradient-5" x1="2845.68" y1="-4647.08" x2="2356.31" y2="-3857" gradientTransform="translate(-1843.97 -3689.1) scale(1 -1)" gradientUnits="userSpaceOnUse"><stop offset=".22" stop-color="#5ba4e0"></stop><stop offset=".44" stop-color="#257bc1"></stop><stop offset=".67" stop-color="#0a4c84"></stop></linearGradient><linearGradient id="linear-gradient-6" x1="1777.67" y1="-4737.32" x2="2011.65" y2="-3701.6" gradientTransform="translate(-1843.97 -3689.1) scale(1 -1)" gradientUnits="userSpaceOnUse"><stop offset=".26" stop-color="#5ba4e0"></stop><stop offset=".5" stop-color="#257bc1"></stop><stop offset=".74" stop-color="#0a4c84"></stop></linearGradient><linearGradient id="linear-gradient-7" x1="1882.35" y1="-3589.65" x2="1984.04" y2="-3911.62" gradientTransform="translate(-1843.97 -3689.1) scale(1 -1)" gradientUnits="userSpaceOnUse"><stop offset=".22" stop-color="#5ba4e0"></stop><stop offset=".58" stop-color="#257bc1"></stop><stop offset=".9" stop-color="#0a4c84"></stop></linearGradient></defs><g id="Layer_2-2" data-name="Layer 2"><g><g><path class="cls-8" d="M917.42,231.11c-18.26-45.6-45.6-85.17-81.08-120.61-34.48-34.48-75.02-61.85-119.57-81.08C670.09,10.15,620.44,0,569.78,0,361.95,0,192.66,169.3,192.66,378.1s169.3,376.05,377.13,376.05c42.51,0,85.1-7.1,125.63-21.27,11.12-3.98,22.17-8.41,32.91-13.39l-104.32-104.73c3.91-1.26,7.88-2.72,11.79-4.13-4.13,1.26-8.33,2.34-12.61,3.31-17.48,4.28-35.44,6.47-53.41,6.47-132.78,0-241.27-108.45-241.27-242.27s108.45-243.24,241.27-243.24h.48c3.98,0,7.92.11,11.9.3,3.98.19,7.92.48,11.83.89,3.98.37,7.81.86,11.64,1.45h.07c3.61.56,7.22,1.15,10.75,1.86h.07c110.57,22.05,194.48,120.17,194.48,238.74,0,17.89-1.97,35.78-5.84,53.11l.41.41v.07l104.92,105.66c-.59,2.16-1.26,4.31-2.05,6.43.97-1.86,1.86-3.79,2.75-5.69,5.36-11.34,10.15-23.13,14.28-35.26,15.21-39.54,22.35-82.12,22.35-124.67,0-50.69-10.15-100.34-30.46-146.98l.04-.11Z"></path><path class="cls-1" d="M570.27,134.82c3.98,0,7.92.11,11.9.3,3.98.19,7.92.48,11.83.89,3.98.37,7.81.86,11.64,1.45h.07c3.61.56,7.22,1.15,10.75,1.86h.07c110.87,21.68,195.04,120.02,195.04,238.74,0,18-1.97,36.04-5.95,53.52v.07l104.92,105.66c39.39-136.57-122.51-415.55-340.23-402.46l-.04-.04ZM907.26,547.17c.41-1.15.86-2.27,1.19-3.42-.48,1.08-1,2.12-1.49,3.12l.3.3Z"></path><path class="cls-3" d="M624.05,614.71c-198.68,66.72-395.5-52.25-431.35-236.65,0,207.79,169.3,376.05,377.13,376.05,42.51,0,85.1-7.1,125.64-21.27,11.12-3.98,22.17-8.41,32.91-13.39l-104.32-104.73h0Z"></path><polygon class="cls-2" points="600.17 312.19 1016.35 728.37 825.74 728.37 503.88 407.48 600.17 312.19"></polygon><polygon class="cls-4" points="825.74 728.37 1016.35 728.37 876.99 589.01 503.88 407.48 825.74 728.37"></polygon><path class="cls-5" d="M635.8,610.58c-3.91,1.45-7.88,2.9-11.79,4.13l-.86-.86c4.28-.97,8.48-2.05,12.61-3.31l.04.04Z"></path><path class="cls-5" d="M906.97,546.87c.48-1,1-2.05,1.49-3.12-.37,1.15-.78,2.27-1.19,3.42l-.3-.3Z"></path><path class="cls-5" d="M911.24,538.02c-.89,1.93-1.79,3.83-2.75,5.69.78-2.12,1.45-4.28,2.05-6.43l.71.71v.04Z"></path></g><g><path class="cls-7" d="M4.69,93.76v635.28h145.76V239.93L4.69,93.72v.04Z"></path><path class="cls-6" d="M0,8.78l145.12,146.13V8.78H0Z"></path></g></g></g></svg>