<svg xmlns="http://www.w3.org/2000/svg" xmlns:xlink="http://www.w3.org/1999/xlink" id="Layer_2" data-name="Layer 2" viewBox="0 0 1007.23 204.24"><defs><style>      .cls-1 {        fill: url(#linear-gradient-2);      }      .cls-2 {        fill: url(#linear-gradient-4);      }      .cls-3 {        fill: url(#linear-gradient-3);      }      .cls-4 {        fill: url(#linear-gradient-5);      }      .cls-5 {        fill: #d3ebf8;      }      .cls-6 {        fill: url(#linear-gradient-7);      }      .cls-7 {        fill: url(#linear-gradient-6);      }      .cls-8 {        fill: url(#linear-gradient);      }    </style><linearGradient id="linear-gradient" x1="2774.74" y1="-3423.03" x2="2686.62" y2="-3709.61" gradientTransform="translate(-1843.97 -3465.21) scale(1 -1)" gradientUnits="userSpaceOnUse"><stop offset=".22" stop-color="#5ba4e0"></stop><stop offset=".49" stop-color="#257bc1"></stop><stop offset=".77" stop-color="#0a4c84"></stop></linearGradient><linearGradient id="linear-gradient-2" x1="2789.95" y1="-3626.09" x2="2768.38" y2="-3492.4" xlink:href="#linear-gradient"></linearGradient><linearGradient id="linear-gradient-3" x1="2836.24" y1="-3699.11" x2="2544.52" y2="-3559.69" gradientTransform="translate(-1843.97 -3465.21) scale(1 -1)" gradientUnits="userSpaceOnUse"><stop offset=".22" stop-color="#5ba4e0"></stop><stop offset=".55" stop-color="#257bc1"></stop><stop offset=".89" stop-color="#0a4c84"></stop></linearGradient><linearGradient id="linear-gradient-4" x1="2716.45" y1="-3527.57" x2="2855.83" y2="-3722.57" gradientTransform="translate(-1843.97 -3465.21) scale(1 -1)" gradientUnits="userSpaceOnUse"><stop offset=".1" stop-color="#5ba4e0"></stop><stop offset=".42" stop-color="#257bc1"></stop><stop offset=".68" stop-color="#0a4c84"></stop></linearGradient><linearGradient id="linear-gradient-5" x1="2847.24" y1="-3724.65" x2="2714.71" y2="-3510.68" gradientTransform="translate(-1843.97 -3465.21) scale(1 -1)" gradientUnits="userSpaceOnUse"><stop offset=".22" stop-color="#5ba4e0"></stop><stop offset=".44" stop-color="#257bc1"></stop><stop offset=".67" stop-color="#0a4c84"></stop></linearGradient><linearGradient id="linear-gradient-6" x1="2558" y1="-3749.09" x2="2621.37" y2="-3468.59" gradientTransform="translate(-1843.97 -3465.21) scale(1 -1)" gradientUnits="userSpaceOnUse"><stop offset=".26" stop-color="#5ba4e0"></stop><stop offset=".5" stop-color="#257bc1"></stop><stop offset=".74" stop-color="#0a4c84"></stop></linearGradient><linearGradient id="linear-gradient-7" x1="2586.35" y1="-3438.27" x2="2613.89" y2="-3525.47" gradientTransform="translate(-1843.97 -3465.21) scale(1 -1)" gradientUnits="userSpaceOnUse"><stop offset=".22" stop-color="#5ba4e0"></stop><stop offset=".58" stop-color="#257bc1"></stop><stop offset=".9" stop-color="#0a4c84"></stop></linearGradient></defs><g id="mosaiq-light-midnight-azure"><g id="Layer_1-2" data-name="Layer 1-2"><g><g><path class="cls-5" d="M238.78,65.68c-13.67-13.67-31.56-20.82-50.74-20.82s-37.41,8.46-51.08,22.12c-2.6,2.6-4.88,5.21-7.16,8.13-1.95-2.93-4.23-5.53-6.83-8.13-13.66-13.67-31.88-22.12-51.08-22.12-15.94,0-31.23,7.48-43.92,17.24,0,0-25.6,20.9-27.98,52.64v82.04h27.98v-80.02c0-24.4,19.84-44.57,43.92-44.57s43.92,20.16,43.92,44.57v80.02h27.98v-80.02c0-24.4,19.84-44.57,44.24-44.57s43.92,20.16,43.92,44.57v80.02h27.98v-80.02c0-19.52-7.48-37.41-21.14-51.08h0Z"></path><path class="cls-5" d="M408.17,66.98c-14.64-14.64-34.16-22.45-54.97-22.45s-40.34,7.81-55.31,22.45c-14.64,14.97-22.77,34.49-22.77,55.31s8.13,40.34,22.77,55.31c14.97,14.64,34.49,22.77,55.31,22.77s40.34-8.13,54.97-22.77c14.97-14.97,23.1-34.49,23.1-55.31s-8.13-40.34-23.1-55.31h0ZM353.2,172.39c-27.65,0-50.1-22.45-50.1-50.1s22.45-49.78,50.1-49.78,50.1,22.12,50.1,49.78-22.45,50.1-50.1,50.1Z"></path><path class="cls-5" d="M685.61,65.03c-13.33-12.48-31.56-20.5-50.1-20.5-20.82,0-40.34,7.81-55.31,22.45-14.64,14.97-22.77,34.49-22.77,55.31s8.13,40.34,22.77,55.31c14.97,14.64,34.49,22.45,55.31,22.45,18.54,0,36.11-8.78,50.1-20.5v17.24h27.98v-68.8c0-33.35-17.25-52.93-27.98-62.95h0ZM635.51,172.71c-27.65,0-50.1-22.77-50.1-50.42s22.45-50.42,50.1-50.42,50.1,22.77,50.1,50.42-22.45,50.42-50.1,50.42Z"></path><path class="cls-5" d="M544.59,129.12c-3.58-4.55-6.83-8.13-15.61-12.69-7.48-4.23-34.16-10.08-34.49-10.08-19.84-4.23-27.64-9.44-27.64-19.2,0-5.85,4.21-11.71,10.72-14.97,4.55-2.28,10.08-3.25,15.94-3.25,6.18,0,18.87,1.62,33.51,13.01l16.27-18.87c-11.71-9.44-25.7-15.61-40.02-17.89-3.58-.32-7.48-.65-11.06-.65-9.44,0-17.89,1.95-25.7,5.53-8.46,3.91-14.29,8.46-18.54,14.31-4.55,6.83-7.16,14.64-7.16,22.77,0,14.97,7.16,27,20.82,34.81,9.11,5.21,33.83,9.76,34.81,10.08,20.16,3.58,28.96,9.76,28.96,19.84s-7.48,14.97-11.71,16.91c-5.21,2.28-11.06,3.58-17.24,3.58-9.11,0-23.75-2.93-40.97-17.57l-17.59,19.2c13.03,11.06,28.3,18.22,44.57,21.47,5.21.98,10.08,1.62,15.29,1.62,9.44,0,18.87-1.95,26.67-5.53,8.78-4.23,15.29-9.44,19.84-16.27,4.88-6.83,7.16-14.97,7.16-23.42s-2.28-16.27-6.83-22.77h.01Z"></path></g><g><g><path class="cls-8" d="M980.44,62.59c-4.95-12.35-12.35-23.07-21.96-32.66-9.34-9.34-20.32-16.75-32.38-21.96-12.64-5.22-26.09-7.97-39.81-7.97-56.28,0-102.13,45.85-102.13,102.4s45.85,101.84,102.13,101.84c11.51,0,23.05-1.92,34.02-5.76,3.01-1.08,6-2.28,8.91-3.63l-28.25-28.36c1.06-.34,2.14-.74,3.19-1.12-1.12.34-2.26.63-3.41.9-4.73,1.16-9.6,1.75-14.46,1.75-35.96,0-65.34-29.37-65.34-65.61s29.37-65.87,65.34-65.87h.13c1.08,0,2.15.03,3.22.08,1.08.05,2.15.13,3.2.24,1.08.1,2.12.23,3.15.39h.02c.98.15,1.95.31,2.91.5h.02c29.95,5.97,52.67,32.54,52.67,64.65,0,4.84-.53,9.69-1.58,14.38l.11.11v.02l28.41,28.62c-.16.58-.34,1.17-.55,1.74.26-.5.5-1.03.75-1.54,1.45-3.07,2.75-6.26,3.87-9.55,4.12-10.71,6.05-22.24,6.05-33.76,0-13.73-2.75-27.18-8.25-39.81v-.03Z"></path><path class="cls-1" d="M886.43,36.51c1.08,0,2.15.03,3.22.08,1.08.05,2.15.13,3.2.24,1.08.1,2.12.23,3.15.39h.02c.98.15,1.95.31,2.91.5h.02c30.03,5.87,52.82,32.5,52.82,64.65,0,4.88-.53,9.76-1.61,14.49v.02l28.41,28.62c10.67-36.99-33.18-112.54-92.14-108.99h-.01ZM977.69,148.18c.11-.31.23-.61.32-.93-.13.29-.27.57-.4.85l.08.08Z"></path><path class="cls-3" d="M900.99,166.48c-53.81,18.07-107.11-14.15-116.82-64.09,0,56.27,45.85,101.84,102.13,101.84,11.51,0,23.05-1.92,34.02-5.76,3.01-1.08,6-2.28,8.91-3.63l-28.25-28.36h0Z"></path><polygon class="cls-2" points="894.52 84.55 1007.23 197.26 955.61 197.26 868.45 110.35 894.52 84.55"></polygon><polygon class="cls-4" points="955.61 197.26 1007.23 197.26 969.49 159.52 868.45 110.35 955.61 197.26"></polygon><path class="cls-5" d="M904.17,165.36c-1.06.39-2.14.79-3.19,1.12l-.23-.23c1.16-.26,2.3-.55,3.41-.9h.01Z"></path><path class="cls-5" d="M977.61,148.1c.13-.27.27-.55.4-.85-.1.31-.21.61-.32.93l-.08-.08Z"></path><path class="cls-5" d="M978.77,145.71c-.24.52-.48,1.04-.75,1.54.21-.57.39-1.16.55-1.74l.19.19h0Z"></path></g><g><path class="cls-7" d="M733.26,25.39v172.05h39.47V64.98l-39.47-39.59h0Z"></path><path class="cls-6" d="M731.99,2.38l39.3,39.57V2.38h-39.3Z"></path></g></g></g></g></g></svg>