<svg xmlns="http://www.w3.org/2000/svg" xmlns:xlink="http://www.w3.org/1999/xlink" id="Layer_2" data-name="Layer 2" viewBox="0 0 1019.64 206.75"><defs><style>      .cls-1 {        fill: url(#linear-gradient-2);      }      .cls-2 {        fill: url(#linear-gradient-4);      }      .cls-3 {        fill: #002b4b;      }      .cls-4 {        fill: url(#linear-gradient-3);      }      .cls-5 {        fill: url(#linear-gradient-5);      }      .cls-6 {        fill: url(#linear-gradient-7);      }      .cls-7 {        fill: url(#linear-gradient-6);      }      .cls-8 {        fill: url(#linear-gradient);      }    </style><linearGradient id="linear-gradient" x1="2786.21" y1="-2044.81" x2="2697" y2="-2334.92" gradientTransform="translate(-1843.97 -2087.5) scale(1 -1)" gradientUnits="userSpaceOnUse"><stop offset=".22" stop-color="#0a4c84"></stop><stop offset=".49" stop-color="#257bc1"></stop><stop offset=".77" stop-color="#5ba4e0"></stop></linearGradient><linearGradient id="linear-gradient-2" x1="2801.6" y1="-2250.37" x2="2779.76" y2="-2115.03" xlink:href="#linear-gradient"></linearGradient><linearGradient id="linear-gradient-3" x1="2848.46" y1="-2324.29" x2="2553.14" y2="-2183.15" gradientTransform="translate(-1843.97 -2087.5) scale(1 -1)" gradientUnits="userSpaceOnUse"><stop offset=".22" stop-color="#0a4c84"></stop><stop offset=".55" stop-color="#257bc1"></stop><stop offset=".89" stop-color="#5ba4e0"></stop></linearGradient><linearGradient id="linear-gradient-4" x1="2727.2" y1="-2150.63" x2="2868.29" y2="-2348.03" gradientTransform="translate(-1843.97 -2087.5) scale(1 -1)" gradientUnits="userSpaceOnUse"><stop offset=".1" stop-color="#0a4c84"></stop><stop offset=".42" stop-color="#257bc1"></stop><stop offset=".68" stop-color="#5ba4e0"></stop></linearGradient><linearGradient id="linear-gradient-5" x1="2859.6" y1="-2350.14" x2="2725.43" y2="-2133.53" gradientTransform="translate(-1843.97 -2087.5) scale(1 -1)" gradientUnits="userSpaceOnUse"><stop offset=".22" stop-color="#0a4c84"></stop><stop offset=".44" stop-color="#257bc1"></stop><stop offset=".67" stop-color="#5ba4e0"></stop></linearGradient><linearGradient id="linear-gradient-6" x1="2566.8" y1="-2374.88" x2="2630.94" y2="-2090.93" gradientTransform="translate(-1843.97 -2087.5) scale(1 -1)" gradientUnits="userSpaceOnUse"><stop offset=".26" stop-color="#0a4c84"></stop><stop offset=".5" stop-color="#257bc1"></stop><stop offset=".74" stop-color="#5ba4e0"></stop></linearGradient><linearGradient id="linear-gradient-7" x1="2595.5" y1="-2060.24" x2="2623.37" y2="-2148.51" gradientTransform="translate(-1843.97 -2087.5) scale(1 -1)" gradientUnits="userSpaceOnUse"><stop offset=".22" stop-color="#0a4c84"></stop><stop offset=".58" stop-color="#257bc1"></stop><stop offset=".9" stop-color="#5ba4e0"></stop></linearGradient></defs><g id="mosaiq-dark-midnight-azure"><g id="Layer_1-2" data-name="Layer 1-2"><g><g><path class="cls-3" d="M241.73,66.49c-13.84-13.84-31.95-21.08-51.37-21.08s-37.87,8.56-51.71,22.39c-2.63,2.63-4.94,5.27-7.25,8.23-1.98-2.97-4.28-5.6-6.91-8.23-13.83-13.84-32.27-22.39-51.71-22.39-16.14,0-31.62,7.58-44.46,17.46,0,0-25.92,21.16-28.33,53.29v83.05h28.33v-81.01c0-24.7,20.09-45.12,44.46-45.12s44.46,20.41,44.46,45.12v81.01h28.33v-81.01c0-24.7,20.09-45.12,44.78-45.12s44.46,20.41,44.46,45.12v81.01h28.33v-81.01c0-19.76-7.58-37.87-21.4-51.71h0Z"></path><path class="cls-3" d="M413.2,67.81c-14.82-14.82-34.58-22.73-55.65-22.73s-40.84,7.9-55.99,22.73c-14.82,15.15-23.05,34.91-23.05,55.99s8.23,40.84,23.05,55.99c15.15,14.82,34.91,23.05,55.99,23.05s40.84-8.23,55.65-23.05c15.15-15.15,23.38-34.91,23.38-55.99s-8.23-40.84-23.38-55.99h0ZM357.55,174.51c-27.99,0-50.72-22.73-50.72-50.72s22.73-50.39,50.72-50.39,50.72,22.39,50.72,50.39-22.73,50.72-50.72,50.72Z"></path><path class="cls-3" d="M694.06,65.83c-13.49-12.63-31.95-20.75-50.72-20.75-21.08,0-40.84,7.9-55.99,22.73-14.82,15.15-23.05,34.91-23.05,55.99s8.23,40.84,23.05,55.99c15.15,14.82,34.91,22.73,55.99,22.73,18.77,0,36.55-8.89,50.72-20.75v17.46h28.33v-69.65c0-33.76-17.47-53.58-28.33-63.73h0ZM643.34,174.84c-27.99,0-50.72-23.05-50.72-51.04s22.73-51.04,50.72-51.04,50.72,23.05,50.72,51.04-22.73,51.04-50.72,51.04Z"></path><path class="cls-3" d="M551.3,130.71c-3.62-4.61-6.91-8.23-15.8-12.85-7.58-4.28-34.58-10.21-34.91-10.21-20.09-4.28-27.98-9.55-27.98-19.43,0-5.92,4.26-11.86,10.85-15.15,4.61-2.3,10.21-3.29,16.14-3.29,6.26,0,19.1,1.64,33.92,13.17l16.47-19.1c-11.86-9.55-26.02-15.8-40.51-18.11-3.62-.33-7.58-.66-11.2-.66-9.55,0-18.11,1.98-26.02,5.6-8.56,3.96-14.47,8.56-18.77,14.49-4.61,6.91-7.25,14.82-7.25,23.05,0,15.15,7.25,27.34,21.08,35.24,9.22,5.27,34.25,9.88,35.24,10.21,20.41,3.62,29.31,9.88,29.31,20.09s-7.58,15.15-11.86,17.12c-5.27,2.3-11.2,3.62-17.46,3.62-9.22,0-24.04-2.97-41.48-17.78l-17.8,19.43c13.19,11.2,28.65,18.45,45.12,21.74,5.27.99,10.21,1.64,15.48,1.64,9.55,0,19.1-1.98,27-5.6,8.89-4.28,15.48-9.55,20.09-16.47,4.94-6.91,7.25-15.15,7.25-23.71s-2.3-16.47-6.91-23.05h.01Z"></path></g><g><g><path class="cls-8" d="M992.52,63.36c-5.01-12.5-12.5-23.35-22.23-33.07-9.45-9.45-20.57-16.96-32.78-22.23-12.8-5.28-26.41-8.07-40.3-8.07-56.98,0-103.39,46.41-103.39,103.66s46.41,103.1,103.39,103.1c11.65,0,23.33-1.95,34.44-5.83,3.05-1.09,6.08-2.3,9.02-3.67l-28.6-28.71c1.07-.35,2.16-.74,3.23-1.13-1.13.35-2.28.64-3.46.91-4.79,1.17-9.72,1.77-14.64,1.77-36.4,0-66.14-29.73-66.14-66.42s29.73-66.68,66.14-66.68h.13c1.09,0,2.17.03,3.26.08,1.09.05,2.17.13,3.24.24,1.09.1,2.14.23,3.19.4h.02c.99.15,1.98.32,2.95.51h.02c30.31,6.05,53.32,32.94,53.32,65.45,0,4.9-.54,9.81-1.6,14.56l.11.11v.02l28.76,28.97c-.16.59-.35,1.18-.56,1.76.27-.51.51-1.04.75-1.56,1.47-3.11,2.78-6.34,3.92-9.67,4.17-10.84,6.13-22.51,6.13-34.18,0-13.9-2.78-27.51-8.35-40.3v-.03Z"></path><path class="cls-1" d="M897.34,36.96c1.09,0,2.17.03,3.26.08,1.09.05,2.17.13,3.24.24,1.09.1,2.14.23,3.19.4h.02c.99.15,1.98.32,2.95.51h.02c30.4,5.94,53.47,32.9,53.47,65.45,0,4.94-.54,9.88-1.63,14.67v.02l28.76,28.97c10.8-37.44-33.59-113.92-93.28-110.34h-.01ZM989.73,150.01c.11-.32.23-.62.33-.94-.13.3-.28.58-.41.86l.08.08Z"></path><path class="cls-4" d="M912.09,168.53c-54.47,18.29-108.43-14.33-118.26-64.88,0,56.97,46.41,103.1,103.39,103.1,11.65,0,23.33-1.95,34.44-5.83,3.05-1.09,6.08-2.3,9.02-3.67l-28.6-28.71h0Z"></path><polygon class="cls-2" points="905.54 85.59 1019.64 199.69 967.38 199.69 879.14 111.71 905.54 85.59"></polygon><polygon class="cls-5" points="967.38 199.69 1019.64 199.69 981.43 161.48 879.14 111.71 967.38 199.69"></polygon><path class="cls-3" d="M915.31,167.39c-1.07.4-2.16.8-3.23,1.13l-.23-.23c1.17-.27,2.32-.56,3.46-.91h.01Z"></path><path class="cls-3" d="M989.65,149.93c.13-.28.28-.56.41-.86-.1.32-.21.62-.33.94l-.08-.08Z"></path><path class="cls-3" d="M990.82,147.5c-.24.53-.49,1.05-.75,1.56.21-.58.4-1.17.56-1.76l.19.19h0Z"></path></g><g><path class="cls-7" d="M742.29,25.71v174.16h39.96V65.78l-39.96-40.08h0Z"></path><path class="cls-6" d="M741,2.41l39.79,40.06V2.41h-39.79Z"></path></g></g></g></g></g></svg>